<?xml version="1.0" encoding="UTF-8" standalone="no"?>
<svg
   xmlns:dc="http://purl.org/dc/elements/1.1/"
   xmlns:cc="http://creativecommons.org/ns#"
   xmlns:rdf="http://www.w3.org/1999/02/22-rdf-syntax-ns#"
   xmlns:svg="http://www.w3.org/2000/svg"
   xmlns="http://www.w3.org/2000/svg"
   xmlns:xlink="http://www.w3.org/1999/xlink"
   xmlns:sodipodi="http://sodipodi.sourceforge.net/DTD/sodipodi-0.dtd"
   xmlns:inkscape="http://www.inkscape.org/namespaces/inkscape"
   sodipodi:docname="dmkde_model_shrink.svg"
   inkscape:version="1.0.2 (e86c870879, 2021-01-15)"
   id="svg10476"
   version="1.1"
   viewBox="0 0 61.104465 136.22751"
   height="136.22751mm"
   width="61.104465mm">
  <defs
     id="defs10470">
    <marker
       style="overflow:visible"
       id="marker11493"
       refX="0"
       refY="0"
       orient="auto"
       inkscape:stockid="Arrow1Mend"
       inkscape:isstock="true">
      <path
         transform="matrix(-0.4,0,0,-0.4,-4,0)"
         style="fill:#000000;fill-opacity:1;fill-rule:evenodd;stroke:#000000;stroke-width:1pt;stroke-opacity:1"
         d="M 0,0 5,-5 -12.5,0 5,5 Z"
         id="path11491" />
    </marker>
    <marker
       style="overflow:visible"
       id="Arrow1Mstart"
       refX="0"
       refY="0"
       orient="auto"
       inkscape:stockid="Arrow1Mstart"
       inkscape:isstock="true">
      <path
         transform="matrix(0.4,0,0,0.4,4,0)"
         style="fill:#000000;fill-opacity:1;fill-rule:evenodd;stroke:#000000;stroke-width:1pt;stroke-opacity:1"
         d="M 0,0 5,-5 -12.5,0 5,5 Z"
         id="path5907" />
    </marker>
    <marker
       style="overflow:visible"
       id="marker11307"
       refX="0"
       refY="0"
       orient="auto"
       inkscape:stockid="Arrow1Mend"
       inkscape:isstock="true">
      <path
         transform="matrix(-0.4,0,0,-0.4,-4,0)"
         style="fill:#000000;fill-opacity:1;fill-rule:evenodd;stroke:#000000;stroke-width:1pt;stroke-opacity:1"
         d="M 0,0 5,-5 -12.5,0 5,5 Z"
         id="path11305" />
    </marker>
    <marker
       style="overflow:visible"
       id="Arrow1Mend"
       refX="0"
       refY="0"
       orient="auto"
       inkscape:stockid="Arrow1Mend"
       inkscape:isstock="true"
       inkscape:collect="always">
      <path
         transform="matrix(-0.4,0,0,-0.4,-4,0)"
         style="fill:#000000;fill-opacity:1;fill-rule:evenodd;stroke:#000000;stroke-width:1pt;stroke-opacity:1"
         d="M 0,0 5,-5 -12.5,0 5,5 Z"
         id="path5910" />
    </marker>
    <marker
       style="overflow:visible"
       id="marker11307-2"
       refX="0"
       refY="0"
       orient="auto"
       inkscape:stockid="Arrow1Mend"
       inkscape:isstock="true">
      <path
         transform="matrix(-0.4,0,0,-0.4,-4,0)"
         style="fill:#000000;fill-opacity:1;fill-rule:evenodd;stroke:#000000;stroke-width:1pt;stroke-opacity:1"
         d="M 0,0 5,-5 -12.5,0 5,5 Z"
         id="path11305-9" />
    </marker>
    <g
       id="g7303">
      <symbol
         overflow="visible"
         id="symbol2447">
        <path
           style="stroke:none"
           d=""
           id="path1487" />
      </symbol>
      <symbol
         overflow="visible"
         id="symbol5362">
        <path
           style="stroke:none"
           d="M 3.328125,-3.015625 C 3.390625,-3.265625 3.625,-4.1875 4.3125,-4.1875 c 0.046875,0 0.296875,0 0.5,0.125 C 4.53125,-4 4.34375,-3.765625 4.34375,-3.515625 c 0,0.15625 0.109375,0.34375 0.375,0.34375 0.21875,0 0.53125,-0.171875 0.53125,-0.578125 0,-0.515625 -0.578125,-0.65625 -0.921875,-0.65625 -0.578125,0 -0.921875,0.53125 -1.046875,0.75 -0.25,-0.65625 -0.78125,-0.75 -1.078125,-0.75 -1.03125,0 -1.609375,1.28125 -1.609375,1.53125 0,0.109375 0.109375,0.109375 0.125,0.109375 0.078125,0 0.109375,-0.03125 0.125,-0.109375 0.34375,-1.0625 1,-1.3125 1.34375,-1.3125 0.1875,0 0.53125,0.09375 0.53125,0.671875 0,0.3125 -0.171875,0.96875 -0.53125,2.375 -0.15625,0.609375 -0.515625,1.03125 -0.953125,1.03125 -0.0625,0 -0.28125,0 -0.5,-0.125 0.25,-0.0625 0.46875,-0.265625 0.46875,-0.546875 0,-0.265625 -0.21875,-0.34375 -0.359375,-0.34375 -0.3125,0 -0.546875,0.25 -0.546875,0.578125 0,0.453125 0.484375,0.65625 0.921875,0.65625 0.671875,0 1.03125,-0.703125 1.046875,-0.75 0.125,0.359375 0.484375,0.75 1.078125,0.75 1.03125,0 1.59375,-1.28125 1.59375,-1.53125 0,-0.109375 -0.078125,-0.109375 -0.109375,-0.109375 -0.09375,0 -0.109375,0.046875 -0.140625,0.109375 -0.328125,1.078125 -1,1.3125 -1.3125,1.3125 -0.390625,0 -0.546875,-0.3125 -0.546875,-0.65625 0,-0.21875 0.046875,-0.4375 0.15625,-0.875 z m 0,0"
           id="path4914" />
      </symbol>
    </g>
    <g
       id="g3184">
      <symbol
         overflow="visible"
         id="symbol7740">
        <path
           style="stroke:none"
           d=""
           id="path8691" />
      </symbol>
      <symbol
         overflow="visible"
         id="symbol1749">
        <path
           style="stroke:none"
           d="m 4.359375,-6.671875 c 0,-0.03125 0.03125,-0.140625 0.03125,-0.140625 0,-0.015625 0,-0.109375 -0.125,-0.109375 -0.09375,0 -0.109375,0.03125 -0.15625,0.203125 L 3.53125,-4.421875 c -1.578125,0.0625 -3.046875,1.375 -3.046875,2.734375 0,0.953125 0.703125,1.734375 1.921875,1.8125 C 2.328125,0.421875 2.25,0.75 2.171875,1.0625 c -0.125,0.46875 -0.21875,0.84375 -0.21875,0.875 0,0.09375 0.078125,0.109375 0.125,0.109375 C 2.125,2.046875 2.140625,2.03125 2.171875,2 2.1875,1.984375 2.25,1.75 2.28125,1.609375 L 2.65625,0.125 c 1.609375,-0.0625 3.0625,-1.40625 3.0625,-2.734375 0,-0.796875 -0.53125,-1.703125 -1.921875,-1.8125 z m -1.90625,6.578125 c -0.59375,-0.03125 -1.3125,-0.390625 -1.3125,-1.375 0,-1.203125 0.859375,-2.59375 2.34375,-2.734375 z m 1.28125,-4.109375 c 0.765625,0.046875 1.328125,0.5 1.328125,1.375 0,1.1875 -0.859375,2.609375 -2.34375,2.734375 z m 0,0"
           id="path4920" />
      </symbol>
      <symbol
         overflow="visible"
         id="symbol8528">
        <path
           style="stroke:none"
           d="M 3.328125,-3.015625 C 3.390625,-3.265625 3.625,-4.1875 4.3125,-4.1875 c 0.046875,0 0.296875,0 0.5,0.125 C 4.53125,-4 4.34375,-3.765625 4.34375,-3.515625 c 0,0.15625 0.109375,0.34375 0.375,0.34375 0.21875,0 0.53125,-0.171875 0.53125,-0.578125 0,-0.515625 -0.578125,-0.65625 -0.921875,-0.65625 -0.578125,0 -0.921875,0.53125 -1.046875,0.75 -0.25,-0.65625 -0.78125,-0.75 -1.078125,-0.75 -1.03125,0 -1.609375,1.28125 -1.609375,1.53125 0,0.109375 0.109375,0.109375 0.125,0.109375 0.078125,0 0.109375,-0.03125 0.125,-0.109375 0.34375,-1.0625 1,-1.3125 1.34375,-1.3125 0.1875,0 0.53125,0.09375 0.53125,0.671875 0,0.3125 -0.171875,0.96875 -0.53125,2.375 -0.15625,0.609375 -0.515625,1.03125 -0.953125,1.03125 -0.0625,0 -0.28125,0 -0.5,-0.125 0.25,-0.0625 0.46875,-0.265625 0.46875,-0.546875 0,-0.265625 -0.21875,-0.34375 -0.359375,-0.34375 -0.3125,0 -0.546875,0.25 -0.546875,0.578125 0,0.453125 0.484375,0.65625 0.921875,0.65625 0.671875,0 1.03125,-0.703125 1.046875,-0.75 0.125,0.359375 0.484375,0.75 1.078125,0.75 1.03125,0 1.59375,-1.28125 1.59375,-1.53125 0,-0.109375 -0.078125,-0.109375 -0.109375,-0.109375 -0.09375,0 -0.109375,0.046875 -0.140625,0.109375 -0.328125,1.078125 -1,1.3125 -1.3125,1.3125 -0.390625,0 -0.546875,-0.3125 -0.546875,-0.65625 0,-0.21875 0.046875,-0.4375 0.15625,-0.875 z m 0,0"
           id="path2748" />
      </symbol>
      <symbol
         overflow="visible"
         id="symbol7682">
        <path
           style="stroke:none"
           d=""
           id="path5453" />
      </symbol>
      <symbol
         overflow="visible"
         id="symbol4233">
        <path
           style="stroke:none"
           d="m 1.390625,-1.59375 c 0,-0.578125 0.265625,-1.28125 0.9375,-1.28125 -0.0625,0.046875 -0.125,0.140625 -0.125,0.25 0,0.234375 0.1875,0.3125 0.3125,0.3125 0.171875,0 0.328125,-0.109375 0.328125,-0.3125 0,-0.234375 -0.234375,-0.453125 -0.5625,-0.453125 -0.34375,0 -0.734375,0.21875 -0.9375,0.75 v -0.75 L 0.34375,-3 v 0.25 c 0.46875,0 0.515625,0.046875 0.515625,0.390625 v 1.8125 C 0.859375,-0.25 0.796875,-0.25 0.34375,-0.25 V 0 c 0.03125,0 0.5,-0.03125 0.796875,-0.03125 0.296875,0 0.59375,0.015625 0.90625,0.03125 V -0.25 H 1.90625 c -0.515625,0 -0.515625,-0.078125 -0.515625,-0.3125 z m 0,0"
           id="path6025" />
      </symbol>
      <symbol
         overflow="visible"
         id="symbol6681">
        <path
           style="stroke:none"
           d="m 3.640625,-2.75 h 0.875 V -3 h -0.90625 v -0.78125 c 0,-0.625 0.375,-0.921875 0.6875,-0.921875 0.0625,0 0.125,0 0.203125,0.03125 -0.109375,0.046875 -0.15625,0.15625 -0.15625,0.28125 0,0.1875 0.125,0.3125 0.3125,0.3125 0.1875,0 0.328125,-0.125 0.328125,-0.3125 0,-0.3125 -0.296875,-0.515625 -0.6875,-0.515625 -0.25,0 -0.546875,0.078125 -0.8125,0.296875 -0.21875,-0.25 -0.640625,-0.296875 -0.90625,-0.296875 -0.765625,0 -1.71875,0.34375 -1.71875,1.140625 V -3 h -0.59375 v 0.25 h 0.59375 v 2.203125 C 0.859375,-0.25 0.796875,-0.25 0.34375,-0.25 V 0 c 0.015625,0 0.5,-0.03125 0.78125,-0.03125 0.265625,0 0.515625,0.015625 0.78125,0.03125 v -0.25 c -0.453125,0 -0.515625,0 -0.515625,-0.296875 V -2.75 h 1.71875 v 2.203125 C 3.109375,-0.25 3.046875,-0.25 2.59375,-0.25 V 0 C 2.625,0 3.09375,-0.03125 3.390625,-0.03125 3.6875,-0.03125 4,-0.015625 4.296875,0 V -0.25 H 4.15625 c -0.515625,0 -0.515625,-0.078125 -0.515625,-0.3125 z M 1.359375,-3 v -0.765625 c 0,-0.671875 0.6875,-0.9375 1.203125,-0.9375 0.0625,0 0.359375,0 0.59375,0.109375 -0.078125,0.015625 -0.203125,0.109375 -0.203125,0.296875 0,0.09375 0.03125,0.21875 0.171875,0.28125 C 3.109375,-3.9375 3.109375,-3.859375 3.109375,-3.78125 V -3 Z m 0,0"
           id="path771" />
      </symbol>
      <symbol
         overflow="visible"
         id="symbol3558">
        <path
           style="stroke:none"
           d=""
           id="path3851" />
      </symbol>
      <symbol
         overflow="visible"
         id="symbol7381">
        <path
           style="stroke:none"
           d="m 3.296875,2.390625 c 0,-0.03125 0,-0.046875 -0.171875,-0.21875 C 1.890625,0.921875 1.5625,-0.96875 1.5625,-2.5 c 0,-1.734375 0.375,-3.46875 1.609375,-4.703125 0.125,-0.125 0.125,-0.140625 0.125,-0.171875 0,-0.078125 -0.03125,-0.109375 -0.09375,-0.109375 -0.109375,0 -1,0.6875 -1.59375,1.953125 -0.5,1.09375 -0.625,2.203125 -0.625,3.03125 0,0.78125 0.109375,1.984375 0.65625,3.125 C 2.25,1.84375 3.09375,2.5 3.203125,2.5 c 0.0625,0 0.09375,-0.03125 0.09375,-0.109375 z m 0,0"
           id="path9154" />
      </symbol>
      <symbol
         overflow="visible"
         id="symbol6160">
        <path
           style="stroke:none"
           d="m 2.875,-2.5 c 0,-0.765625 -0.109375,-1.96875 -0.65625,-3.109375 -0.59375,-1.21875 -1.453125,-1.875 -1.546875,-1.875 -0.0625,0 -0.109375,0.046875 -0.109375,0.109375 0,0.03125 0,0.046875 0.1875,0.234375 0.984375,0.984375 1.546875,2.5625 1.546875,4.640625 0,1.71875 -0.359375,3.46875 -1.59375,4.71875 C 0.5625,2.34375 0.5625,2.359375 0.5625,2.390625 0.5625,2.453125 0.609375,2.5 0.671875,2.5 0.765625,2.5 1.671875,1.8125 2.25,0.546875 2.765625,-0.546875 2.875,-1.65625 2.875,-2.5 Z m 0,0"
           id="path4096" />
      </symbol>
    </g>
    <g
       id="g6709">
      <symbol
         overflow="visible"
         id="symbol8170">
        <path
           style="stroke:none"
           d=""
           id="path4816" />
      </symbol>
      <symbol
         overflow="visible"
         id="symbol6630">
        <path
           style="stroke:none"
           d="M 4.28125,-5.578125 V -5.875 H 0.6875 v 0.296875 z m 0,0"
           id="path595" />
      </symbol>
      <symbol
         overflow="visible"
         id="symbol4079">
        <path
           style="stroke:none"
           d="m 3.296875,2.390625 c 0,-0.03125 0,-0.046875 -0.171875,-0.21875 C 1.890625,0.921875 1.5625,-0.96875 1.5625,-2.5 c 0,-1.734375 0.375,-3.46875 1.609375,-4.703125 0.125,-0.125 0.125,-0.140625 0.125,-0.171875 0,-0.078125 -0.03125,-0.109375 -0.09375,-0.109375 -0.109375,0 -1,0.6875 -1.59375,1.953125 -0.5,1.09375 -0.625,2.203125 -0.625,3.03125 0,0.78125 0.109375,1.984375 0.65625,3.125 C 2.25,1.84375 3.09375,2.5 3.203125,2.5 c 0.0625,0 0.09375,-0.03125 0.09375,-0.109375 z m 0,0"
           id="path6698" />
      </symbol>
      <symbol
         overflow="visible"
         id="symbol7265">
        <path
           style="stroke:none"
           d="m 2.875,-2.5 c 0,-0.765625 -0.109375,-1.96875 -0.65625,-3.109375 -0.59375,-1.21875 -1.453125,-1.875 -1.546875,-1.875 -0.0625,0 -0.109375,0.046875 -0.109375,0.109375 0,0.03125 0,0.046875 0.1875,0.234375 0.984375,0.984375 1.546875,2.5625 1.546875,4.640625 0,1.71875 -0.359375,3.46875 -1.59375,4.71875 C 0.5625,2.34375 0.5625,2.359375 0.5625,2.390625 0.5625,2.453125 0.609375,2.5 0.671875,2.5 0.765625,2.5 1.671875,1.8125 2.25,0.546875 2.765625,-0.546875 2.875,-1.65625 2.875,-2.5 Z m 0,0"
           id="path6495" />
      </symbol>
      <symbol
         overflow="visible"
         id="symbol5758">
        <path
           style="stroke:none"
           d=""
           id="path7953" />
      </symbol>
      <symbol
         overflow="visible"
         id="symbol6063">
        <path
           style="stroke:none"
           d="m 4.359375,-6.671875 c 0,-0.03125 0.03125,-0.140625 0.03125,-0.140625 0,-0.015625 0,-0.109375 -0.125,-0.109375 -0.09375,0 -0.109375,0.03125 -0.15625,0.203125 L 3.53125,-4.421875 c -1.578125,0.0625 -3.046875,1.375 -3.046875,2.734375 0,0.953125 0.703125,1.734375 1.921875,1.8125 C 2.328125,0.421875 2.25,0.75 2.171875,1.0625 c -0.125,0.46875 -0.21875,0.84375 -0.21875,0.875 0,0.09375 0.078125,0.109375 0.125,0.109375 C 2.125,2.046875 2.140625,2.03125 2.171875,2 2.1875,1.984375 2.25,1.75 2.28125,1.609375 L 2.65625,0.125 c 1.609375,-0.0625 3.0625,-1.40625 3.0625,-2.734375 0,-0.796875 -0.53125,-1.703125 -1.921875,-1.8125 z m -1.90625,6.578125 c -0.59375,-0.03125 -1.3125,-0.390625 -1.3125,-1.375 0,-1.203125 0.859375,-2.59375 2.34375,-2.734375 z m 1.28125,-4.109375 c 0.765625,0.046875 1.328125,0.5 1.328125,1.375 0,1.1875 -0.859375,2.609375 -2.34375,2.734375 z m 0,0"
           id="path7084" />
      </symbol>
      <symbol
         overflow="visible"
         id="symbol9706">
        <path
           style="stroke:none"
           d="M 3.328125,-3.015625 C 3.390625,-3.265625 3.625,-4.1875 4.3125,-4.1875 c 0.046875,0 0.296875,0 0.5,0.125 C 4.53125,-4 4.34375,-3.765625 4.34375,-3.515625 c 0,0.15625 0.109375,0.34375 0.375,0.34375 0.21875,0 0.53125,-0.171875 0.53125,-0.578125 0,-0.515625 -0.578125,-0.65625 -0.921875,-0.65625 -0.578125,0 -0.921875,0.53125 -1.046875,0.75 -0.25,-0.65625 -0.78125,-0.75 -1.078125,-0.75 -1.03125,0 -1.609375,1.28125 -1.609375,1.53125 0,0.109375 0.109375,0.109375 0.125,0.109375 0.078125,0 0.109375,-0.03125 0.125,-0.109375 0.34375,-1.0625 1,-1.3125 1.34375,-1.3125 0.1875,0 0.53125,0.09375 0.53125,0.671875 0,0.3125 -0.171875,0.96875 -0.53125,2.375 -0.15625,0.609375 -0.515625,1.03125 -0.953125,1.03125 -0.0625,0 -0.28125,0 -0.5,-0.125 0.25,-0.0625 0.46875,-0.265625 0.46875,-0.546875 0,-0.265625 -0.21875,-0.34375 -0.359375,-0.34375 -0.3125,0 -0.546875,0.25 -0.546875,0.578125 0,0.453125 0.484375,0.65625 0.921875,0.65625 0.671875,0 1.03125,-0.703125 1.046875,-0.75 0.125,0.359375 0.484375,0.75 1.078125,0.75 1.03125,0 1.59375,-1.28125 1.59375,-1.53125 0,-0.109375 -0.078125,-0.109375 -0.109375,-0.109375 -0.09375,0 -0.109375,0.046875 -0.140625,0.109375 -0.328125,1.078125 -1,1.3125 -1.3125,1.3125 -0.390625,0 -0.546875,-0.3125 -0.546875,-0.65625 0,-0.21875 0.046875,-0.4375 0.15625,-0.875 z m 0,0"
           id="path2235" />
      </symbol>
      <symbol
         overflow="visible"
         id="symbol6799">
        <path
           style="stroke:none"
           d=""
           id="path9858" />
      </symbol>
      <symbol
         overflow="visible"
         id="symbol2348">
        <path
           style="stroke:none"
           d="m 1.390625,-1.59375 c 0,-0.578125 0.265625,-1.28125 0.9375,-1.28125 -0.0625,0.046875 -0.125,0.140625 -0.125,0.25 0,0.234375 0.1875,0.3125 0.3125,0.3125 0.171875,0 0.328125,-0.109375 0.328125,-0.3125 0,-0.234375 -0.234375,-0.453125 -0.5625,-0.453125 -0.34375,0 -0.734375,0.21875 -0.9375,0.75 v -0.75 L 0.34375,-3 v 0.25 c 0.46875,0 0.515625,0.046875 0.515625,0.390625 v 1.8125 C 0.859375,-0.25 0.796875,-0.25 0.34375,-0.25 V 0 c 0.03125,0 0.5,-0.03125 0.796875,-0.03125 0.296875,0 0.59375,0.015625 0.90625,0.03125 V -0.25 H 1.90625 c -0.515625,0 -0.515625,-0.078125 -0.515625,-0.3125 z m 0,0"
           id="path3065" />
      </symbol>
      <symbol
         overflow="visible"
         id="symbol7965">
        <path
           style="stroke:none"
           d="m 3.640625,-2.75 h 0.875 V -3 h -0.90625 v -0.78125 c 0,-0.625 0.375,-0.921875 0.6875,-0.921875 0.0625,0 0.125,0 0.203125,0.03125 -0.109375,0.046875 -0.15625,0.15625 -0.15625,0.28125 0,0.1875 0.125,0.3125 0.3125,0.3125 0.1875,0 0.328125,-0.125 0.328125,-0.3125 0,-0.3125 -0.296875,-0.515625 -0.6875,-0.515625 -0.25,0 -0.546875,0.078125 -0.8125,0.296875 -0.21875,-0.25 -0.640625,-0.296875 -0.90625,-0.296875 -0.765625,0 -1.71875,0.34375 -1.71875,1.140625 V -3 h -0.59375 v 0.25 h 0.59375 v 2.203125 C 0.859375,-0.25 0.796875,-0.25 0.34375,-0.25 V 0 c 0.015625,0 0.5,-0.03125 0.78125,-0.03125 0.265625,0 0.515625,0.015625 0.78125,0.03125 v -0.25 c -0.453125,0 -0.515625,0 -0.515625,-0.296875 V -2.75 h 1.71875 v 2.203125 C 3.109375,-0.25 3.046875,-0.25 2.59375,-0.25 V 0 C 2.625,0 3.09375,-0.03125 3.390625,-0.03125 3.6875,-0.03125 4,-0.015625 4.296875,0 V -0.25 H 4.15625 c -0.515625,0 -0.515625,-0.078125 -0.515625,-0.3125 z M 1.359375,-3 v -0.765625 c 0,-0.671875 0.6875,-0.9375 1.203125,-0.9375 0.0625,0 0.359375,0 0.59375,0.109375 -0.078125,0.015625 -0.203125,0.109375 -0.203125,0.296875 0,0.09375 0.03125,0.21875 0.171875,0.28125 C 3.109375,-3.9375 3.109375,-3.859375 3.109375,-3.78125 V -3 Z m 0,0"
           id="path1542" />
      </symbol>
    </g>
    <g
       id="g1429">
      <symbol
         overflow="visible"
         id="symbol4962">
        <path
           style="stroke:none"
           d=""
           id="path2750" />
      </symbol>
      <symbol
         overflow="visible"
         id="symbol4261">
        <path
           style="stroke:none"
           d="M 2.5,-6.921875 1.15625,-5.5625 1.328125,-5.390625 2.5,-6.40625 3.640625,-5.390625 3.8125,-5.5625 Z m 0,0"
           id="path8350" />
      </symbol>
      <symbol
         overflow="visible"
         id="symbol7200">
        <path
           style="stroke:none"
           d="m 3.296875,2.390625 c 0,-0.03125 0,-0.046875 -0.171875,-0.21875 C 1.890625,0.921875 1.5625,-0.96875 1.5625,-2.5 c 0,-1.734375 0.375,-3.46875 1.609375,-4.703125 0.125,-0.125 0.125,-0.140625 0.125,-0.171875 0,-0.078125 -0.03125,-0.109375 -0.09375,-0.109375 -0.109375,0 -1,0.6875 -1.59375,1.953125 -0.5,1.09375 -0.625,2.203125 -0.625,3.03125 0,0.78125 0.109375,1.984375 0.65625,3.125 C 2.25,1.84375 3.09375,2.5 3.203125,2.5 c 0.0625,0 0.09375,-0.03125 0.09375,-0.109375 z m 0,0"
           id="path3673" />
      </symbol>
      <symbol
         overflow="visible"
         id="symbol3661">
        <path
           style="stroke:none"
           d="m 2.875,-2.5 c 0,-0.765625 -0.109375,-1.96875 -0.65625,-3.109375 -0.59375,-1.21875 -1.453125,-1.875 -1.546875,-1.875 -0.0625,0 -0.109375,0.046875 -0.109375,0.109375 0,0.03125 0,0.046875 0.1875,0.234375 0.984375,0.984375 1.546875,2.5625 1.546875,4.640625 0,1.71875 -0.359375,3.46875 -1.59375,4.71875 C 0.5625,2.34375 0.5625,2.359375 0.5625,2.390625 0.5625,2.453125 0.609375,2.5 0.671875,2.5 0.765625,2.5 1.671875,1.8125 2.25,0.546875 2.765625,-0.546875 2.875,-1.65625 2.875,-2.5 Z m 0,0"
           id="path6272" />
      </symbol>
      <symbol
         overflow="visible"
         id="symbol8501">
        <path
           style="stroke:none"
           d=""
           id="path6058" />
      </symbol>
      <symbol
         overflow="visible"
         id="symbol9187">
        <path
           style="stroke:none"
           d="m 3.65625,-3.984375 h 0.859375 c 0.203125,0 0.296875,0 0.296875,-0.203125 0,-0.109375 -0.09375,-0.109375 -0.265625,-0.109375 H 3.71875 L 3.921875,-5.4375 c 0.046875,-0.203125 0.1875,-0.90625 0.25,-1.03125 0.078125,-0.1875 0.25,-0.34375 0.46875,-0.34375 0.03125,0 0.296875,0 0.484375,0.1875 -0.4375,0.03125 -0.546875,0.390625 -0.546875,0.53125 0,0.234375 0.1875,0.359375 0.375,0.359375 C 5.21875,-5.734375 5.5,-5.96875 5.5,-6.34375 c 0,-0.453125 -0.453125,-0.6875 -0.859375,-0.6875 -0.34375,0 -0.96875,0.1875 -1.265625,1.171875 -0.0625,0.203125 -0.09375,0.3125 -0.328125,1.5625 h -0.6875 c -0.203125,0 -0.3125,0 -0.3125,0.1875 0,0.125 0.09375,0.125 0.28125,0.125 h 0.65625 L 2.25,-0.046875 c -0.1875,0.96875 -0.359375,1.875 -0.875,1.875 -0.046875,0 -0.28125,0 -0.484375,-0.1875 C 1.359375,1.609375 1.453125,1.25 1.453125,1.109375 1.453125,0.875 1.265625,0.75 1.078125,0.75 0.8125,0.75 0.53125,0.984375 0.53125,1.359375 c 0,0.4375 0.4375,0.6875 0.84375,0.6875 0.546875,0 0.953125,-0.59375 1.125,-0.96875 0.328125,-0.625 0.546875,-1.828125 0.5625,-1.90625 z m 0,0"
           id="path1607" />
      </symbol>
      <symbol
         overflow="visible"
         id="symbol9438">
        <path
           style="stroke:none"
           d="M 3.328125,-3.015625 C 3.390625,-3.265625 3.625,-4.1875 4.3125,-4.1875 c 0.046875,0 0.296875,0 0.5,0.125 C 4.53125,-4 4.34375,-3.765625 4.34375,-3.515625 c 0,0.15625 0.109375,0.34375 0.375,0.34375 0.21875,0 0.53125,-0.171875 0.53125,-0.578125 0,-0.515625 -0.578125,-0.65625 -0.921875,-0.65625 -0.578125,0 -0.921875,0.53125 -1.046875,0.75 -0.25,-0.65625 -0.78125,-0.75 -1.078125,-0.75 -1.03125,0 -1.609375,1.28125 -1.609375,1.53125 0,0.109375 0.109375,0.109375 0.125,0.109375 0.078125,0 0.109375,-0.03125 0.125,-0.109375 0.34375,-1.0625 1,-1.3125 1.34375,-1.3125 0.1875,0 0.53125,0.09375 0.53125,0.671875 0,0.3125 -0.171875,0.96875 -0.53125,2.375 -0.15625,0.609375 -0.515625,1.03125 -0.953125,1.03125 -0.0625,0 -0.28125,0 -0.5,-0.125 0.25,-0.0625 0.46875,-0.265625 0.46875,-0.546875 0,-0.265625 -0.21875,-0.34375 -0.359375,-0.34375 -0.3125,0 -0.546875,0.25 -0.546875,0.578125 0,0.453125 0.484375,0.65625 0.921875,0.65625 0.671875,0 1.03125,-0.703125 1.046875,-0.75 0.125,0.359375 0.484375,0.75 1.078125,0.75 1.03125,0 1.59375,-1.28125 1.59375,-1.53125 0,-0.109375 -0.078125,-0.109375 -0.109375,-0.109375 -0.09375,0 -0.109375,0.046875 -0.140625,0.109375 -0.328125,1.078125 -1,1.3125 -1.3125,1.3125 -0.390625,0 -0.546875,-0.3125 -0.546875,-0.65625 0,-0.21875 0.046875,-0.4375 0.15625,-0.875 z m 0,0"
           id="path6071" />
      </symbol>
      <symbol
         overflow="visible"
         id="symbol2316">
        <path
           style="stroke:none"
           d=""
           id="path6118" />
      </symbol>
      <symbol
         overflow="visible"
         id="symbol3250">
        <path
           style="stroke:none"
           d="M 0.375,1.125 C 0.34375,1.21875 0.34375,1.265625 0.34375,1.265625 c 0,0.15625 0.125,0.21875 0.234375,0.21875 0.265625,0 0.3125,-0.203125 0.359375,-0.421875 0.09375,-0.359375 0.296875,-1.15625 0.359375,-1.421875 0.0625,0.09375 0.296875,0.421875 0.765625,0.421875 0.90625,0 1.84375,-0.9375 1.84375,-1.953125 0,-0.75 -0.484375,-1.1875 -1.109375,-1.1875 -0.671875,0 -1.515625,0.609375 -1.765625,1.59375 z m 1.6875,-1.25 c -0.515625,0 -0.671875,-0.515625 -0.671875,-0.609375 0,-0.015625 0.046875,-0.171875 0.0625,-0.25 C 1.671875,-1.84375 1.703125,-2 1.90625,-2.3125 c 0.25,-0.359375 0.609375,-0.5625 0.875,-0.5625 0.296875,0 0.5625,0.203125 0.5625,0.703125 0,0.3125 -0.1875,1.09375 -0.390625,1.4375 C 2.625,-0.234375 2.28125,-0.125 2.0625,-0.125 Z m 0,0"
           id="path3394" />
      </symbol>
    </g>
    <g
       id="g4086">
      <symbol
         overflow="visible"
         id="symbol5443">
        <path
           style="stroke:none"
           d=""
           id="path7826" />
      </symbol>
      <symbol
         overflow="visible"
         id="symbol5568">
        <path
           style="stroke:none"
           d="m 1.328125,-0.828125 c 0.53125,-0.578125 0.828125,-0.828125 1.1875,-1.140625 0,0 0.609375,-0.53125 0.96875,-0.890625 C 4.4375,-3.78125 4.65625,-4.265625 4.65625,-4.3125 c 0,-0.09375 -0.09375,-0.09375 -0.109375,-0.09375 -0.078125,0 -0.09375,0.015625 -0.15625,0.109375 -0.296875,0.484375 -0.5,0.640625 -0.734375,0.640625 -0.25,0 -0.359375,-0.15625 -0.515625,-0.328125 -0.1875,-0.21875 -0.359375,-0.421875 -0.6875,-0.421875 -0.75,0 -1.203125,0.921875 -1.203125,1.140625 0,0.046875 0.03125,0.109375 0.109375,0.109375 0.09375,0 0.109375,-0.046875 0.140625,-0.109375 0.1875,-0.46875 0.765625,-0.46875 0.84375,-0.46875 0.203125,0 0.390625,0.0625 0.625,0.140625 0.40625,0.15625 0.515625,0.15625 0.765625,0.15625 -0.359375,0.421875 -1.1875,1.140625 -1.375,1.296875 l -0.90625,0.84375 C 0.78125,-0.625 0.421875,-0.0625 0.421875,0.015625 c 0,0.09375 0.109375,0.09375 0.125,0.09375 0.078125,0 0.09375,-0.015625 0.15625,-0.125 0.234375,-0.359375 0.53125,-0.625 0.859375,-0.625 0.21875,0 0.328125,0.09375 0.578125,0.375 0.15625,0.21875 0.34375,0.375 0.625,0.375 1,0 1.578125,-1.265625 1.578125,-1.53125 0,-0.046875 -0.046875,-0.109375 -0.125,-0.109375 -0.09375,0 -0.109375,0.0625 -0.140625,0.140625 C 3.84375,-0.75 3.203125,-0.5625 2.875,-0.5625 c -0.1875,0 -0.375,-0.0625 -0.578125,-0.125 -0.34375,-0.125 -0.5,-0.171875 -0.703125,-0.171875 -0.015625,0 -0.171875,0 -0.265625,0.03125 z m 0,0"
           id="path9473" />
      </symbol>
      <symbol
         overflow="visible"
         id="symbol5849">
        <path
           style="stroke:none"
           d="m 4.359375,-6.671875 c 0,-0.03125 0.03125,-0.140625 0.03125,-0.140625 0,-0.015625 0,-0.109375 -0.125,-0.109375 -0.09375,0 -0.109375,0.03125 -0.15625,0.203125 L 3.53125,-4.421875 c -1.578125,0.0625 -3.046875,1.375 -3.046875,2.734375 0,0.953125 0.703125,1.734375 1.921875,1.8125 C 2.328125,0.421875 2.25,0.75 2.171875,1.0625 c -0.125,0.46875 -0.21875,0.84375 -0.21875,0.875 0,0.09375 0.078125,0.109375 0.125,0.109375 C 2.125,2.046875 2.140625,2.03125 2.171875,2 2.1875,1.984375 2.25,1.75 2.28125,1.609375 L 2.65625,0.125 c 1.609375,-0.0625 3.0625,-1.40625 3.0625,-2.734375 0,-0.796875 -0.53125,-1.703125 -1.921875,-1.8125 z m -1.90625,6.578125 c -0.59375,-0.03125 -1.3125,-0.390625 -1.3125,-1.375 0,-1.203125 0.859375,-2.59375 2.34375,-2.734375 z m 1.28125,-4.109375 c 0.765625,0.046875 1.328125,0.5 1.328125,1.375 0,1.1875 -0.859375,2.609375 -2.34375,2.734375 z m 0,0"
           id="path6815" />
      </symbol>
      <symbol
         overflow="visible"
         id="symbol4052">
        <path
           style="stroke:none"
           d="M 3.328125,-3.015625 C 3.390625,-3.265625 3.625,-4.1875 4.3125,-4.1875 c 0.046875,0 0.296875,0 0.5,0.125 C 4.53125,-4 4.34375,-3.765625 4.34375,-3.515625 c 0,0.15625 0.109375,0.34375 0.375,0.34375 0.21875,0 0.53125,-0.171875 0.53125,-0.578125 0,-0.515625 -0.578125,-0.65625 -0.921875,-0.65625 -0.578125,0 -0.921875,0.53125 -1.046875,0.75 -0.25,-0.65625 -0.78125,-0.75 -1.078125,-0.75 -1.03125,0 -1.609375,1.28125 -1.609375,1.53125 0,0.109375 0.109375,0.109375 0.125,0.109375 0.078125,0 0.109375,-0.03125 0.125,-0.109375 0.34375,-1.0625 1,-1.3125 1.34375,-1.3125 0.1875,0 0.53125,0.09375 0.53125,0.671875 0,0.3125 -0.171875,0.96875 -0.53125,2.375 -0.15625,0.609375 -0.515625,1.03125 -0.953125,1.03125 -0.0625,0 -0.28125,0 -0.5,-0.125 0.25,-0.0625 0.46875,-0.265625 0.46875,-0.546875 0,-0.265625 -0.21875,-0.34375 -0.359375,-0.34375 -0.3125,0 -0.546875,0.25 -0.546875,0.578125 0,0.453125 0.484375,0.65625 0.921875,0.65625 0.671875,0 1.03125,-0.703125 1.046875,-0.75 0.125,0.359375 0.484375,0.75 1.078125,0.75 1.03125,0 1.59375,-1.28125 1.59375,-1.53125 0,-0.109375 -0.078125,-0.109375 -0.109375,-0.109375 -0.09375,0 -0.109375,0.046875 -0.140625,0.109375 -0.328125,1.078125 -1,1.3125 -1.3125,1.3125 -0.390625,0 -0.546875,-0.3125 -0.546875,-0.65625 0,-0.21875 0.046875,-0.4375 0.15625,-0.875 z m 0,0"
           id="path6308" />
      </symbol>
      <symbol
         overflow="visible"
         id="symbol1710">
        <path
           style="stroke:none"
           d="m 9.140625,-5.65625 c 0.25,-0.4375 0.484375,-0.796875 1.125,-0.84375 0.07813,-0.015625 0.1875,-0.015625 0.1875,-0.203125 0,-0.03125 -0.04687,-0.109375 -0.125,-0.109375 -0.234375,0 -0.515625,0.03125 -0.765625,0.03125 -0.34375,0 -0.703125,-0.03125 -1.046875,-0.03125 -0.046875,0 -0.1875,0 -0.1875,0.1875 0,0.109375 0.09375,0.125 0.15625,0.125 0.234375,0.015625 0.59375,0.09375 0.59375,0.390625 0,0.109375 -0.0625,0.1875 -0.140625,0.328125 L 6.25,-1.09375 5.875,-6.03125 c 0,-0.203125 -0.015625,-0.453125 0.703125,-0.46875 0.171875,0 0.265625,0 0.265625,-0.203125 0,-0.09375 -0.109375,-0.109375 -0.140625,-0.109375 -0.40625,0 -0.828125,0.03125 -1.21875,0.03125 -0.234375,0 -0.8125,-0.03125 -1.046875,-0.03125 -0.0625,0 -0.1875,0 -0.1875,0.203125 C 4.25,-6.5 4.34375,-6.5 4.484375,-6.5 4.921875,-6.5 5,-6.4375 5.015625,-6.25 l 0.0625,0.765625 -2.53125,4.390625 -0.375,-5.046875 c 0,-0.125 0,-0.34375 0.765625,-0.359375 0.09375,0 0.203125,0 0.203125,-0.203125 C 3.140625,-6.8125 3.015625,-6.8125 3,-6.8125 c -0.390625,0 -0.8125,0.03125 -1.21875,0.03125 -0.359375,0 -0.71875,-0.03125 -1.046875,-0.03125 -0.0625,0 -0.1875,0 -0.1875,0.1875 0,0.125 0.09375,0.125 0.25,0.125 0.5,0 0.515625,0.09375 0.53125,0.375 l 0.453125,6.078125 c 0,0.1875 0.015625,0.265625 0.15625,0.265625 0.109375,0 0.140625,-0.0625 0.234375,-0.203125 l 2.9375,-5.09375 0.359375,5.03125 C 5.5,0.171875 5.515625,0.21875 5.625,0.21875 c 0.140625,0 0.203125,-0.09375 0.25,-0.1875 z m 0,0"
           id="path2718" />
      </symbol>
      <symbol
         overflow="visible"
         id="symbol3118">
        <path
           style="stroke:none"
           d="m 2.375,-6.8125 c 0,0 0,-0.109375 -0.125,-0.109375 -0.21875,0 -0.953125,0.078125 -1.21875,0.109375 -0.078125,0 -0.1875,0.015625 -0.1875,0.1875 0,0.125 0.09375,0.125 0.25,0.125 0.46875,0 0.484375,0.0625 0.484375,0.171875 0,0.0625 -0.078125,0.40625 -0.125,0.609375 l -0.828125,3.25 c -0.109375,0.5 -0.15625,0.671875 -0.15625,1.015625 0,0.9375 0.53125,1.5625 1.265625,1.5625 1.171875,0 2.40625,-1.484375 2.40625,-2.921875 0,-0.90625 -0.53125,-1.59375 -1.328125,-1.59375 -0.453125,0 -0.875,0.296875 -1.171875,0.59375 z M 1.453125,-3.046875 C 1.5,-3.265625 1.5,-3.28125 1.59375,-3.390625 2.078125,-4.03125 2.53125,-4.1875 2.796875,-4.1875 c 0.359375,0 0.625,0.296875 0.625,0.9375 0,0.59375 -0.328125,1.734375 -0.515625,2.109375 -0.328125,0.671875 -0.78125,1.03125 -1.171875,1.03125 -0.34375,0 -0.671875,-0.265625 -0.671875,-1 0,-0.203125 0,-0.390625 0.15625,-1.015625 z m 0,0"
           id="path2348" />
      </symbol>
      <symbol
         overflow="visible"
         id="symbol3675">
        <path
           style="stroke:none"
           d=""
           id="path4539" />
      </symbol>
      <symbol
         overflow="visible"
         id="symbol8573">
        <path
           style="stroke:none"
           d="m 1.90625,-3.765625 c 0,-0.296875 -0.234375,-0.53125 -0.515625,-0.53125 -0.296875,0 -0.53125,0.234375 -0.53125,0.53125 0,0.28125 0.234375,0.53125 0.53125,0.53125 0.28125,0 0.515625,-0.25 0.515625,-0.53125 z m 0,3.234375 c 0,-0.28125 -0.234375,-0.53125 -0.515625,-0.53125 -0.296875,0 -0.53125,0.25 -0.53125,0.53125 C 0.859375,-0.234375 1.09375,0 1.390625,0 1.671875,0 1.90625,-0.234375 1.90625,-0.53125 Z m 0,0"
           id="path262" />
      </symbol>
      <symbol
         overflow="visible"
         id="symbol9818">
        <path
           style="stroke:none"
           d="m 6.84375,-3.265625 c 0.15625,0 0.34375,0 0.34375,-0.1875 C 7.1875,-3.65625 7,-3.65625 6.859375,-3.65625 h -5.96875 c -0.140625,0 -0.328125,0 -0.328125,0.203125 0,0.1875 0.1875,0.1875 0.328125,0.1875 z m 0.015625,1.9375 c 0.140625,0 0.328125,0 0.328125,-0.203125 0,-0.1875 -0.1875,-0.1875 -0.34375,-0.1875 H 0.890625 c -0.140625,0 -0.328125,0 -0.328125,0.1875 0,0.203125 0.1875,0.203125 0.328125,0.203125 z m 0,0"
           id="path5777" />
      </symbol>
      <symbol
         overflow="visible"
         id="symbol3131">
        <path
           style="stroke:none"
           d="m 3.296875,2.390625 c 0,-0.03125 0,-0.046875 -0.171875,-0.21875 C 1.890625,0.921875 1.5625,-0.96875 1.5625,-2.5 c 0,-1.734375 0.375,-3.46875 1.609375,-4.703125 0.125,-0.125 0.125,-0.140625 0.125,-0.171875 0,-0.078125 -0.03125,-0.109375 -0.09375,-0.109375 -0.109375,0 -1,0.6875 -1.59375,1.953125 -0.5,1.09375 -0.625,2.203125 -0.625,3.03125 0,0.78125 0.109375,1.984375 0.65625,3.125 C 2.25,1.84375 3.09375,2.5 3.203125,2.5 c 0.0625,0 0.09375,-0.03125 0.09375,-0.109375 z m 0,0"
           id="path6592" />
      </symbol>
      <symbol
         overflow="visible"
         id="symbol1103">
        <path
           style="stroke:none"
           d="m 2.875,-2.5 c 0,-0.765625 -0.109375,-1.96875 -0.65625,-3.109375 -0.59375,-1.21875 -1.453125,-1.875 -1.546875,-1.875 -0.0625,0 -0.109375,0.046875 -0.109375,0.109375 0,0.03125 0,0.046875 0.1875,0.234375 0.984375,0.984375 1.546875,2.5625 1.546875,4.640625 0,1.71875 -0.359375,3.46875 -1.59375,4.71875 C 0.5625,2.34375 0.5625,2.359375 0.5625,2.390625 0.5625,2.453125 0.609375,2.5 0.671875,2.5 0.765625,2.5 1.671875,1.8125 2.25,0.546875 2.765625,-0.546875 2.875,-1.65625 2.875,-2.5 Z m 0,0"
           id="path1934" />
      </symbol>
      <symbol
         overflow="visible"
         id="symbol730">
        <path
           style="stroke:none"
           d="m 1.171875,-2.171875 c 0,-1.625 0.8125,-2.046875 1.34375,-2.046875 0.09375,0 0.71875,0.015625 1.0625,0.375 -0.40625,0.03125 -0.46875,0.328125 -0.46875,0.453125 0,0.265625 0.1875,0.453125 0.453125,0.453125 0.265625,0 0.46875,-0.15625 0.46875,-0.46875 0,-0.671875 -0.765625,-1.0625 -1.53125,-1.0625 -1.25,0 -2.15625,1.078125 -2.15625,2.3125 0,1.28125 0.984375,2.265625 2.140625,2.265625 1.328125,0 1.65625,-1.203125 1.65625,-1.296875 0,-0.09375 -0.109375,-0.09375 -0.140625,-0.09375 -0.078125,0 -0.109375,0.03125 -0.125,0.09375 -0.28125,0.921875 -0.9375,1.046875 -1.296875,1.046875 -0.53125,0 -1.40625,-0.421875 -1.40625,-2.03125 z m 0,0"
           id="path9164" />
      </symbol>
      <symbol
         overflow="visible"
         id="symbol8650">
        <path
           style="stroke:none"
           d="M 4.6875,-2.140625 C 4.6875,-3.40625 3.703125,-4.46875 2.5,-4.46875 c -1.25,0 -2.21875,1.09375 -2.21875,2.328125 0,1.296875 1.03125,2.25 2.203125,2.25 1.203125,0 2.203125,-0.984375 2.203125,-2.25 z m -2.1875,2 c -0.4375,0 -0.875,-0.203125 -1.140625,-0.671875 -0.25,-0.4375 -0.25,-1.046875 -0.25,-1.40625 0,-0.390625 0,-0.921875 0.234375,-1.359375 C 1.609375,-4.03125 2.078125,-4.25 2.484375,-4.25 c 0.4375,0 0.859375,0.21875 1.125,0.65625 0.265625,0.421875 0.265625,1 0.265625,1.375 0,0.359375 0,0.90625 -0.21875,1.34375 C 3.421875,-0.421875 2.984375,-0.140625 2.5,-0.140625 Z m 0,0"
           id="path5809" />
      </symbol>
      <symbol
         overflow="visible"
         id="symbol9227">
        <path
           style="stroke:none"
           d="m 2.078125,-1.9375 c 0.21875,0.046875 1.03125,0.203125 1.03125,0.921875 0,0.5 -0.34375,0.90625 -1.125,0.90625 -0.84375,0 -1.203125,-0.5625 -1.390625,-1.421875 C 0.5625,-1.65625 0.5625,-1.6875 0.453125,-1.6875 c -0.125,0 -0.125,0.0625 -0.125,0.234375 V -0.125 c 0,0.171875 0,0.234375 0.109375,0.234375 0.046875,0 0.0625,-0.015625 0.25,-0.203125 0.015625,-0.015625 0.015625,-0.03125 0.203125,-0.21875 0.4375,0.40625 0.890625,0.421875 1.09375,0.421875 1.140625,0 1.609375,-0.671875 1.609375,-1.390625 0,-0.515625 -0.296875,-0.828125 -0.421875,-0.9375 C 2.84375,-2.546875 2.453125,-2.625 2.03125,-2.703125 1.46875,-2.8125 0.8125,-2.9375 0.8125,-3.515625 c 0,-0.359375 0.25,-0.765625 1.109375,-0.765625 1.09375,0 1.15625,0.90625 1.171875,1.203125 0,0.09375 0.09375,0.09375 0.109375,0.09375 0.140625,0 0.140625,-0.046875 0.140625,-0.234375 v -1.015625 c 0,-0.15625 0,-0.234375 -0.109375,-0.234375 -0.046875,0 -0.078125,0 -0.203125,0.125 -0.03125,0.03125 -0.125,0.125 -0.171875,0.15625 -0.375,-0.28125 -0.78125,-0.28125 -0.9375,-0.28125 -1.21875,0 -1.59375,0.671875 -1.59375,1.234375 0,0.34375 0.15625,0.625 0.421875,0.84375 0.328125,0.25 0.609375,0.3125 1.328125,0.453125 z m 0,0"
           id="path6014" />
      </symbol>
      <symbol
         overflow="visible"
         id="symbol8983">
        <path
           style="stroke:none"
           d="m 4.078125,-2.296875 h 2.78125 C 7,-2.296875 7.1875,-2.296875 7.1875,-2.5 7.1875,-2.6875 7,-2.6875 6.859375,-2.6875 h -2.78125 v -2.796875 c 0,-0.140625 0,-0.328125 -0.203125,-0.328125 -0.203125,0 -0.203125,0.1875 -0.203125,0.328125 V -2.6875 h -2.78125 c -0.140625,0 -0.328125,0 -0.328125,0.1875 0,0.203125 0.1875,0.203125 0.328125,0.203125 h 2.78125 V 0.5 c 0,0.140625 0,0.328125 0.203125,0.328125 0.203125,0 0.203125,-0.1875 0.203125,-0.328125 z m 0,0"
           id="path5343" />
      </symbol>
      <symbol
         overflow="visible"
         id="symbol1024">
        <path
           style="stroke:none"
           d=""
           id="path6186" />
      </symbol>
      <symbol
         overflow="visible"
         id="symbol9927">
        <path
           style="stroke:none"
           d="m 1.390625,-1.59375 c 0,-0.578125 0.265625,-1.28125 0.9375,-1.28125 -0.0625,0.046875 -0.125,0.140625 -0.125,0.25 0,0.234375 0.1875,0.3125 0.3125,0.3125 0.171875,0 0.328125,-0.109375 0.328125,-0.3125 0,-0.234375 -0.234375,-0.453125 -0.5625,-0.453125 -0.34375,0 -0.734375,0.21875 -0.9375,0.75 v -0.75 L 0.34375,-3 v 0.25 c 0.46875,0 0.515625,0.046875 0.515625,0.390625 v 1.8125 C 0.859375,-0.25 0.796875,-0.25 0.34375,-0.25 V 0 c 0.03125,0 0.5,-0.03125 0.796875,-0.03125 0.296875,0 0.59375,0.015625 0.90625,0.03125 V -0.25 H 1.90625 c -0.515625,0 -0.515625,-0.078125 -0.515625,-0.3125 z m 0,0"
           id="path7320" />
      </symbol>
      <symbol
         overflow="visible"
         id="symbol2174">
        <path
           style="stroke:none"
           d="m 3.640625,-2.75 h 0.875 V -3 h -0.90625 v -0.78125 c 0,-0.625 0.375,-0.921875 0.6875,-0.921875 0.0625,0 0.125,0 0.203125,0.03125 -0.109375,0.046875 -0.15625,0.15625 -0.15625,0.28125 0,0.1875 0.125,0.3125 0.3125,0.3125 0.1875,0 0.328125,-0.125 0.328125,-0.3125 0,-0.3125 -0.296875,-0.515625 -0.6875,-0.515625 -0.25,0 -0.546875,0.078125 -0.8125,0.296875 -0.21875,-0.25 -0.640625,-0.296875 -0.90625,-0.296875 -0.765625,0 -1.71875,0.34375 -1.71875,1.140625 V -3 h -0.59375 v 0.25 h 0.59375 v 2.203125 C 0.859375,-0.25 0.796875,-0.25 0.34375,-0.25 V 0 c 0.015625,0 0.5,-0.03125 0.78125,-0.03125 0.265625,0 0.515625,0.015625 0.78125,0.03125 v -0.25 c -0.453125,0 -0.515625,0 -0.515625,-0.296875 V -2.75 h 1.71875 v 2.203125 C 3.109375,-0.25 3.046875,-0.25 2.59375,-0.25 V 0 C 2.625,0 3.09375,-0.03125 3.390625,-0.03125 3.6875,-0.03125 4,-0.015625 4.296875,0 V -0.25 H 4.15625 c -0.515625,0 -0.515625,-0.078125 -0.515625,-0.3125 z M 1.359375,-3 v -0.765625 c 0,-0.671875 0.6875,-0.9375 1.203125,-0.9375 0.0625,0 0.359375,0 0.59375,0.109375 -0.078125,0.015625 -0.203125,0.109375 -0.203125,0.296875 0,0.09375 0.03125,0.21875 0.171875,0.28125 C 3.109375,-3.9375 3.109375,-3.859375 3.109375,-3.78125 V -3 Z m 0,0"
           id="path8182" />
      </symbol>
    </g>
    <g
       id="g7200">
      <symbol
         overflow="visible"
         id="symbol5347">
        <path
           style="stroke:none"
           d=""
           id="path4255" />
      </symbol>
      <symbol
         overflow="visible"
         id="symbol3414">
        <path
           style="stroke:none"
           d="m 1.328125,-0.828125 c 0.53125,-0.578125 0.828125,-0.828125 1.1875,-1.140625 0,0 0.609375,-0.53125 0.96875,-0.890625 C 4.4375,-3.78125 4.65625,-4.265625 4.65625,-4.3125 c 0,-0.09375 -0.09375,-0.09375 -0.109375,-0.09375 -0.078125,0 -0.09375,0.015625 -0.15625,0.109375 -0.296875,0.484375 -0.5,0.640625 -0.734375,0.640625 -0.25,0 -0.359375,-0.15625 -0.515625,-0.328125 -0.1875,-0.21875 -0.359375,-0.421875 -0.6875,-0.421875 -0.75,0 -1.203125,0.921875 -1.203125,1.140625 0,0.046875 0.03125,0.109375 0.109375,0.109375 0.09375,0 0.109375,-0.046875 0.140625,-0.109375 0.1875,-0.46875 0.765625,-0.46875 0.84375,-0.46875 0.203125,0 0.390625,0.0625 0.625,0.140625 0.40625,0.15625 0.515625,0.15625 0.765625,0.15625 -0.359375,0.421875 -1.1875,1.140625 -1.375,1.296875 l -0.90625,0.84375 C 0.78125,-0.625 0.421875,-0.0625 0.421875,0.015625 c 0,0.09375 0.109375,0.09375 0.125,0.09375 0.078125,0 0.09375,-0.015625 0.15625,-0.125 0.234375,-0.359375 0.53125,-0.625 0.859375,-0.625 0.21875,0 0.328125,0.09375 0.578125,0.375 0.15625,0.21875 0.34375,0.375 0.625,0.375 1,0 1.578125,-1.265625 1.578125,-1.53125 0,-0.046875 -0.046875,-0.109375 -0.125,-0.109375 -0.09375,0 -0.109375,0.0625 -0.140625,0.140625 C 3.84375,-0.75 3.203125,-0.5625 2.875,-0.5625 c -0.1875,0 -0.375,-0.0625 -0.578125,-0.125 -0.34375,-0.125 -0.5,-0.171875 -0.703125,-0.171875 -0.015625,0 -0.171875,0 -0.265625,0.03125 z m 0,0"
           id="path4813" />
      </symbol>
      <symbol
         overflow="visible"
         id="symbol621">
        <path
           style="stroke:none"
           d=""
           id="path2130" />
      </symbol>
      <symbol
         overflow="visible"
         id="symbol770">
        <path
           style="stroke:none"
           d="m 2.015625,-3.296875 c 0.0625,-0.109375 0.0625,-0.171875 0.0625,-0.21875 0,-0.21875 -0.1875,-0.375 -0.40625,-0.375 -0.265625,0 -0.34375,0.21875 -0.375,0.328125 L 0.375,-0.546875 c -0.015625,0.015625 -0.046875,0.09375 -0.046875,0.109375 0,0.078125 0.21875,0.15625 0.28125,0.15625 0.046875,0 0.046875,-0.015625 0.09375,-0.125 z m 0,0"
           id="path5703" />
      </symbol>
      <symbol
         overflow="visible"
         id="symbol4859">
        <path
           style="stroke:none"
           d="m 1.4375,-4.96875 c 0,-0.09375 0,-0.25 -0.171875,-0.25 -0.171875,0 -0.171875,0.171875 -0.171875,0.296875 V 1.4375 c 0,0.125 0,0.296875 0.171875,0.296875 0.171875,0 0.171875,-0.15625 0.171875,-0.265625 z m 1.53125,0.046875 c 0,-0.125 0,-0.296875 -0.171875,-0.296875 -0.15625,0 -0.15625,0.15625 -0.15625,0.25 v 6.4375 c 0,0.109375 0,0.265625 0.15625,0.265625 0.171875,0 0.171875,-0.171875 0.171875,-0.296875 z m 0,0"
           id="path940" />
      </symbol>
      <symbol
         overflow="visible"
         id="symbol609">
        <path
           style="stroke:none"
           d=""
           id="path666" />
      </symbol>
      <symbol
         overflow="visible"
         id="symbol7882">
        <path
           style="stroke:none"
           d="m 1.90625,-3.765625 c 0,-0.296875 -0.234375,-0.53125 -0.515625,-0.53125 -0.296875,0 -0.53125,0.234375 -0.53125,0.53125 0,0.28125 0.234375,0.53125 0.53125,0.53125 0.28125,0 0.515625,-0.25 0.515625,-0.53125 z m 0,3.234375 c 0,-0.28125 -0.234375,-0.53125 -0.515625,-0.53125 -0.296875,0 -0.53125,0.25 -0.53125,0.53125 C 0.859375,-0.234375 1.09375,0 1.390625,0 1.671875,0 1.90625,-0.234375 1.90625,-0.53125 Z m 0,0"
           id="path12918" />
      </symbol>
      <symbol
         overflow="visible"
         id="symbol5368">
        <path
           style="stroke:none"
           d="m 6.84375,-3.265625 c 0.15625,0 0.34375,0 0.34375,-0.1875 C 7.1875,-3.65625 7,-3.65625 6.859375,-3.65625 h -5.96875 c -0.140625,0 -0.328125,0 -0.328125,0.203125 0,0.1875 0.1875,0.1875 0.328125,0.1875 z m 0.015625,1.9375 c 0.140625,0 0.328125,0 0.328125,-0.203125 0,-0.1875 -0.1875,-0.1875 -0.34375,-0.1875 H 0.890625 c -0.140625,0 -0.328125,0 -0.328125,0.1875 0,0.203125 0.1875,0.203125 0.328125,0.203125 z m 0,0"
           id="path4051" />
      </symbol>
      <symbol
         overflow="visible"
         id="symbol4752">
        <path
           style="stroke:none"
           d=""
           id="path1922" />
      </symbol>
      <symbol
         overflow="visible"
         id="symbol1712">
        <path
           style="stroke:none"
           d="m 1.171875,-0.609375 c 0.1875,-0.1875 0.3125,-0.3125 0.890625,-0.796875 0.15625,-0.109375 0.671875,-0.53125 0.875,-0.71875 0.421875,-0.421875 0.6875,-0.78125 0.6875,-0.859375 0,-0.09375 -0.078125,-0.09375 -0.109375,-0.09375 -0.0625,0 -0.09375,0.015625 -0.125,0.078125 -0.21875,0.3125 -0.359375,0.421875 -0.53125,0.421875 -0.078125,0 -0.1875,0 -0.390625,-0.203125 -0.234375,-0.25 -0.390625,-0.296875 -0.546875,-0.296875 -0.5625,0 -0.9375,0.609375 -0.9375,0.8125 0,0.078125 0.0625,0.09375 0.109375,0.09375 0.09375,0 0.109375,-0.015625 0.125,-0.09375 0.109375,-0.25 0.5,-0.265625 0.609375,-0.265625 0.171875,0 0.34375,0.046875 0.4375,0.0625 0.390625,0.078125 0.4375,0.078125 0.609375,0.078125 -0.171875,0.203125 -0.296875,0.328125 -0.96875,0.84375 -0.546875,0.4375 -0.734375,0.609375 -0.859375,0.75 -0.421875,0.40625 -0.625,0.71875 -0.625,0.78125 0,0.078125 0.09375,0.078125 0.125,0.078125 0.0625,0 0.078125,0 0.109375,-0.0625 0.1875,-0.265625 0.40625,-0.421875 0.640625,-0.421875 0.09375,0 0.1875,0 0.375,0.171875 0.21875,0.21875 0.359375,0.3125 0.59375,0.3125 C 3,0.0625 3.46875,-0.78125 3.46875,-1.015625 3.46875,-1.09375 3.390625,-1.09375 3.359375,-1.09375 3.265625,-1.09375 3.25,-1.0625 3.21875,-0.984375 3.09375,-0.640625 2.6875,-0.46875 2.34375,-0.46875 2.1875,-0.46875 2,-0.515625 1.828125,-0.546875 1.515625,-0.625 1.453125,-0.625 1.328125,-0.625 c -0.015625,0 -0.109375,0 -0.15625,0.015625 z m 0,0"
           id="path5013" />
      </symbol>
    </g>
    <g
       id="g9018">
      <symbol
         overflow="visible"
         id="symbol7785">
        <path
           style="stroke:none"
           d=""
           id="path6641" />
      </symbol>
      <symbol
         overflow="visible"
         id="symbol6936">
        <path
           style="stroke:none"
           d="M 4.140625,-6.515625 3.984375,-6.65625 c 0,0 -0.375,0.46875 -0.8125,0.46875 -0.234375,0 -0.484375,-0.140625 -0.65625,-0.25 C 2.25,-6.59375 2.078125,-6.65625 1.90625,-6.65625 c -0.375,0 -0.578125,0.21875 -1.078125,0.78125 l 0.15625,0.140625 c 0,0 0.375,-0.46875 0.8125,-0.46875 0.234375,0 0.484375,0.140625 0.65625,0.234375 0.265625,0.171875 0.453125,0.234375 0.625,0.234375 0.375,0 0.5625,-0.21875 1.0625,-0.78125 z m 0,0"
           id="path1528" />
      </symbol>
      <symbol
         overflow="visible"
         id="symbol5690">
        <path
           style="stroke:none"
           d="m 1.90625,-3.765625 c 0,-0.296875 -0.234375,-0.53125 -0.515625,-0.53125 -0.296875,0 -0.53125,0.234375 -0.53125,0.53125 0,0.28125 0.234375,0.53125 0.53125,0.53125 0.28125,0 0.515625,-0.25 0.515625,-0.53125 z m 0,3.234375 c 0,-0.28125 -0.234375,-0.53125 -0.515625,-0.53125 -0.296875,0 -0.53125,0.25 -0.53125,0.53125 C 0.859375,-0.234375 1.09375,0 1.390625,0 1.671875,0 1.90625,-0.234375 1.90625,-0.53125 Z m 0,0"
           id="path9248" />
      </symbol>
      <symbol
         overflow="visible"
         id="symbol4399">
        <path
           style="stroke:none"
           d="m 6.84375,-3.265625 c 0.15625,0 0.34375,0 0.34375,-0.1875 C 7.1875,-3.65625 7,-3.65625 6.859375,-3.65625 h -5.96875 c -0.140625,0 -0.328125,0 -0.328125,0.203125 0,0.1875 0.1875,0.1875 0.328125,0.1875 z m 0.015625,1.9375 c 0.140625,0 0.328125,0 0.328125,-0.203125 0,-0.1875 -0.1875,-0.1875 -0.34375,-0.1875 H 0.890625 c -0.140625,0 -0.328125,0 -0.328125,0.1875 0,0.203125 0.1875,0.203125 0.328125,0.203125 z m 0,0"
           id="path2298" />
      </symbol>
      <symbol
         overflow="visible"
         id="symbol2363">
        <path
           style="stroke:none"
           d="M 3.6875,-6.921875 C 3.625,-7.125 3.5625,-7.140625 3.453125,-7.140625 c -0.15625,0 -0.171875,0.046875 -0.21875,0.21875 L 1.3125,-1 c -0.09375,0.296875 -0.296875,0.6875 -1,0.6875 V 0 c 0.328125,-0.015625 0.84375,-0.03125 0.9375,-0.03125 0.28125,0 0.8125,0.015625 1.125,0.03125 v -0.3125 c -0.546875,0 -0.765625,-0.28125 -0.765625,-0.515625 0,-0.046875 0,-0.078125 0.046875,-0.21875 l 1.5,-4.640625 1.5625,4.90625 c 0.0625,0.140625 0.0625,0.15625 0.0625,0.171875 0,0.296875 -0.59375,0.296875 -0.859375,0.296875 V 0 c 0.359375,-0.03125 1.0625,-0.03125 1.4375,-0.03125 0.390625,0 0.84375,0.015625 1.234375,0.03125 v -0.3125 c -0.765625,0 -0.796875,-0.0625 -0.90625,-0.421875 z m 0,0"
           id="path1171" />
      </symbol>
      <symbol
         overflow="visible"
         id="symbol6942">
        <path
           style="stroke:none"
           d=""
           id="path1944" />
      </symbol>
      <symbol
         overflow="visible"
         id="symbol2136">
        <path
           style="stroke:none"
           d="m 4.84375,-3.796875 c 0.046875,-0.140625 0.046875,-0.15625 0.046875,-0.234375 0,-0.171875 -0.140625,-0.265625 -0.296875,-0.265625 -0.09375,0 -0.25,0.0625 -0.34375,0.203125 -0.015625,0.0625 -0.109375,0.359375 -0.140625,0.546875 -0.078125,0.25 -0.140625,0.53125 -0.203125,0.796875 l -0.453125,1.796875 c -0.03125,0.140625 -0.46875,0.84375 -1.125,0.84375 -0.5,0 -0.609375,-0.4375 -0.609375,-0.8125 C 1.71875,-1.375 1.890625,-2 2.21875,-2.875 2.375,-3.28125 2.421875,-3.390625 2.421875,-3.59375 c 0,-0.4375 -0.3125,-0.8125 -0.8125,-0.8125 -0.953125,0 -1.3125,1.453125 -1.3125,1.53125 0,0.109375 0.09375,0.109375 0.109375,0.109375 0.109375,0 0.109375,-0.03125 0.15625,-0.1875 0.28125,-0.9375 0.671875,-1.234375 1.015625,-1.234375 0.078125,0 0.25,0 0.25,0.3125 0,0.25 -0.109375,0.515625 -0.171875,0.703125 -0.40625,1.0625 -0.578125,1.625 -0.578125,2.09375 0,0.890625 0.625,1.1875 1.21875,1.1875 0.390625,0 0.71875,-0.171875 1,-0.453125 -0.125,0.515625 -0.25,1.015625 -0.640625,1.546875 -0.265625,0.328125 -0.640625,0.625 -1.09375,0.625 -0.140625,0 -0.59375,-0.03125 -0.765625,-0.421875 0.15625,0 0.296875,0 0.421875,-0.125 C 1.328125,1.203125 1.421875,1.0625 1.421875,0.875 1.421875,0.5625 1.15625,0.53125 1.0625,0.53125 0.828125,0.53125 0.5,0.6875 0.5,1.171875 c 0,0.5 0.4375,0.875 1.0625,0.875 1.015625,0 2.046875,-0.90625 2.328125,-2.03125 z m 0,0"
           id="path8853" />
      </symbol>
      <symbol
         overflow="visible"
         id="symbol5272">
        <path
           style="stroke:none"
           d="M 6.265625,-5.671875 C 6.75,-6.453125 7.171875,-6.484375 7.53125,-6.5 c 0.125,-0.015625 0.140625,-0.171875 0.140625,-0.1875 0,-0.078125 -0.0625,-0.125 -0.140625,-0.125 -0.25,0 -0.546875,0.03125 -0.8125,0.03125 -0.328125,0 -0.671875,-0.03125 -0.984375,-0.03125 -0.0625,0 -0.1875,0 -0.1875,0.1875 0,0.109375 0.078125,0.125 0.15625,0.125 0.265625,0.015625 0.453125,0.125 0.453125,0.328125 0,0.15625 -0.140625,0.375 -0.140625,0.375 l -3.0625,4.875 -0.6875,-5.28125 C 2.265625,-6.375 2.5,-6.5 2.953125,-6.5 c 0.140625,0 0.25,0 0.25,-0.203125 0,-0.078125 -0.078125,-0.109375 -0.125,-0.109375 -0.40625,0 -0.828125,0.03125 -1.25,0.03125 -0.171875,0 -0.359375,0 -0.546875,0 -0.171875,0 -0.359375,-0.03125 -0.53125,-0.03125 -0.078125,0 -0.1875,0 -0.1875,0.1875 0,0.125 0.078125,0.125 0.25,0.125 0.546875,0 0.5625,0.09375 0.59375,0.34375 L 2.1875,-0.015625 C 2.21875,0.1875 2.265625,0.21875 2.390625,0.21875 c 0.15625,0 0.203125,-0.046875 0.28125,-0.171875 z m 0,0"
           id="path4237" />
      </symbol>
      <symbol
         overflow="visible"
         id="symbol918">
        <path
           style="stroke:none"
           d="m 1.328125,-0.828125 c 0.53125,-0.578125 0.828125,-0.828125 1.1875,-1.140625 0,0 0.609375,-0.53125 0.96875,-0.890625 C 4.4375,-3.78125 4.65625,-4.265625 4.65625,-4.3125 c 0,-0.09375 -0.09375,-0.09375 -0.109375,-0.09375 -0.078125,0 -0.09375,0.015625 -0.15625,0.109375 -0.296875,0.484375 -0.5,0.640625 -0.734375,0.640625 -0.25,0 -0.359375,-0.15625 -0.515625,-0.328125 -0.1875,-0.21875 -0.359375,-0.421875 -0.6875,-0.421875 -0.75,0 -1.203125,0.921875 -1.203125,1.140625 0,0.046875 0.03125,0.109375 0.109375,0.109375 0.09375,0 0.109375,-0.046875 0.140625,-0.109375 0.1875,-0.46875 0.765625,-0.46875 0.84375,-0.46875 0.203125,0 0.390625,0.0625 0.625,0.140625 0.40625,0.15625 0.515625,0.15625 0.765625,0.15625 -0.359375,0.421875 -1.1875,1.140625 -1.375,1.296875 l -0.90625,0.84375 C 0.78125,-0.625 0.421875,-0.0625 0.421875,0.015625 c 0,0.09375 0.109375,0.09375 0.125,0.09375 0.078125,0 0.09375,-0.015625 0.15625,-0.125 0.234375,-0.359375 0.53125,-0.625 0.859375,-0.625 0.21875,0 0.328125,0.09375 0.578125,0.375 0.15625,0.21875 0.34375,0.375 0.625,0.375 1,0 1.578125,-1.265625 1.578125,-1.53125 0,-0.046875 -0.046875,-0.109375 -0.125,-0.109375 -0.09375,0 -0.109375,0.0625 -0.140625,0.140625 C 3.84375,-0.75 3.203125,-0.5625 2.875,-0.5625 c -0.1875,0 -0.375,-0.0625 -0.578125,-0.125 -0.34375,-0.125 -0.5,-0.171875 -0.703125,-0.171875 -0.015625,0 -0.171875,0 -0.265625,0.03125 z m 0,0"
           id="path1359" />
      </symbol>
      <symbol
         overflow="visible"
         id="symbol5662">
        <path
           style="stroke:none"
           d=""
           id="path994" />
      </symbol>
      <symbol
         overflow="visible"
         id="symbol9333">
        <path
           style="stroke:none"
           d="m 2.328125,-4.4375 c 0,-0.1875 0,-0.1875 -0.203125,-0.1875 -0.453125,0.4375 -1.078125,0.4375 -1.359375,0.4375 v 0.25 c 0.15625,0 0.625,0 1,-0.1875 v 3.546875 c 0,0.234375 0,0.328125 -0.6875,0.328125 H 0.8125 V 0 c 0.125,0 0.984375,-0.03125 1.234375,-0.03125 0.21875,0 1.09375,0.03125 1.25,0.03125 V -0.25 H 3.03125 c -0.703125,0 -0.703125,-0.09375 -0.703125,-0.328125 z m 0,0"
           id="path5199" />
      </symbol>
      <symbol
         overflow="visible"
         id="symbol7829">
        <path
           style="stroke:none"
           d="M 3.515625,-1.265625 H 3.28125 c -0.015625,0.15625 -0.09375,0.5625 -0.1875,0.625 C 3.046875,-0.59375 2.515625,-0.59375 2.40625,-0.59375 H 1.125 c 0.734375,-0.640625 0.984375,-0.84375 1.390625,-1.171875 0.515625,-0.40625 1,-0.84375 1,-1.5 0,-0.84375 -0.734375,-1.359375 -1.625,-1.359375 -0.859375,0 -1.453125,0.609375 -1.453125,1.25 0,0.34375 0.296875,0.390625 0.375,0.390625 0.15625,0 0.359375,-0.125 0.359375,-0.375 0,-0.125 -0.046875,-0.375 -0.40625,-0.375 C 0.984375,-4.21875 1.453125,-4.375 1.78125,-4.375 c 0.703125,0 1.0625,0.546875 1.0625,1.109375 0,0.609375 -0.4375,1.078125 -0.65625,1.328125 L 0.515625,-0.265625 C 0.4375,-0.203125 0.4375,-0.1875 0.4375,0 h 2.875 z m 0,0"
           id="path8934" />
      </symbol>
      <symbol
         overflow="visible"
         id="symbol5934">
        <path
           style="stroke:none"
           d=""
           id="path8010" />
      </symbol>
      <symbol
         overflow="visible"
         id="symbol8821">
        <path
           style="stroke:none"
           d="m 7.109375,-4.1875 c 0.0625,-0.265625 0.078125,-0.328125 0.59375,-0.328125 0.15625,0 0.234375,0 0.234375,-0.140625 0,-0.109375 -0.078125,-0.109375 -0.203125,-0.109375 H 6.78125 c -0.203125,0 -0.203125,0.015625 -0.296875,0.140625 l -2.6875,3.984375 -0.6875,-3.9375 c -0.03125,-0.171875 -0.03125,-0.1875 -0.25,-0.1875 H 1.875 c -0.140625,0 -0.234375,0 -0.234375,0.15625 0,0.09375 0.078125,0.09375 0.234375,0.09375 0.109375,0 0.140625,0 0.265625,0.015625 0.140625,0.015625 0.15625,0.03125 0.15625,0.109375 0,0 0,0.046875 -0.03125,0.140625 l -0.875,3.5 c -0.0625,0.234375 -0.171875,0.484375 -0.734375,0.5 -0.046875,0 -0.140625,0 -0.140625,0.15625 0,0 0,0.09375 0.109375,0.09375 0.203125,0 0.5,-0.03125 0.71875,-0.03125 C 1.515625,-0.03125 1.921875,0 2.078125,0 2.125,0 2.21875,0 2.21875,-0.15625 2.21875,-0.25 2.125,-0.25 2.0625,-0.25 1.625,-0.265625 1.625,-0.453125 1.625,-0.546875 c 0,-0.03125 0,-0.0625 0.03125,-0.171875 l 0.921875,-3.703125 0.75,4.234375 C 3.359375,-0.0625 3.359375,0 3.46875,0 3.5625,0 3.625,-0.078125 3.671875,-0.15625 L 6.59375,-4.5 6.609375,-4.484375 5.625,-0.546875 C 5.5625,-0.3125 5.546875,-0.25 5.015625,-0.25 c -0.125,0 -0.21875,0 -0.21875,0.15625 0,0 0,0.09375 0.109375,0.09375 0.140625,0 0.296875,-0.015625 0.4375,-0.015625 0.140625,0 0.296875,-0.015625 0.4375,-0.015625 C 5.984375,-0.03125 6.46875,0 6.671875,0 6.703125,0 6.8125,0 6.8125,-0.15625 6.8125,-0.25 6.734375,-0.25 6.59375,-0.25 c -0.015625,0 -0.140625,0 -0.265625,-0.015625 -0.15625,-0.015625 -0.15625,-0.03125 -0.15625,-0.109375 0,-0.03125 0.015625,-0.109375 0.015625,-0.140625 z m 0,0"
           id="path6036" />
      </symbol>
      <symbol
         overflow="visible"
         id="symbol8574">
        <path
           style="stroke:none"
           d=""
           id="path2599" />
      </symbol>
      <symbol
         overflow="visible"
         id="symbol2473">
        <path
           style="stroke:none"
           d="M 2.71875,-0.71875 C 2.640625,-1.28125 2.3125,-2.203125 1.546875,-2.203125 c -0.3125,0 -0.59375,0.125 -0.8125,0.3125 C 0.4375,-1.640625 0.375,-1.359375 0.375,-1.3125 c 0,0.078125 0.0625,0.078125 0.09375,0.078125 0.078125,0 0.09375,-0.015625 0.109375,-0.09375 0.140625,-0.359375 0.640625,-0.4375 0.890625,-0.4375 0.875,0 1.046875,0.765625 1.046875,1.375 0,0.203125 0,0.21875 -0.03125,0.34375 C 2.375,0.296875 2.25,0.78125 2.25,0.9375 c 0,0.015625 0,0.140625 0.09375,0.140625 0.0625,0 0.125,-0.0625 0.171875,-0.25 0.0625,-0.1875 0.15625,-0.53125 0.203125,-0.890625 0.015625,-0.21875 0.34375,-0.953125 0.390625,-1.0625 0.0625,-0.109375 0.1875,-0.390625 0.453125,-0.859375 0.046875,-0.0625 0.046875,-0.078125 0.046875,-0.09375 0,-0.0625 -0.078125,-0.0625 -0.109375,-0.0625 -0.03125,0 -0.0625,0 -0.078125,0.015625 -0.03125,0.03125 -0.453125,0.75 -0.703125,1.40625 z m 0,0"
           id="path5974" />
      </symbol>
      <symbol
         overflow="visible"
         id="symbol9381">
        <path
           style="stroke:none"
           d=""
           id="path1870" />
      </symbol>
      <symbol
         overflow="visible"
         id="symbol9673">
        <path
           style="stroke:none"
           d="m 1.71875,-7.140625 c 0,-0.15625 0,-0.34375 -0.203125,-0.34375 -0.203125,0 -0.203125,0.234375 -0.203125,0.375 V 2.125 c 0,0.15625 0,0.375 0.203125,0.375 C 1.71875,2.5 1.71875,2.3125 1.71875,2.15625 Z m 1.9375,0.03125 c 0,-0.15625 0,-0.375 -0.203125,-0.375 -0.1875,0 -0.1875,0.1875 -0.1875,0.34375 V 2.15625 c 0,0.15625 0,0.34375 0.1875,0.34375 C 3.65625,2.5 3.65625,2.265625 3.65625,2.125 Z m 0,0"
           id="path98" />
      </symbol>
      <symbol
         overflow="visible"
         id="symbol4499">
        <path
           style="stroke:none"
           d=""
           id="path3075" />
      </symbol>
      <symbol
         overflow="visible"
         id="symbol9214">
        <path
           style="stroke:none"
           d="M 1.984375,-3.171875 C 1.984375,-3.3125 1.96875,-3.3125 1.796875,-3.3125 1.453125,-3 0.890625,-3 0.796875,-3 H 0.71875 v 0.21875 h 0.078125 c 0.109375,0 0.4375,-0.015625 0.734375,-0.140625 v 2.5 c 0,0.140625 0,0.203125 -0.53125,0.203125 H 0.75 V 0 c 0.265625,-0.015625 0.71875,-0.015625 1,-0.015625 0.296875,0 0.734375,0 1.015625,0.015625 v -0.21875 h -0.25 c -0.53125,0 -0.53125,-0.0625 -0.53125,-0.203125 z m 0,0"
           id="path3828" />
      </symbol>
      <symbol
         overflow="visible"
         id="symbol5405">
        <path
           style="stroke:none"
           d="M 2.9375,-0.96875 H 2.71875 c 0,0.09375 -0.0625,0.40625 -0.140625,0.453125 -0.03125,0.03125 -0.453125,0.03125 -0.53125,0.03125 H 1.078125 C 1.40625,-0.71875 1.765625,-1 2.0625,-1.203125 c 0.453125,-0.3125 0.875,-0.59375 0.875,-1.125 0,-0.640625 -0.609375,-0.984375 -1.3125,-0.984375 -0.671875,0 -1.171875,0.375 -1.171875,0.875 0,0.25 0.21875,0.296875 0.296875,0.296875 0.125,0 0.28125,-0.09375 0.28125,-0.296875 0,-0.171875 -0.125,-0.28125 -0.28125,-0.28125 0.140625,-0.234375 0.4375,-0.375 0.765625,-0.375 0.484375,0 0.890625,0.28125 0.890625,0.765625 0,0.421875 -0.296875,0.75 -0.671875,1.0625 l -1.21875,1.03125 C 0.46875,-0.1875 0.453125,-0.1875 0.453125,-0.15625 V 0 h 2.3125 z m 0,0"
           id="path2088" />
      </symbol>
      <symbol
         overflow="visible"
         id="symbol8241">
        <path
           style="stroke:none"
           d=""
           id="path2658" />
      </symbol>
      <symbol
         overflow="visible"
         id="symbol7403">
        <path
           style="stroke:none"
           d="m 2.015625,-3.296875 c 0.0625,-0.109375 0.0625,-0.171875 0.0625,-0.21875 0,-0.21875 -0.1875,-0.375 -0.40625,-0.375 -0.265625,0 -0.34375,0.21875 -0.375,0.328125 L 0.375,-0.546875 c -0.015625,0.015625 -0.046875,0.09375 -0.046875,0.109375 0,0.078125 0.21875,0.15625 0.28125,0.15625 0.046875,0 0.046875,-0.015625 0.09375,-0.125 z m 0,0"
           id="path6170" />
      </symbol>
    </g>
    <g
       id="g3220">
      <symbol
         overflow="visible"
         id="symbol8923">
        <path
           style="stroke:none"
           d=""
           id="path1288" />
      </symbol>
      <symbol
         overflow="visible"
         id="symbol1250">
        <path
           style="stroke:none"
           d="m 1.578125,-0.78125 c -0.09375,0.390625 -0.109375,0.46875 -0.90625,0.46875 -0.15625,0 -0.265625,0 -0.265625,0.1875 C 0.40625,0 0.484375,0 0.671875,0 h 3.3125 c 2.0625,0 4.03125,-2.109375 4.03125,-4.28125 0,-1.40625 -0.84375,-2.53125 -2.34375,-2.53125 h -3.34375 c -0.1875,0 -0.296875,0 -0.296875,0.1875 0,0.125 0.078125,0.125 0.28125,0.125 0.125,0 0.3125,0.015625 0.421875,0.015625 0.171875,0.03125 0.21875,0.046875 0.21875,0.171875 0,0.03125 0,0.0625 -0.03125,0.1875 z M 3.734375,-6.125 C 3.828125,-6.46875 3.84375,-6.5 4.28125,-6.5 h 1.0625 c 0.96875,0 1.796875,0.53125 1.796875,1.84375 0,0.484375 -0.1875,2.125 -1.046875,3.21875 -0.28125,0.375 -1.0625,1.125 -2.296875,1.125 h -1.125 c -0.140625,0 -0.15625,0 -0.21875,0 -0.09375,-0.015625 -0.125,-0.03125 -0.125,-0.109375 0,-0.03125 0,-0.046875 0.046875,-0.21875 z m 0,0"
           id="path9039" />
      </symbol>
      <symbol
         overflow="visible"
         id="symbol8430">
        <path
           style="stroke:none"
           d="m 2.03125,-0.015625 c 0,-0.65625 -0.25,-1.046875 -0.640625,-1.046875 -0.328125,0 -0.53125,0.25 -0.53125,0.53125 C 0.859375,-0.265625 1.0625,0 1.390625,0 1.5,0 1.640625,-0.046875 1.734375,-0.125 1.765625,-0.15625 1.78125,-0.15625 1.78125,-0.15625 c 0.015625,0 0.015625,0 0.015625,0.140625 0,0.75 -0.34375,1.34375 -0.671875,1.671875 -0.109375,0.109375 -0.109375,0.125 -0.109375,0.15625 0,0.078125 0.046875,0.109375 0.09375,0.109375 0.109375,0 0.921875,-0.765625 0.921875,-1.9375 z m 0,0"
           id="path46" />
      </symbol>
      <symbol
         overflow="visible"
         id="symbol5598">
        <path
           style="stroke:none"
           d="M 0.40625,-2.53125 C 0.796875,-3.671875 1.890625,-3.6875 2,-3.6875 c 1.5,0 1.609375,1.75 1.609375,2.53125 0,0.609375 -0.046875,0.78125 -0.125,0.984375 -0.21875,0.71875 -0.515625,1.875 -0.515625,2.140625 0,0.109375 0.046875,0.171875 0.125,0.171875 0.140625,0 0.21875,-0.21875 0.328125,-0.59375 C 3.65625,0.703125 3.75,0.140625 3.78125,-0.171875 c 0.03125,-0.125 0.046875,-0.25 0.09375,-0.390625 0.3125,-0.984375 0.953125,-2.46875 1.34375,-3.25 0.078125,-0.125 0.1875,-0.34375 0.1875,-0.390625 0,-0.09375 -0.09375,-0.09375 -0.109375,-0.09375 -0.03125,0 -0.09375,0 -0.125,0.0625 C 4.65625,-3.28125 4.25,-2.28125 3.859375,-1.28125 3.84375,-1.578125 3.84375,-2.34375 3.453125,-3.3125 3.203125,-3.921875 2.8125,-4.40625 2.125,-4.40625 c -1.25,0 -1.953125,1.515625 -1.953125,1.828125 0,0.09375 0.09375,0.09375 0.203125,0.09375 z m 0,0"
           id="path6319" />
      </symbol>
      <symbol
         overflow="visible"
         id="symbol3894">
        <path
           style="stroke:none"
           d="m 0.875,-0.59375 c -0.03125,0.15625 -0.09375,0.390625 -0.09375,0.4375 0,0.171875 0.140625,0.265625 0.296875,0.265625 0.125,0 0.296875,-0.078125 0.375,-0.28125 C 1.46875,-0.203125 1.796875,-1.5625 1.84375,-1.75 c 0.078125,-0.328125 0.265625,-1.015625 0.3125,-1.296875 0.046875,-0.125 0.328125,-0.59375 0.5625,-0.8125 0.078125,-0.0625 0.375,-0.328125 0.796875,-0.328125 0.265625,0 0.40625,0.125 0.421875,0.125 -0.296875,0.046875 -0.515625,0.28125 -0.515625,0.546875 0,0.15625 0.109375,0.34375 0.375,0.34375 0.265625,0 0.546875,-0.234375 0.546875,-0.59375 0,-0.34375 -0.3125,-0.640625 -0.828125,-0.640625 C 2.875,-4.40625 2.4375,-3.921875 2.25,-3.640625 2.15625,-4.09375 1.796875,-4.40625 1.328125,-4.40625 0.875,-4.40625 0.6875,-4.015625 0.59375,-3.84375 0.421875,-3.5 0.296875,-2.90625 0.296875,-2.875 c 0,0.109375 0.09375,0.109375 0.109375,0.109375 0.109375,0 0.109375,-0.015625 0.171875,-0.234375 0.171875,-0.703125 0.375,-1.1875 0.734375,-1.1875 0.15625,0 0.296875,0.078125 0.296875,0.453125 0,0.21875 -0.03125,0.328125 -0.15625,0.84375 z m 0,0"
           id="path2620" />
      </symbol>
    </g>
    <g
       id="g4761">
      <symbol
         overflow="visible"
         id="symbol9032">
        <path
           style="stroke:none"
           d=""
           id="path1028" />
      </symbol>
      <symbol
         overflow="visible"
         id="symbol2469">
        <path
           style="stroke:none"
           d="m 9.140625,-5.65625 c 0.25,-0.4375 0.484375,-0.796875 1.125,-0.84375 0.07813,-0.015625 0.1875,-0.015625 0.1875,-0.203125 0,-0.03125 -0.04687,-0.109375 -0.125,-0.109375 -0.234375,0 -0.515625,0.03125 -0.765625,0.03125 -0.34375,0 -0.703125,-0.03125 -1.046875,-0.03125 -0.046875,0 -0.1875,0 -0.1875,0.1875 0,0.109375 0.09375,0.125 0.15625,0.125 0.234375,0.015625 0.59375,0.09375 0.59375,0.390625 0,0.109375 -0.0625,0.1875 -0.140625,0.328125 L 6.25,-1.09375 5.875,-6.03125 c 0,-0.203125 -0.015625,-0.453125 0.703125,-0.46875 0.171875,0 0.265625,0 0.265625,-0.203125 0,-0.09375 -0.109375,-0.109375 -0.140625,-0.109375 -0.40625,0 -0.828125,0.03125 -1.21875,0.03125 -0.234375,0 -0.8125,-0.03125 -1.046875,-0.03125 -0.0625,0 -0.1875,0 -0.1875,0.203125 C 4.25,-6.5 4.34375,-6.5 4.484375,-6.5 4.921875,-6.5 5,-6.4375 5.015625,-6.25 l 0.0625,0.765625 -2.53125,4.390625 -0.375,-5.046875 c 0,-0.125 0,-0.34375 0.765625,-0.359375 0.09375,0 0.203125,0 0.203125,-0.203125 C 3.140625,-6.8125 3.015625,-6.8125 3,-6.8125 c -0.390625,0 -0.8125,0.03125 -1.21875,0.03125 -0.359375,0 -0.71875,-0.03125 -1.046875,-0.03125 -0.0625,0 -0.1875,0 -0.1875,0.1875 0,0.125 0.09375,0.125 0.25,0.125 0.5,0 0.515625,0.09375 0.53125,0.375 l 0.453125,6.078125 c 0,0.1875 0.015625,0.265625 0.15625,0.265625 0.109375,0 0.140625,-0.0625 0.234375,-0.203125 l 2.9375,-5.09375 0.359375,5.03125 C 5.5,0.171875 5.515625,0.21875 5.625,0.21875 c 0.140625,0 0.203125,-0.09375 0.25,-0.1875 z m 0,0"
           id="path8614" />
      </symbol>
      <symbol
         overflow="visible"
         id="symbol7647">
        <path
           style="stroke:none"
           d="m 2.03125,-0.015625 c 0,-0.65625 -0.25,-1.046875 -0.640625,-1.046875 -0.328125,0 -0.53125,0.25 -0.53125,0.53125 C 0.859375,-0.265625 1.0625,0 1.390625,0 1.5,0 1.640625,-0.046875 1.734375,-0.125 1.765625,-0.15625 1.78125,-0.15625 1.78125,-0.15625 c 0.015625,0 0.015625,0 0.015625,0.140625 0,0.75 -0.34375,1.34375 -0.671875,1.671875 -0.109375,0.109375 -0.109375,0.125 -0.109375,0.15625 0,0.078125 0.046875,0.109375 0.09375,0.109375 0.109375,0 0.921875,-0.765625 0.921875,-1.9375 z m 0,0"
           id="path4731" />
      </symbol>
      <symbol
         overflow="visible"
         id="symbol1841">
        <path
           style="stroke:none"
           d="m 2.375,-6.8125 c 0,0 0,-0.109375 -0.125,-0.109375 -0.21875,0 -0.953125,0.078125 -1.21875,0.109375 -0.078125,0 -0.1875,0.015625 -0.1875,0.1875 0,0.125 0.09375,0.125 0.25,0.125 0.46875,0 0.484375,0.0625 0.484375,0.171875 0,0.0625 -0.078125,0.40625 -0.125,0.609375 l -0.828125,3.25 c -0.109375,0.5 -0.15625,0.671875 -0.15625,1.015625 0,0.9375 0.53125,1.5625 1.265625,1.5625 1.171875,0 2.40625,-1.484375 2.40625,-2.921875 0,-0.90625 -0.53125,-1.59375 -1.328125,-1.59375 -0.453125,0 -0.875,0.296875 -1.171875,0.59375 z M 1.453125,-3.046875 C 1.5,-3.265625 1.5,-3.28125 1.59375,-3.390625 2.078125,-4.03125 2.53125,-4.1875 2.796875,-4.1875 c 0.359375,0 0.625,0.296875 0.625,0.9375 0,0.59375 -0.328125,1.734375 -0.515625,2.109375 -0.328125,0.671875 -0.78125,1.03125 -1.171875,1.03125 -0.34375,0 -0.671875,-0.265625 -0.671875,-1 0,-0.203125 0,-0.390625 0.15625,-1.015625 z m 0,0"
           id="path9633" />
      </symbol>
      <symbol
         overflow="visible"
         id="symbol8649">
        <path
           style="stroke:none"
           d="M 6.265625,-5.671875 C 6.75,-6.453125 7.171875,-6.484375 7.53125,-6.5 c 0.125,-0.015625 0.140625,-0.171875 0.140625,-0.1875 0,-0.078125 -0.0625,-0.125 -0.140625,-0.125 -0.25,0 -0.546875,0.03125 -0.8125,0.03125 -0.328125,0 -0.671875,-0.03125 -0.984375,-0.03125 -0.0625,0 -0.1875,0 -0.1875,0.1875 0,0.109375 0.078125,0.125 0.15625,0.125 0.265625,0.015625 0.453125,0.125 0.453125,0.328125 0,0.15625 -0.140625,0.375 -0.140625,0.375 l -3.0625,4.875 -0.6875,-5.28125 C 2.265625,-6.375 2.5,-6.5 2.953125,-6.5 c 0.140625,0 0.25,0 0.25,-0.203125 0,-0.078125 -0.078125,-0.109375 -0.125,-0.109375 -0.40625,0 -0.828125,0.03125 -1.25,0.03125 -0.171875,0 -0.359375,0 -0.546875,0 -0.171875,0 -0.359375,-0.03125 -0.53125,-0.03125 -0.078125,0 -0.1875,0 -0.1875,0.1875 0,0.125 0.078125,0.125 0.25,0.125 0.546875,0 0.5625,0.09375 0.59375,0.34375 L 2.1875,-0.015625 C 2.21875,0.1875 2.265625,0.21875 2.390625,0.21875 c 0.15625,0 0.203125,-0.046875 0.28125,-0.171875 z m 0,0"
           id="path9147" />
      </symbol>
      <symbol
         overflow="visible"
         id="symbol1837">
        <path
           style="stroke:none"
           d=""
           id="path3866" />
      </symbol>
      <symbol
         overflow="visible"
         id="symbol1345">
        <path
           style="stroke:none"
           d="m 1.390625,-1.59375 c 0,-0.578125 0.265625,-1.28125 0.9375,-1.28125 -0.0625,0.046875 -0.125,0.140625 -0.125,0.25 0,0.234375 0.1875,0.3125 0.3125,0.3125 0.171875,0 0.328125,-0.109375 0.328125,-0.3125 0,-0.234375 -0.234375,-0.453125 -0.5625,-0.453125 -0.34375,0 -0.734375,0.21875 -0.9375,0.75 v -0.75 L 0.34375,-3 v 0.25 c 0.46875,0 0.515625,0.046875 0.515625,0.390625 v 1.8125 C 0.859375,-0.25 0.796875,-0.25 0.34375,-0.25 V 0 c 0.03125,0 0.5,-0.03125 0.796875,-0.03125 0.296875,0 0.59375,0.015625 0.90625,0.03125 V -0.25 H 1.90625 c -0.515625,0 -0.515625,-0.078125 -0.515625,-0.3125 z m 0,0"
           id="path2911" />
      </symbol>
      <symbol
         overflow="visible"
         id="symbol1201">
        <path
           style="stroke:none"
           d="m 3.640625,-2.75 h 0.875 V -3 h -0.90625 v -0.78125 c 0,-0.625 0.375,-0.921875 0.6875,-0.921875 0.0625,0 0.125,0 0.203125,0.03125 -0.109375,0.046875 -0.15625,0.15625 -0.15625,0.28125 0,0.1875 0.125,0.3125 0.3125,0.3125 0.1875,0 0.328125,-0.125 0.328125,-0.3125 0,-0.3125 -0.296875,-0.515625 -0.6875,-0.515625 -0.25,0 -0.546875,0.078125 -0.8125,0.296875 -0.21875,-0.25 -0.640625,-0.296875 -0.90625,-0.296875 -0.765625,0 -1.71875,0.34375 -1.71875,1.140625 V -3 h -0.59375 v 0.25 h 0.59375 v 2.203125 C 0.859375,-0.25 0.796875,-0.25 0.34375,-0.25 V 0 c 0.015625,0 0.5,-0.03125 0.78125,-0.03125 0.265625,0 0.515625,0.015625 0.78125,0.03125 v -0.25 c -0.453125,0 -0.515625,0 -0.515625,-0.296875 V -2.75 h 1.71875 v 2.203125 C 3.109375,-0.25 3.046875,-0.25 2.59375,-0.25 V 0 C 2.625,0 3.09375,-0.03125 3.390625,-0.03125 3.6875,-0.03125 4,-0.015625 4.296875,0 V -0.25 H 4.15625 c -0.515625,0 -0.515625,-0.078125 -0.515625,-0.3125 z M 1.359375,-3 v -0.765625 c 0,-0.671875 0.6875,-0.9375 1.203125,-0.9375 0.0625,0 0.359375,0 0.59375,0.109375 -0.078125,0.015625 -0.203125,0.109375 -0.203125,0.296875 0,0.09375 0.03125,0.21875 0.171875,0.28125 C 3.109375,-3.9375 3.109375,-3.859375 3.109375,-3.78125 V -3 Z m 0,0"
           id="path731" />
      </symbol>
      <symbol
         overflow="visible"
         id="symbol4414">
        <path
           style="stroke:none"
           d=""
           id="path9581" />
      </symbol>
      <symbol
         overflow="visible"
         id="symbol2593">
        <path
           style="stroke:none"
           d="M 3.6875,-6.921875 C 3.625,-7.125 3.5625,-7.140625 3.453125,-7.140625 c -0.15625,0 -0.171875,0.046875 -0.21875,0.21875 L 1.3125,-1 c -0.09375,0.296875 -0.296875,0.6875 -1,0.6875 V 0 c 0.328125,-0.015625 0.84375,-0.03125 0.9375,-0.03125 0.28125,0 0.8125,0.015625 1.125,0.03125 v -0.3125 c -0.546875,0 -0.765625,-0.28125 -0.765625,-0.515625 0,-0.046875 0,-0.078125 0.046875,-0.21875 l 1.5,-4.640625 1.5625,4.90625 c 0.0625,0.140625 0.0625,0.15625 0.0625,0.171875 0,0.296875 -0.59375,0.296875 -0.859375,0.296875 V 0 c 0.359375,-0.03125 1.0625,-0.03125 1.4375,-0.03125 0.390625,0 0.84375,0.015625 1.234375,0.03125 v -0.3125 c -0.765625,0 -0.796875,-0.0625 -0.90625,-0.421875 z m 0,0"
           id="path223" />
      </symbol>
    </g>
  </defs>
  <sodipodi:namedview
     id="base"
     pagecolor="#ffffff"
     bordercolor="#666666"
     borderopacity="1.0"
     inkscape:pageopacity="0.0"
     inkscape:pageshadow="2"
     inkscape:zoom="0.7"
     inkscape:cx="489.4337"
     inkscape:cy="217.58042"
     inkscape:document-units="mm"
     inkscape:current-layer="layer1"
     inkscape:document-rotation="0"
     showgrid="false"
     inkscape:window-width="1920"
     inkscape:window-height="1012"
     inkscape:window-x="0"
     inkscape:window-y="169"
     inkscape:window-maximized="1"
     inkscape:snap-midpoints="true" />
  <metadata
     id="metadata10473">
    <rdf:RDF>
      <cc:Work
         rdf:about="">
        <dc:format>image/svg+xml</dc:format>
        <dc:type
           rdf:resource="http://purl.org/dc/dcmitype/StillImage" />
        <dc:title></dc:title>
      </cc:Work>
    </rdf:RDF>
  </metadata>
  <g
     inkscape:label="Layer 1"
     inkscape:groupmode="layer"
     id="layer1"
     transform="translate(-111.05259,-29.745623)">
    <g
       id="g11279"
       transform="translate(-0.84945135)">
      <rect
         style="fill:#ccccff;fill-opacity:1;stroke:#000000;stroke-width:0.5;stroke-linejoin:bevel;stroke-miterlimit:4;stroke-dasharray:none;stroke-opacity:1"
         id="rect10576"
         width="55.213913"
         height="19.537222"
         x="112.15205"
         y="52.942039"
         ry="5.1674542" />
      <text
         xml:space="preserve"
         style="font-style:normal;font-weight:normal;font-size:7.05556px;line-height:1.25;font-family:sans-serif;white-space:pre;inline-size:58.2993;fill:#000000;fill-opacity:1;stroke:none;stroke-width:0.264583"
         x="118.025"
         y="58.177399"
         id="text11141"
         transform="translate(-2.5991136,2.2023717)"><tspan
           x="118.025"
           y="58.177399"><tspan
             style="font-size:7.05556px;stroke-width:0.264583">Quantum </tspan></tspan><tspan
           x="118.025"
           y="66.996851"><tspan
             style="font-size:7.05556px;stroke-width:0.264583">Measurement</tspan></tspan></text>
    </g>
    <g
       id="g11274"
       transform="translate(-0.16554479)">
      <rect
         style="fill:#ffcccc;fill-opacity:1;stroke:#000000;stroke-width:0.371957;stroke-linejoin:bevel;stroke-miterlimit:4;stroke-dasharray:none;stroke-opacity:1"
         id="rect10576-5"
         width="55.213913"
         height="10.812074"
         x="111.46814"
         y="99.373055"
         ry="2.8597155" />
      <text
         xml:space="preserve"
         style="font-style:normal;font-weight:normal;font-size:7.05556px;line-height:1.25;font-family:sans-serif;white-space:pre;inline-size:58.2993;fill:#000000;fill-opacity:1;stroke:none;stroke-width:0.264583"
         x="118.025"
         y="58.177399"
         id="text11141-3"
         transform="translate(-3.5121193,49.102244)"><tspan
           x="118.025"
           y="58.177399"><tspan>Normalization</tspan></tspan></text>
    </g>
    <g
       id="g11270"
       transform="translate(0.91347285)">
      <rect
         style="fill:#ccffcc;fill-opacity:1;stroke:#000000;stroke-width:0.371957;stroke-linejoin:bevel;stroke-miterlimit:4;stroke-dasharray:none;stroke-opacity:1"
         id="rect10576-5-5"
         width="55.213913"
         height="10.812074"
         x="110.38912"
         y="140.40886"
         ry="2.8597155" />
      <text
         xml:space="preserve"
         style="font-style:normal;font-weight:normal;font-size:7.05556px;line-height:1.25;font-family:sans-serif;white-space:pre;inline-size:58.2993;fill:#000000;fill-opacity:1;stroke:none;stroke-width:0.264583"
         x="118.025"
         y="58.177399"
         id="text11141-3-6"
         transform="translate(13.319927,90.602139)"><tspan
           x="118.025"
           y="58.177399"><tspan>RFF</tspan></tspan></text>
    </g>
    <path
       style="fill:none;stroke:#000000;stroke-width:0.264583;stroke-linecap:butt;stroke-linejoin:miter;stroke-miterlimit:3.9;stroke-dasharray:none;stroke-opacity:1;marker-end:url(#marker11307)"
       d="m 138.90954,140.40886 1e-5,-30.22373"
       id="path11281" />
    <path
       style="fill:none;stroke:#000000;stroke-width:0.265;stroke-linecap:butt;stroke-linejoin:miter;stroke-miterlimit:4;stroke-dasharray:none;stroke-opacity:1;marker-end:url(#Arrow1Mend)"
       d="M 138.90955,99.373054 V 72.479262"
       id="path11283" />
    <path
       style="fill:none;stroke:#000000;stroke-width:0.264583px;stroke-linecap:butt;stroke-linejoin:miter;stroke-opacity:1;marker-start:url(#Arrow1Mstart)"
       d="m 138.90954,151.22093 v 7.10416"
       id="path11443" />
    <path
       style="fill:none;stroke:#000000;stroke-width:0.264583px;stroke-linecap:butt;stroke-linejoin:miter;stroke-opacity:1;marker-end:url(#marker11493)"
       d="M 138.90955,52.94204 V 44.298676"
       id="path11483" />
    <g
       inkscape:label=""
       transform="translate(44.172154,83.90076)"
       id="g11588">
      <g
         id="g1495">
        <g
           style="fill:#000000;fill-opacity:1"
           id="g6901">
          <use
             xlink:href="#symbol5362"
             x="91.925003"
             y="81.962997"
             id="use6754"
             width="100%"
             height="100%" />
        </g>
      </g>
    </g>
    <g
       inkscape:label=""
       transform="translate(53.51606,47.091487)"
       id="g11693">
      <g
         id="g5410">
        <g
           style="fill:#000000;fill-opacity:1"
           id="g9179">
          <use
             xlink:href="#symbol1749"
             x="91.925003"
             y="81.962997"
             id="use510"
             width="100%"
             height="100%" />
        </g>
        <g
           style="fill:#000000;fill-opacity:1"
           id="g8801">
          <use
             xlink:href="#symbol4233"
             x="97.861"
             y="83.457001"
             id="use1676"
             width="100%"
             height="100%" />
          <use
             xlink:href="#symbol6681"
             x="100.97411"
             y="83.457001"
             id="use6186"
             width="100%"
             height="100%" />
        </g>
        <g
           style="fill:#000000;fill-opacity:1"
           id="g3605">
          <use
             xlink:href="#symbol7381"
             x="106.198"
             y="81.962997"
             id="use3201"
             width="100%"
             height="100%" />
        </g>
        <g
           style="fill:#000000;fill-opacity:1"
           id="g1419">
          <use
             xlink:href="#symbol8528"
             x="110.073"
             y="81.962997"
             id="use3167"
             width="100%"
             height="100%" />
        </g>
        <g
           style="fill:#000000;fill-opacity:1"
           id="g4433">
          <use
             xlink:href="#symbol6160"
             x="115.766"
             y="81.962997"
             id="use13"
             width="100%"
             height="100%" />
        </g>
      </g>
    </g>
    <g
       inkscape:label=""
       transform="translate(53.516061,7.4507381)"
       id="g11856">
      <g
         id="g9183">
        <g
           style="fill:#000000;fill-opacity:1"
           id="g3034">
          <use
             xlink:href="#symbol6630"
             x="93.233002"
             y="79.334"
             id="use1141"
             width="100%"
             height="100%" />
        </g>
        <g
           style="fill:#000000;fill-opacity:1"
           id="g8887">
          <use
             xlink:href="#symbol6063"
             x="91.925003"
             y="81.962997"
             id="use9235"
             width="100%"
             height="100%" />
        </g>
        <g
           style="fill:#000000;fill-opacity:1"
           id="g8927">
          <use
             xlink:href="#symbol2348"
             x="97.861"
             y="83.457001"
             id="use8507"
             width="100%"
             height="100%" />
          <use
             xlink:href="#symbol7965"
             x="100.97411"
             y="83.457001"
             id="use1598"
             width="100%"
             height="100%" />
        </g>
        <g
           style="fill:#000000;fill-opacity:1"
           id="g492">
          <use
             xlink:href="#symbol4079"
             x="106.198"
             y="81.962997"
             id="use3176"
             width="100%"
             height="100%" />
        </g>
        <g
           style="fill:#000000;fill-opacity:1"
           id="g8633">
          <use
             xlink:href="#symbol9706"
             x="110.073"
             y="81.962997"
             id="use2960"
             width="100%"
             height="100%" />
        </g>
        <g
           style="fill:#000000;fill-opacity:1"
           id="g4725">
          <use
             xlink:href="#symbol7265"
             x="115.766"
             y="81.962997"
             id="use4075"
             width="100%"
             height="100%" />
        </g>
      </g>
    </g>
    <g
       inkscape:label=""
       transform="translate(35.960862,-42.666502)"
       id="g12056">
      <g
         id="g7194">
        <g
           style="fill:#000000;fill-opacity:1"
           id="g5868">
          <use
             xlink:href="#symbol4261"
             x="94.07"
             y="79.334"
             id="use5517"
             width="100%"
             height="100%" />
        </g>
        <g
           style="fill:#000000;fill-opacity:1"
           id="g2502">
          <use
             xlink:href="#symbol9187"
             x="91.925003"
             y="81.962997"
             id="use6418"
             width="100%"
             height="100%" />
        </g>
        <g
           style="fill:#000000;fill-opacity:1"
           id="g7365">
          <use
             xlink:href="#symbol3250"
             x="96.803001"
             y="83.457001"
             id="use1172"
             width="100%"
             height="100%" />
        </g>
        <g
           style="fill:#000000;fill-opacity:1"
           id="g9249">
          <use
             xlink:href="#symbol7200"
             x="101.434"
             y="81.962997"
             id="use879"
             width="100%"
             height="100%" />
        </g>
        <g
           style="fill:#000000;fill-opacity:1"
           id="g8671">
          <use
             xlink:href="#symbol9438"
             x="105.309"
             y="81.962997"
             id="use4028"
             width="100%"
             height="100%" />
        </g>
        <g
           style="fill:#000000;fill-opacity:1"
           id="g1395">
          <use
             xlink:href="#symbol3661"
             x="111.003"
             y="81.962997"
             id="use2312"
             width="100%"
             height="100%" />
        </g>
      </g>
    </g>
  </g>
</svg>
