<?xml version="1.0" encoding="utf-8" standalone="no"?>
<!DOCTYPE svg PUBLIC "-//W3C//DTD SVG 1.1//EN"
  "http://www.w3.org/Graphics/SVG/1.1/DTD/svg11.dtd">
<!-- Created with matplotlib (https://matplotlib.org/) -->
<svg height="378pt" version="1.1" viewBox="0 0 540 378" width="540pt" xmlns="http://www.w3.org/2000/svg" xmlns:xlink="http://www.w3.org/1999/xlink">
 <defs>
  <style type="text/css">
*{stroke-linecap:butt;stroke-linejoin:round;}
  </style>
 </defs>
 <g id="figure_1">
  <g id="patch_1">
   <path d="M 0 378 
L 540 378 
L 540 0 
L 0 0 
z
" style="fill:#ffffff;"/>
  </g>
  <g id="axes_1">
   <g id="patch_2">
    <path d="M 67.5 330.75 
L 486 330.75 
L 486 45.36 
L 67.5 45.36 
z
" style="fill:#ffffff;"/>
   </g>
   <g id="PathCollection_1">
    <path clip-path="url(#p9513b9371d)" d="M 262.766161 324.848795 
C 264.64143 324.848795 266.440145 324.103743 267.766161 322.777727 
C 269.092176 321.451712 269.837229 319.652996 269.837229 317.777727 
C 269.837229 315.902458 269.092176 314.103743 267.766161 312.777727 
C 266.440145 311.451712 264.64143 310.706659 262.766161 310.706659 
C 260.890892 310.706659 259.092176 311.451712 257.766161 312.777727 
C 256.440145 314.103743 255.695093 315.902458 255.695093 317.777727 
C 255.695093 319.652996 256.440145 321.451712 257.766161 322.777727 
C 259.092176 324.103743 260.890892 324.848795 262.766161 324.848795 
z
" style="fill:#1f77b4;"/>
   </g>
   <g id="PathCollection_2">
    <path clip-path="url(#p9513b9371d)" d="M 370.334154 324.848795 
C 372.209423 324.848795 374.008138 324.103743 375.334154 322.777727 
C 376.660169 321.451712 377.405222 319.652996 377.405222 317.777727 
C 377.405222 315.902458 376.660169 314.103743 375.334154 312.777727 
C 374.008138 311.451712 372.209423 310.706659 370.334154 310.706659 
C 368.458885 310.706659 366.660169 311.451712 365.334154 312.777727 
C 364.008138 314.103743 363.263086 315.902458 363.263086 317.777727 
C 363.263086 319.652996 364.008138 321.451712 365.334154 322.777727 
C 366.660169 324.103743 368.458885 324.848795 370.334154 324.848795 
z
" style="fill:#ff7f0e;"/>
   </g>
   <g id="PathCollection_3">
    <path clip-path="url(#p9513b9371d)" d="M 235.453975 324.848795 
C 237.329244 324.848795 239.12796 324.103743 240.453975 322.777727 
C 241.779991 321.451712 242.525043 319.652996 242.525043 317.777727 
C 242.525043 315.902458 241.779991 314.103743 240.453975 312.777727 
C 239.12796 311.451712 237.329244 310.706659 235.453975 310.706659 
C 233.578706 310.706659 231.779991 311.451712 230.453975 312.777727 
C 229.12796 314.103743 228.382907 315.902458 228.382907 317.777727 
C 228.382907 319.652996 229.12796 321.451712 230.453975 322.777727 
C 231.779991 324.103743 233.578706 324.848795 235.453975 324.848795 
z
" style="fill:#2ca02c;"/>
   </g>
   <g id="PathCollection_4">
    <path clip-path="url(#p9513b9371d)" d="M 314.869408 324.848795 
C 316.744677 324.848795 318.543392 324.103743 319.869408 322.777727 
C 321.195423 321.451712 321.940475 319.652996 321.940475 317.777727 
C 321.940475 315.902458 321.195423 314.103743 319.869408 312.777727 
C 318.543392 311.451712 316.744677 310.706659 314.869408 310.706659 
C 312.994138 310.706659 311.195423 311.451712 309.869408 312.777727 
C 308.543392 314.103743 307.79834 315.902458 307.79834 317.777727 
C 307.79834 319.652996 308.543392 321.451712 309.869408 322.777727 
C 311.195423 324.103743 312.994138 324.848795 314.869408 324.848795 
z
" style="fill:#d62728;"/>
   </g>
   <g id="PathCollection_5">
    <path clip-path="url(#p9513b9371d)" d="M 345.122906 324.848795 
C 346.998175 324.848795 348.79689 324.103743 350.122906 322.777727 
C 351.448921 321.451712 352.193973 319.652996 352.193973 317.777727 
C 352.193973 315.902458 351.448921 314.103743 350.122906 312.777727 
C 348.79689 311.451712 346.998175 310.706659 345.122906 310.706659 
C 343.247636 310.706659 341.448921 311.451712 340.122906 312.777727 
C 338.79689 314.103743 338.051838 315.902458 338.051838 317.777727 
C 338.051838 319.652996 338.79689 321.451712 340.122906 322.777727 
C 341.448921 324.103743 343.247636 324.848795 345.122906 324.848795 
z
" style="fill:#9467bd;"/>
   </g>
   <g id="PathCollection_6">
    <path clip-path="url(#p9513b9371d)" d="M 87.363102 65.403341 
C 89.238371 65.403341 91.037087 64.658288 92.363102 63.332273 
C 93.689118 62.006257 94.43417 60.207542 94.43417 58.332273 
C 94.43417 56.457004 93.689118 54.658288 92.363102 53.332273 
C 91.037087 52.006257 89.238371 51.261205 87.363102 51.261205 
C 85.487833 51.261205 83.689118 52.006257 82.363102 53.332273 
C 81.037087 54.658288 80.292034 56.457004 80.292034 58.332273 
C 80.292034 60.207542 81.037087 62.006257 82.363102 63.332273 
C 83.689118 64.658288 85.487833 65.403341 87.363102 65.403341 
z
" style="fill:#f0e68c;"/>
   </g>
   <g id="PathCollection_7">
    <path clip-path="url(#p9513b9371d)" d="M 91.371691 174.160779 
C 93.24696 174.160779 95.045675 173.415726 96.371691 172.089711 
C 97.697706 170.763695 98.442759 168.96498 98.442759 167.089711 
C 98.442759 165.214442 97.697706 163.415726 96.371691 162.089711 
C 95.045675 160.763695 93.24696 160.018643 91.371691 160.018643 
C 89.496422 160.018643 87.697706 160.763695 86.371691 162.089711 
C 85.045675 163.415726 84.300623 165.214442 84.300623 167.089711 
C 84.300623 168.96498 85.045675 170.763695 86.371691 172.089711 
C 87.697706 173.415726 89.496422 174.160779 91.371691 174.160779 
z
" style="fill:#ffd700;"/>
   </g>
   <g id="PathCollection_8">
    <path clip-path="url(#p9513b9371d)" d="M 466.977273 316.986812 
C 468.852542 316.986812 470.651257 316.241759 471.977273 314.915744 
C 473.303288 313.589728 474.048341 311.791013 474.048341 309.915744 
C 474.048341 308.040475 473.303288 306.241759 471.977273 304.915744 
C 470.651257 303.589728 468.852542 302.844676 466.977273 302.844676 
C 465.102004 302.844676 463.303288 303.589728 461.977273 304.915744 
C 460.651257 306.241759 459.906205 308.040475 459.906205 309.915744 
C 459.906205 311.791013 460.651257 313.589728 461.977273 314.915744 
C 463.303288 316.241759 465.102004 316.986812 466.977273 316.986812 
z
" style="fill:#daa520;"/>
   </g>
   <g id="PathCollection_9">
    <path clip-path="url(#p9513b9371d)" d="M 127.885982 318.297142 
C 129.761251 318.297142 131.559967 317.55209 132.885982 316.226074 
C 134.211998 314.900059 134.95705 313.101343 134.95705 311.226074 
C 134.95705 309.350805 134.211998 307.55209 132.885982 306.226074 
C 131.559967 304.900059 129.761251 304.155007 127.885982 304.155007 
C 126.010713 304.155007 124.211998 304.900059 122.885982 306.226074 
C 121.559967 307.55209 120.814914 309.350805 120.814914 311.226074 
C 120.814914 313.101343 121.559967 314.900059 122.885982 316.226074 
C 124.211998 317.55209 126.010713 318.297142 127.885982 318.297142 
z
" style="fill:#b8860b;"/>
   </g>
   <g id="PathCollection_10">
    <path clip-path="url(#p9513b9371d)" d="M 86.522727 65.403341 
C 88.397996 65.403341 90.196712 64.658288 91.522727 63.332273 
C 92.848743 62.006257 93.593795 60.207542 93.593795 58.332273 
C 93.593795 56.457004 92.848743 54.658288 91.522727 53.332273 
C 90.196712 52.006257 88.397996 51.261205 86.522727 51.261205 
C 84.647458 51.261205 82.848743 52.006257 81.522727 53.332273 
C 80.196712 54.658288 79.451659 56.457004 79.451659 58.332273 
C 79.451659 60.207542 80.196712 62.006257 81.522727 63.332273 
C 82.848743 64.658288 84.647458 65.403341 86.522727 65.403341 
z
" style="fill:#f0e68c;"/>
   </g>
   <g id="PathCollection_11">
    <path clip-path="url(#p9513b9371d)" d="M 86.64038 174.160779 
C 88.515649 174.160779 90.314364 173.415726 91.64038 172.089711 
C 92.966395 170.763695 93.711448 168.96498 93.711448 167.089711 
C 93.711448 165.214442 92.966395 163.415726 91.64038 162.089711 
C 90.314364 160.763695 88.515649 160.018643 86.64038 160.018643 
C 84.765111 160.018643 82.966395 160.763695 81.64038 162.089711 
C 80.314364 163.415726 79.569312 165.214442 79.569312 167.089711 
C 79.569312 168.96498 80.314364 170.763695 81.64038 172.089711 
C 82.966395 173.415726 84.765111 174.160779 86.64038 174.160779 
z
" style="fill:#ffd700;"/>
   </g>
   <g id="PathCollection_12">
    <path clip-path="url(#p9513b9371d)" d="M 99.313234 316.986812 
C 101.188503 316.986812 102.987218 316.241759 104.313234 314.915744 
C 105.639249 313.589728 106.384302 311.791013 106.384302 309.915744 
C 106.384302 308.040475 105.639249 306.241759 104.313234 304.915744 
C 102.987218 303.589728 101.188503 302.844676 99.313234 302.844676 
C 97.437965 302.844676 95.639249 303.589728 94.313234 304.915744 
C 92.987218 306.241759 92.242166 308.040475 92.242166 309.915744 
C 92.242166 311.791013 92.987218 313.589728 94.313234 314.915744 
C 95.639249 316.241759 97.437965 316.986812 99.313234 316.986812 
z
" style="fill:#daa520;"/>
   </g>
   <g id="PathCollection_13">
    <path clip-path="url(#p9513b9371d)" d="M 127.885982 318.297142 
C 129.761251 318.297142 131.559967 317.55209 132.885982 316.226074 
C 134.211998 314.900059 134.95705 313.101343 134.95705 311.226074 
C 134.95705 309.350805 134.211998 307.55209 132.885982 306.226074 
C 131.559967 304.900059 129.761251 304.155007 127.885982 304.155007 
C 126.010713 304.155007 124.211998 304.900059 122.885982 306.226074 
C 121.559967 307.55209 120.814914 309.350805 120.814914 311.226074 
C 120.814914 313.101343 121.559967 314.900059 122.885982 316.226074 
C 124.211998 317.55209 126.010713 318.297142 127.885982 318.297142 
z
" style="fill:#b8860b;"/>
   </g>
   <g id="matplotlib.axis_1">
    <g id="xtick_1">
     <g id="line2d_1">
      <path clip-path="url(#p9513b9371d)" d="M 84.606672 330.75 
L 84.606672 45.36 
" style="fill:none;stroke:#b0b0b0;stroke-linecap:square;stroke-width:0.8;"/>
     </g>
     <g id="line2d_2">
      <defs>
       <path d="M 0 0 
L 0 3.5 
" id="m84dd67b719" style="stroke:#000000;stroke-width:0.8;"/>
      </defs>
      <g>
       <use style="stroke:#000000;stroke-width:0.8;" x="84.606672" xlink:href="#m84dd67b719" y="330.75"/>
      </g>
     </g>
     <g id="text_1">
      <!-- 0 -->
      <defs>
       <path d="M 31.78125 66.40625 
Q 24.171875 66.40625 20.328125 58.90625 
Q 16.5 51.421875 16.5 36.375 
Q 16.5 21.390625 20.328125 13.890625 
Q 24.171875 6.390625 31.78125 6.390625 
Q 39.453125 6.390625 43.28125 13.890625 
Q 47.125 21.390625 47.125 36.375 
Q 47.125 51.421875 43.28125 58.90625 
Q 39.453125 66.40625 31.78125 66.40625 
z
M 31.78125 74.21875 
Q 44.046875 74.21875 50.515625 64.515625 
Q 56.984375 54.828125 56.984375 36.375 
Q 56.984375 17.96875 50.515625 8.265625 
Q 44.046875 -1.421875 31.78125 -1.421875 
Q 19.53125 -1.421875 13.0625 8.265625 
Q 6.59375 17.96875 6.59375 36.375 
Q 6.59375 54.828125 13.0625 64.515625 
Q 19.53125 74.21875 31.78125 74.21875 
z
" id="DejaVuSans-48"/>
      </defs>
      <g transform="translate(81.425422 345.348437)scale(0.1 -0.1)">
       <use xlink:href="#DejaVuSans-48"/>
      </g>
     </g>
    </g>
    <g id="xtick_2">
     <g id="line2d_3">
      <path clip-path="url(#p9513b9371d)" d="M 168.644167 330.75 
L 168.644167 45.36 
" style="fill:none;stroke:#b0b0b0;stroke-linecap:square;stroke-width:0.8;"/>
     </g>
     <g id="line2d_4">
      <g>
       <use style="stroke:#000000;stroke-width:0.8;" x="168.644167" xlink:href="#m84dd67b719" y="330.75"/>
      </g>
     </g>
     <g id="text_2">
      <!-- 20000 -->
      <defs>
       <path d="M 19.1875 8.296875 
L 53.609375 8.296875 
L 53.609375 0 
L 7.328125 0 
L 7.328125 8.296875 
Q 12.9375 14.109375 22.625 23.890625 
Q 32.328125 33.6875 34.8125 36.53125 
Q 39.546875 41.84375 41.421875 45.53125 
Q 43.3125 49.21875 43.3125 52.78125 
Q 43.3125 58.59375 39.234375 62.25 
Q 35.15625 65.921875 28.609375 65.921875 
Q 23.96875 65.921875 18.8125 64.3125 
Q 13.671875 62.703125 7.8125 59.421875 
L 7.8125 69.390625 
Q 13.765625 71.78125 18.9375 73 
Q 24.125 74.21875 28.421875 74.21875 
Q 39.75 74.21875 46.484375 68.546875 
Q 53.21875 62.890625 53.21875 53.421875 
Q 53.21875 48.921875 51.53125 44.890625 
Q 49.859375 40.875 45.40625 35.40625 
Q 44.1875 33.984375 37.640625 27.21875 
Q 31.109375 20.453125 19.1875 8.296875 
z
" id="DejaVuSans-50"/>
      </defs>
      <g transform="translate(152.737917 345.348437)scale(0.1 -0.1)">
       <use xlink:href="#DejaVuSans-50"/>
       <use x="63.623047" xlink:href="#DejaVuSans-48"/>
       <use x="127.246094" xlink:href="#DejaVuSans-48"/>
       <use x="190.869141" xlink:href="#DejaVuSans-48"/>
       <use x="254.492188" xlink:href="#DejaVuSans-48"/>
      </g>
     </g>
    </g>
    <g id="xtick_3">
     <g id="line2d_5">
      <path clip-path="url(#p9513b9371d)" d="M 252.681662 330.75 
L 252.681662 45.36 
" style="fill:none;stroke:#b0b0b0;stroke-linecap:square;stroke-width:0.8;"/>
     </g>
     <g id="line2d_6">
      <g>
       <use style="stroke:#000000;stroke-width:0.8;" x="252.681662" xlink:href="#m84dd67b719" y="330.75"/>
      </g>
     </g>
     <g id="text_3">
      <!-- 40000 -->
      <defs>
       <path d="M 37.796875 64.3125 
L 12.890625 25.390625 
L 37.796875 25.390625 
z
M 35.203125 72.90625 
L 47.609375 72.90625 
L 47.609375 25.390625 
L 58.015625 25.390625 
L 58.015625 17.1875 
L 47.609375 17.1875 
L 47.609375 0 
L 37.796875 0 
L 37.796875 17.1875 
L 4.890625 17.1875 
L 4.890625 26.703125 
z
" id="DejaVuSans-52"/>
      </defs>
      <g transform="translate(236.775412 345.348437)scale(0.1 -0.1)">
       <use xlink:href="#DejaVuSans-52"/>
       <use x="63.623047" xlink:href="#DejaVuSans-48"/>
       <use x="127.246094" xlink:href="#DejaVuSans-48"/>
       <use x="190.869141" xlink:href="#DejaVuSans-48"/>
       <use x="254.492188" xlink:href="#DejaVuSans-48"/>
      </g>
     </g>
    </g>
    <g id="xtick_4">
     <g id="line2d_7">
      <path clip-path="url(#p9513b9371d)" d="M 336.719156 330.75 
L 336.719156 45.36 
" style="fill:none;stroke:#b0b0b0;stroke-linecap:square;stroke-width:0.8;"/>
     </g>
     <g id="line2d_8">
      <g>
       <use style="stroke:#000000;stroke-width:0.8;" x="336.719156" xlink:href="#m84dd67b719" y="330.75"/>
      </g>
     </g>
     <g id="text_4">
      <!-- 60000 -->
      <defs>
       <path d="M 33.015625 40.375 
Q 26.375 40.375 22.484375 35.828125 
Q 18.609375 31.296875 18.609375 23.390625 
Q 18.609375 15.53125 22.484375 10.953125 
Q 26.375 6.390625 33.015625 6.390625 
Q 39.65625 6.390625 43.53125 10.953125 
Q 47.40625 15.53125 47.40625 23.390625 
Q 47.40625 31.296875 43.53125 35.828125 
Q 39.65625 40.375 33.015625 40.375 
z
M 52.59375 71.296875 
L 52.59375 62.3125 
Q 48.875 64.0625 45.09375 64.984375 
Q 41.3125 65.921875 37.59375 65.921875 
Q 27.828125 65.921875 22.671875 59.328125 
Q 17.53125 52.734375 16.796875 39.40625 
Q 19.671875 43.65625 24.015625 45.921875 
Q 28.375 48.1875 33.59375 48.1875 
Q 44.578125 48.1875 50.953125 41.515625 
Q 57.328125 34.859375 57.328125 23.390625 
Q 57.328125 12.15625 50.6875 5.359375 
Q 44.046875 -1.421875 33.015625 -1.421875 
Q 20.359375 -1.421875 13.671875 8.265625 
Q 6.984375 17.96875 6.984375 36.375 
Q 6.984375 53.65625 15.1875 63.9375 
Q 23.390625 74.21875 37.203125 74.21875 
Q 40.921875 74.21875 44.703125 73.484375 
Q 48.484375 72.75 52.59375 71.296875 
z
" id="DejaVuSans-54"/>
      </defs>
      <g transform="translate(320.812906 345.348437)scale(0.1 -0.1)">
       <use xlink:href="#DejaVuSans-54"/>
       <use x="63.623047" xlink:href="#DejaVuSans-48"/>
       <use x="127.246094" xlink:href="#DejaVuSans-48"/>
       <use x="190.869141" xlink:href="#DejaVuSans-48"/>
       <use x="254.492188" xlink:href="#DejaVuSans-48"/>
      </g>
     </g>
    </g>
    <g id="xtick_5">
     <g id="line2d_9">
      <path clip-path="url(#p9513b9371d)" d="M 420.756651 330.75 
L 420.756651 45.36 
" style="fill:none;stroke:#b0b0b0;stroke-linecap:square;stroke-width:0.8;"/>
     </g>
     <g id="line2d_10">
      <g>
       <use style="stroke:#000000;stroke-width:0.8;" x="420.756651" xlink:href="#m84dd67b719" y="330.75"/>
      </g>
     </g>
     <g id="text_5">
      <!-- 80000 -->
      <defs>
       <path d="M 31.78125 34.625 
Q 24.75 34.625 20.71875 30.859375 
Q 16.703125 27.09375 16.703125 20.515625 
Q 16.703125 13.921875 20.71875 10.15625 
Q 24.75 6.390625 31.78125 6.390625 
Q 38.8125 6.390625 42.859375 10.171875 
Q 46.921875 13.96875 46.921875 20.515625 
Q 46.921875 27.09375 42.890625 30.859375 
Q 38.875 34.625 31.78125 34.625 
z
M 21.921875 38.8125 
Q 15.578125 40.375 12.03125 44.71875 
Q 8.5 49.078125 8.5 55.328125 
Q 8.5 64.0625 14.71875 69.140625 
Q 20.953125 74.21875 31.78125 74.21875 
Q 42.671875 74.21875 48.875 69.140625 
Q 55.078125 64.0625 55.078125 55.328125 
Q 55.078125 49.078125 51.53125 44.71875 
Q 48 40.375 41.703125 38.8125 
Q 48.828125 37.15625 52.796875 32.3125 
Q 56.78125 27.484375 56.78125 20.515625 
Q 56.78125 9.90625 50.3125 4.234375 
Q 43.84375 -1.421875 31.78125 -1.421875 
Q 19.734375 -1.421875 13.25 4.234375 
Q 6.78125 9.90625 6.78125 20.515625 
Q 6.78125 27.484375 10.78125 32.3125 
Q 14.796875 37.15625 21.921875 38.8125 
z
M 18.3125 54.390625 
Q 18.3125 48.734375 21.84375 45.5625 
Q 25.390625 42.390625 31.78125 42.390625 
Q 38.140625 42.390625 41.71875 45.5625 
Q 45.3125 48.734375 45.3125 54.390625 
Q 45.3125 60.0625 41.71875 63.234375 
Q 38.140625 66.40625 31.78125 66.40625 
Q 25.390625 66.40625 21.84375 63.234375 
Q 18.3125 60.0625 18.3125 54.390625 
z
" id="DejaVuSans-56"/>
      </defs>
      <g transform="translate(404.850401 345.348437)scale(0.1 -0.1)">
       <use xlink:href="#DejaVuSans-56"/>
       <use x="63.623047" xlink:href="#DejaVuSans-48"/>
       <use x="127.246094" xlink:href="#DejaVuSans-48"/>
       <use x="190.869141" xlink:href="#DejaVuSans-48"/>
       <use x="254.492188" xlink:href="#DejaVuSans-48"/>
      </g>
     </g>
    </g>
    <g id="text_6">
     <!-- CPU time (ms) -->
     <defs>
      <path d="M 64.40625 67.28125 
L 64.40625 56.890625 
Q 59.421875 61.53125 53.78125 63.8125 
Q 48.140625 66.109375 41.796875 66.109375 
Q 29.296875 66.109375 22.65625 58.46875 
Q 16.015625 50.828125 16.015625 36.375 
Q 16.015625 21.96875 22.65625 14.328125 
Q 29.296875 6.6875 41.796875 6.6875 
Q 48.140625 6.6875 53.78125 8.984375 
Q 59.421875 11.28125 64.40625 15.921875 
L 64.40625 5.609375 
Q 59.234375 2.09375 53.4375 0.328125 
Q 47.65625 -1.421875 41.21875 -1.421875 
Q 24.65625 -1.421875 15.125 8.703125 
Q 5.609375 18.84375 5.609375 36.375 
Q 5.609375 53.953125 15.125 64.078125 
Q 24.65625 74.21875 41.21875 74.21875 
Q 47.75 74.21875 53.53125 72.484375 
Q 59.328125 70.75 64.40625 67.28125 
z
" id="DejaVuSans-67"/>
      <path d="M 19.671875 64.796875 
L 19.671875 37.40625 
L 32.078125 37.40625 
Q 38.96875 37.40625 42.71875 40.96875 
Q 46.484375 44.53125 46.484375 51.125 
Q 46.484375 57.671875 42.71875 61.234375 
Q 38.96875 64.796875 32.078125 64.796875 
z
M 9.8125 72.90625 
L 32.078125 72.90625 
Q 44.34375 72.90625 50.609375 67.359375 
Q 56.890625 61.8125 56.890625 51.125 
Q 56.890625 40.328125 50.609375 34.8125 
Q 44.34375 29.296875 32.078125 29.296875 
L 19.671875 29.296875 
L 19.671875 0 
L 9.8125 0 
z
" id="DejaVuSans-80"/>
      <path d="M 8.6875 72.90625 
L 18.609375 72.90625 
L 18.609375 28.609375 
Q 18.609375 16.890625 22.84375 11.734375 
Q 27.09375 6.59375 36.625 6.59375 
Q 46.09375 6.59375 50.34375 11.734375 
Q 54.59375 16.890625 54.59375 28.609375 
L 54.59375 72.90625 
L 64.5 72.90625 
L 64.5 27.390625 
Q 64.5 13.140625 57.4375 5.859375 
Q 50.390625 -1.421875 36.625 -1.421875 
Q 22.796875 -1.421875 15.734375 5.859375 
Q 8.6875 13.140625 8.6875 27.390625 
z
" id="DejaVuSans-85"/>
      <path id="DejaVuSans-32"/>
      <path d="M 18.3125 70.21875 
L 18.3125 54.6875 
L 36.8125 54.6875 
L 36.8125 47.703125 
L 18.3125 47.703125 
L 18.3125 18.015625 
Q 18.3125 11.328125 20.140625 9.421875 
Q 21.96875 7.515625 27.59375 7.515625 
L 36.8125 7.515625 
L 36.8125 0 
L 27.59375 0 
Q 17.1875 0 13.234375 3.875 
Q 9.28125 7.765625 9.28125 18.015625 
L 9.28125 47.703125 
L 2.6875 47.703125 
L 2.6875 54.6875 
L 9.28125 54.6875 
L 9.28125 70.21875 
z
" id="DejaVuSans-116"/>
      <path d="M 9.421875 54.6875 
L 18.40625 54.6875 
L 18.40625 0 
L 9.421875 0 
z
M 9.421875 75.984375 
L 18.40625 75.984375 
L 18.40625 64.59375 
L 9.421875 64.59375 
z
" id="DejaVuSans-105"/>
      <path d="M 52 44.1875 
Q 55.375 50.25 60.0625 53.125 
Q 64.75 56 71.09375 56 
Q 79.640625 56 84.28125 50.015625 
Q 88.921875 44.046875 88.921875 33.015625 
L 88.921875 0 
L 79.890625 0 
L 79.890625 32.71875 
Q 79.890625 40.578125 77.09375 44.375 
Q 74.3125 48.1875 68.609375 48.1875 
Q 61.625 48.1875 57.5625 43.546875 
Q 53.515625 38.921875 53.515625 30.90625 
L 53.515625 0 
L 44.484375 0 
L 44.484375 32.71875 
Q 44.484375 40.625 41.703125 44.40625 
Q 38.921875 48.1875 33.109375 48.1875 
Q 26.21875 48.1875 22.15625 43.53125 
Q 18.109375 38.875 18.109375 30.90625 
L 18.109375 0 
L 9.078125 0 
L 9.078125 54.6875 
L 18.109375 54.6875 
L 18.109375 46.1875 
Q 21.1875 51.21875 25.484375 53.609375 
Q 29.78125 56 35.6875 56 
Q 41.65625 56 45.828125 52.96875 
Q 50 49.953125 52 44.1875 
z
" id="DejaVuSans-109"/>
      <path d="M 56.203125 29.59375 
L 56.203125 25.203125 
L 14.890625 25.203125 
Q 15.484375 15.921875 20.484375 11.0625 
Q 25.484375 6.203125 34.421875 6.203125 
Q 39.59375 6.203125 44.453125 7.46875 
Q 49.3125 8.734375 54.109375 11.28125 
L 54.109375 2.78125 
Q 49.265625 0.734375 44.1875 -0.34375 
Q 39.109375 -1.421875 33.890625 -1.421875 
Q 20.796875 -1.421875 13.15625 6.1875 
Q 5.515625 13.8125 5.515625 26.8125 
Q 5.515625 40.234375 12.765625 48.109375 
Q 20.015625 56 32.328125 56 
Q 43.359375 56 49.78125 48.890625 
Q 56.203125 41.796875 56.203125 29.59375 
z
M 47.21875 32.234375 
Q 47.125 39.59375 43.09375 43.984375 
Q 39.0625 48.390625 32.421875 48.390625 
Q 24.90625 48.390625 20.390625 44.140625 
Q 15.875 39.890625 15.1875 32.171875 
z
" id="DejaVuSans-101"/>
      <path d="M 31 75.875 
Q 24.46875 64.65625 21.28125 53.65625 
Q 18.109375 42.671875 18.109375 31.390625 
Q 18.109375 20.125 21.3125 9.0625 
Q 24.515625 -2 31 -13.1875 
L 23.1875 -13.1875 
Q 15.875 -1.703125 12.234375 9.375 
Q 8.59375 20.453125 8.59375 31.390625 
Q 8.59375 42.28125 12.203125 53.3125 
Q 15.828125 64.359375 23.1875 75.875 
z
" id="DejaVuSans-40"/>
      <path d="M 44.28125 53.078125 
L 44.28125 44.578125 
Q 40.484375 46.53125 36.375 47.5 
Q 32.28125 48.484375 27.875 48.484375 
Q 21.1875 48.484375 17.84375 46.4375 
Q 14.5 44.390625 14.5 40.28125 
Q 14.5 37.15625 16.890625 35.375 
Q 19.28125 33.59375 26.515625 31.984375 
L 29.59375 31.296875 
Q 39.15625 29.25 43.1875 25.515625 
Q 47.21875 21.78125 47.21875 15.09375 
Q 47.21875 7.46875 41.1875 3.015625 
Q 35.15625 -1.421875 24.609375 -1.421875 
Q 20.21875 -1.421875 15.453125 -0.5625 
Q 10.6875 0.296875 5.421875 2 
L 5.421875 11.28125 
Q 10.40625 8.6875 15.234375 7.390625 
Q 20.0625 6.109375 24.8125 6.109375 
Q 31.15625 6.109375 34.5625 8.28125 
Q 37.984375 10.453125 37.984375 14.40625 
Q 37.984375 18.0625 35.515625 20.015625 
Q 33.0625 21.96875 24.703125 23.78125 
L 21.578125 24.515625 
Q 13.234375 26.265625 9.515625 29.90625 
Q 5.8125 33.546875 5.8125 39.890625 
Q 5.8125 47.609375 11.28125 51.796875 
Q 16.75 56 26.8125 56 
Q 31.78125 56 36.171875 55.265625 
Q 40.578125 54.546875 44.28125 53.078125 
z
" id="DejaVuSans-115"/>
      <path d="M 8.015625 75.875 
L 15.828125 75.875 
Q 23.140625 64.359375 26.78125 53.3125 
Q 30.421875 42.28125 30.421875 31.390625 
Q 30.421875 20.453125 26.78125 9.375 
Q 23.140625 -1.703125 15.828125 -13.1875 
L 8.015625 -13.1875 
Q 14.5 -2 17.703125 9.0625 
Q 20.90625 20.125 20.90625 31.390625 
Q 20.90625 42.671875 17.703125 53.65625 
Q 14.5 64.65625 8.015625 75.875 
z
" id="DejaVuSans-41"/>
     </defs>
     <g transform="translate(247.936875 357.506875)scale(0.08 -0.08)">
      <use xlink:href="#DejaVuSans-67"/>
      <use x="69.824219" xlink:href="#DejaVuSans-80"/>
      <use x="130.126953" xlink:href="#DejaVuSans-85"/>
      <use x="203.320312" xlink:href="#DejaVuSans-32"/>
      <use x="235.107422" xlink:href="#DejaVuSans-116"/>
      <use x="274.316406" xlink:href="#DejaVuSans-105"/>
      <use x="302.099609" xlink:href="#DejaVuSans-109"/>
      <use x="399.511719" xlink:href="#DejaVuSans-101"/>
      <use x="461.035156" xlink:href="#DejaVuSans-32"/>
      <use x="492.822266" xlink:href="#DejaVuSans-40"/>
      <use x="531.835938" xlink:href="#DejaVuSans-109"/>
      <use x="629.248047" xlink:href="#DejaVuSans-115"/>
      <use x="681.347656" xlink:href="#DejaVuSans-41"/>
     </g>
    </g>
   </g>
   <g id="matplotlib.axis_2">
    <g id="ytick_1">
     <g id="line2d_11">
      <path clip-path="url(#p9513b9371d)" d="M 67.5 298.122769 
L 486 298.122769 
" style="fill:none;stroke:#b0b0b0;stroke-linecap:square;stroke-width:0.8;"/>
     </g>
     <g id="line2d_12">
      <defs>
       <path d="M 0 0 
L -3.5 0 
" id="mecad9a1be4" style="stroke:#000000;stroke-width:0.8;"/>
      </defs>
      <g>
       <use style="stroke:#000000;stroke-width:0.8;" x="67.5" xlink:href="#mecad9a1be4" y="298.122769"/>
      </g>
     </g>
     <g id="text_7">
      <!-- 0.0025 -->
      <defs>
       <path d="M 10.6875 12.40625 
L 21 12.40625 
L 21 0 
L 10.6875 0 
z
" id="DejaVuSans-46"/>
       <path d="M 10.796875 72.90625 
L 49.515625 72.90625 
L 49.515625 64.59375 
L 19.828125 64.59375 
L 19.828125 46.734375 
Q 21.96875 47.46875 24.109375 47.828125 
Q 26.265625 48.1875 28.421875 48.1875 
Q 40.625 48.1875 47.75 41.5 
Q 54.890625 34.8125 54.890625 23.390625 
Q 54.890625 11.625 47.5625 5.09375 
Q 40.234375 -1.421875 26.90625 -1.421875 
Q 22.3125 -1.421875 17.546875 -0.640625 
Q 12.796875 0.140625 7.71875 1.703125 
L 7.71875 11.625 
Q 12.109375 9.234375 16.796875 8.0625 
Q 21.484375 6.890625 26.703125 6.890625 
Q 35.15625 6.890625 40.078125 11.328125 
Q 45.015625 15.765625 45.015625 23.390625 
Q 45.015625 31 40.078125 35.4375 
Q 35.15625 39.890625 26.703125 39.890625 
Q 22.75 39.890625 18.8125 39.015625 
Q 14.890625 38.140625 10.796875 36.28125 
z
" id="DejaVuSans-53"/>
      </defs>
      <g transform="translate(25.509375 301.921987)scale(0.1 -0.1)">
       <use xlink:href="#DejaVuSans-48"/>
       <use x="63.623047" xlink:href="#DejaVuSans-46"/>
       <use x="95.410156" xlink:href="#DejaVuSans-48"/>
       <use x="159.033203" xlink:href="#DejaVuSans-48"/>
       <use x="222.65625" xlink:href="#DejaVuSans-50"/>
       <use x="286.279297" xlink:href="#DejaVuSans-53"/>
      </g>
     </g>
    </g>
    <g id="ytick_2">
     <g id="line2d_13">
      <path clip-path="url(#p9513b9371d)" d="M 67.5 265.364504 
L 486 265.364504 
" style="fill:none;stroke:#b0b0b0;stroke-linecap:square;stroke-width:0.8;"/>
     </g>
     <g id="line2d_14">
      <g>
       <use style="stroke:#000000;stroke-width:0.8;" x="67.5" xlink:href="#mecad9a1be4" y="265.364504"/>
      </g>
     </g>
     <g id="text_8">
      <!-- 0.0050 -->
      <g transform="translate(25.509375 269.163723)scale(0.1 -0.1)">
       <use xlink:href="#DejaVuSans-48"/>
       <use x="63.623047" xlink:href="#DejaVuSans-46"/>
       <use x="95.410156" xlink:href="#DejaVuSans-48"/>
       <use x="159.033203" xlink:href="#DejaVuSans-48"/>
       <use x="222.65625" xlink:href="#DejaVuSans-53"/>
       <use x="286.279297" xlink:href="#DejaVuSans-48"/>
      </g>
     </g>
    </g>
    <g id="ytick_3">
     <g id="line2d_15">
      <path clip-path="url(#p9513b9371d)" d="M 67.5 232.60624 
L 486 232.60624 
" style="fill:none;stroke:#b0b0b0;stroke-linecap:square;stroke-width:0.8;"/>
     </g>
     <g id="line2d_16">
      <g>
       <use style="stroke:#000000;stroke-width:0.8;" x="67.5" xlink:href="#mecad9a1be4" y="232.60624"/>
      </g>
     </g>
     <g id="text_9">
      <!-- 0.0075 -->
      <defs>
       <path d="M 8.203125 72.90625 
L 55.078125 72.90625 
L 55.078125 68.703125 
L 28.609375 0 
L 18.3125 0 
L 43.21875 64.59375 
L 8.203125 64.59375 
z
" id="DejaVuSans-55"/>
      </defs>
      <g transform="translate(25.509375 236.405458)scale(0.1 -0.1)">
       <use xlink:href="#DejaVuSans-48"/>
       <use x="63.623047" xlink:href="#DejaVuSans-46"/>
       <use x="95.410156" xlink:href="#DejaVuSans-48"/>
       <use x="159.033203" xlink:href="#DejaVuSans-48"/>
       <use x="222.65625" xlink:href="#DejaVuSans-55"/>
       <use x="286.279297" xlink:href="#DejaVuSans-53"/>
      </g>
     </g>
    </g>
    <g id="ytick_4">
     <g id="line2d_17">
      <path clip-path="url(#p9513b9371d)" d="M 67.5 199.847975 
L 486 199.847975 
" style="fill:none;stroke:#b0b0b0;stroke-linecap:square;stroke-width:0.8;"/>
     </g>
     <g id="line2d_18">
      <g>
       <use style="stroke:#000000;stroke-width:0.8;" x="67.5" xlink:href="#mecad9a1be4" y="199.847975"/>
      </g>
     </g>
     <g id="text_10">
      <!-- 0.0100 -->
      <defs>
       <path d="M 12.40625 8.296875 
L 28.515625 8.296875 
L 28.515625 63.921875 
L 10.984375 60.40625 
L 10.984375 69.390625 
L 28.421875 72.90625 
L 38.28125 72.90625 
L 38.28125 8.296875 
L 54.390625 8.296875 
L 54.390625 0 
L 12.40625 0 
z
" id="DejaVuSans-49"/>
      </defs>
      <g transform="translate(25.509375 203.647194)scale(0.1 -0.1)">
       <use xlink:href="#DejaVuSans-48"/>
       <use x="63.623047" xlink:href="#DejaVuSans-46"/>
       <use x="95.410156" xlink:href="#DejaVuSans-48"/>
       <use x="159.033203" xlink:href="#DejaVuSans-49"/>
       <use x="222.65625" xlink:href="#DejaVuSans-48"/>
       <use x="286.279297" xlink:href="#DejaVuSans-48"/>
      </g>
     </g>
    </g>
    <g id="ytick_5">
     <g id="line2d_19">
      <path clip-path="url(#p9513b9371d)" d="M 67.5 167.089711 
L 486 167.089711 
" style="fill:none;stroke:#b0b0b0;stroke-linecap:square;stroke-width:0.8;"/>
     </g>
     <g id="line2d_20">
      <g>
       <use style="stroke:#000000;stroke-width:0.8;" x="67.5" xlink:href="#mecad9a1be4" y="167.089711"/>
      </g>
     </g>
     <g id="text_11">
      <!-- 0.0125 -->
      <g transform="translate(25.509375 170.888929)scale(0.1 -0.1)">
       <use xlink:href="#DejaVuSans-48"/>
       <use x="63.623047" xlink:href="#DejaVuSans-46"/>
       <use x="95.410156" xlink:href="#DejaVuSans-48"/>
       <use x="159.033203" xlink:href="#DejaVuSans-49"/>
       <use x="222.65625" xlink:href="#DejaVuSans-50"/>
       <use x="286.279297" xlink:href="#DejaVuSans-53"/>
      </g>
     </g>
    </g>
    <g id="ytick_6">
     <g id="line2d_21">
      <path clip-path="url(#p9513b9371d)" d="M 67.5 134.331446 
L 486 134.331446 
" style="fill:none;stroke:#b0b0b0;stroke-linecap:square;stroke-width:0.8;"/>
     </g>
     <g id="line2d_22">
      <g>
       <use style="stroke:#000000;stroke-width:0.8;" x="67.5" xlink:href="#mecad9a1be4" y="134.331446"/>
      </g>
     </g>
     <g id="text_12">
      <!-- 0.0150 -->
      <g transform="translate(25.509375 138.130665)scale(0.1 -0.1)">
       <use xlink:href="#DejaVuSans-48"/>
       <use x="63.623047" xlink:href="#DejaVuSans-46"/>
       <use x="95.410156" xlink:href="#DejaVuSans-48"/>
       <use x="159.033203" xlink:href="#DejaVuSans-49"/>
       <use x="222.65625" xlink:href="#DejaVuSans-53"/>
       <use x="286.279297" xlink:href="#DejaVuSans-48"/>
      </g>
     </g>
    </g>
    <g id="ytick_7">
     <g id="line2d_23">
      <path clip-path="url(#p9513b9371d)" d="M 67.5 101.573182 
L 486 101.573182 
" style="fill:none;stroke:#b0b0b0;stroke-linecap:square;stroke-width:0.8;"/>
     </g>
     <g id="line2d_24">
      <g>
       <use style="stroke:#000000;stroke-width:0.8;" x="67.5" xlink:href="#mecad9a1be4" y="101.573182"/>
      </g>
     </g>
     <g id="text_13">
      <!-- 0.0175 -->
      <g transform="translate(25.509375 105.372401)scale(0.1 -0.1)">
       <use xlink:href="#DejaVuSans-48"/>
       <use x="63.623047" xlink:href="#DejaVuSans-46"/>
       <use x="95.410156" xlink:href="#DejaVuSans-48"/>
       <use x="159.033203" xlink:href="#DejaVuSans-49"/>
       <use x="222.65625" xlink:href="#DejaVuSans-55"/>
       <use x="286.279297" xlink:href="#DejaVuSans-53"/>
      </g>
     </g>
    </g>
    <g id="ytick_8">
     <g id="line2d_25">
      <path clip-path="url(#p9513b9371d)" d="M 67.5 68.814917 
L 486 68.814917 
" style="fill:none;stroke:#b0b0b0;stroke-linecap:square;stroke-width:0.8;"/>
     </g>
     <g id="line2d_26">
      <g>
       <use style="stroke:#000000;stroke-width:0.8;" x="67.5" xlink:href="#mecad9a1be4" y="68.814917"/>
      </g>
     </g>
     <g id="text_14">
      <!-- 0.0200 -->
      <g transform="translate(25.509375 72.614136)scale(0.1 -0.1)">
       <use xlink:href="#DejaVuSans-48"/>
       <use x="63.623047" xlink:href="#DejaVuSans-46"/>
       <use x="95.410156" xlink:href="#DejaVuSans-48"/>
       <use x="159.033203" xlink:href="#DejaVuSans-50"/>
       <use x="222.65625" xlink:href="#DejaVuSans-48"/>
       <use x="286.279297" xlink:href="#DejaVuSans-48"/>
      </g>
     </g>
    </g>
    <g id="text_15">
     <!-- MAE -->
     <defs>
      <path d="M 9.8125 72.90625 
L 24.515625 72.90625 
L 43.109375 23.296875 
L 61.8125 72.90625 
L 76.515625 72.90625 
L 76.515625 0 
L 66.890625 0 
L 66.890625 64.015625 
L 48.09375 14.015625 
L 38.1875 14.015625 
L 19.390625 64.015625 
L 19.390625 0 
L 9.8125 0 
z
" id="DejaVuSans-77"/>
      <path d="M 34.1875 63.1875 
L 20.796875 26.90625 
L 47.609375 26.90625 
z
M 28.609375 72.90625 
L 39.796875 72.90625 
L 67.578125 0 
L 57.328125 0 
L 50.6875 18.703125 
L 17.828125 18.703125 
L 11.1875 0 
L 0.78125 0 
z
" id="DejaVuSans-65"/>
      <path d="M 9.8125 72.90625 
L 55.90625 72.90625 
L 55.90625 64.59375 
L 19.671875 64.59375 
L 19.671875 43.015625 
L 54.390625 43.015625 
L 54.390625 34.71875 
L 19.671875 34.71875 
L 19.671875 8.296875 
L 56.78125 8.296875 
L 56.78125 0 
L 9.8125 0 
z
" id="DejaVuSans-69"/>
     </defs>
     <g transform="translate(19.845625 196.77)rotate(-90)scale(0.08 -0.08)">
      <use xlink:href="#DejaVuSans-77"/>
      <use x="86.279297" xlink:href="#DejaVuSans-65"/>
      <use x="154.6875" xlink:href="#DejaVuSans-69"/>
     </g>
    </g>
   </g>
   <g id="text_16">
    <!-- 2D Mixture -->
    <defs>
     <path d="M 19.671875 64.796875 
L 19.671875 8.109375 
L 31.59375 8.109375 
Q 46.6875 8.109375 53.6875 14.9375 
Q 60.6875 21.78125 60.6875 36.53125 
Q 60.6875 51.171875 53.6875 57.984375 
Q 46.6875 64.796875 31.59375 64.796875 
z
M 9.8125 72.90625 
L 30.078125 72.90625 
Q 51.265625 72.90625 61.171875 64.09375 
Q 71.09375 55.28125 71.09375 36.53125 
Q 71.09375 17.671875 61.125 8.828125 
Q 51.171875 0 30.078125 0 
L 9.8125 0 
z
" id="DejaVuSans-68"/>
     <path d="M 54.890625 54.6875 
L 35.109375 28.078125 
L 55.90625 0 
L 45.3125 0 
L 29.390625 21.484375 
L 13.484375 0 
L 2.875 0 
L 24.125 28.609375 
L 4.6875 54.6875 
L 15.28125 54.6875 
L 29.78125 35.203125 
L 44.28125 54.6875 
z
" id="DejaVuSans-120"/>
     <path d="M 8.5 21.578125 
L 8.5 54.6875 
L 17.484375 54.6875 
L 17.484375 21.921875 
Q 17.484375 14.15625 20.5 10.265625 
Q 23.53125 6.390625 29.59375 6.390625 
Q 36.859375 6.390625 41.078125 11.03125 
Q 45.3125 15.671875 45.3125 23.6875 
L 45.3125 54.6875 
L 54.296875 54.6875 
L 54.296875 0 
L 45.3125 0 
L 45.3125 8.40625 
Q 42.046875 3.421875 37.71875 1 
Q 33.40625 -1.421875 27.6875 -1.421875 
Q 18.265625 -1.421875 13.375 4.4375 
Q 8.5 10.296875 8.5 21.578125 
z
M 31.109375 56 
z
" id="DejaVuSans-117"/>
     <path d="M 41.109375 46.296875 
Q 39.59375 47.171875 37.8125 47.578125 
Q 36.03125 48 33.890625 48 
Q 26.265625 48 22.1875 43.046875 
Q 18.109375 38.09375 18.109375 28.8125 
L 18.109375 0 
L 9.078125 0 
L 9.078125 54.6875 
L 18.109375 54.6875 
L 18.109375 46.1875 
Q 20.953125 51.171875 25.484375 53.578125 
Q 30.03125 56 36.53125 56 
Q 37.453125 56 38.578125 55.875 
Q 39.703125 55.765625 41.0625 55.515625 
z
" id="DejaVuSans-114"/>
    </defs>
    <g transform="translate(243.8325 39.36)scale(0.12 -0.12)">
     <use xlink:href="#DejaVuSans-50"/>
     <use x="63.623047" xlink:href="#DejaVuSans-68"/>
     <use x="140.625" xlink:href="#DejaVuSans-32"/>
     <use x="172.412109" xlink:href="#DejaVuSans-77"/>
     <use x="258.691406" xlink:href="#DejaVuSans-105"/>
     <use x="286.474609" xlink:href="#DejaVuSans-120"/>
     <use x="345.654297" xlink:href="#DejaVuSans-116"/>
     <use x="384.863281" xlink:href="#DejaVuSans-117"/>
     <use x="448.242188" xlink:href="#DejaVuSans-114"/>
     <use x="487.105469" xlink:href="#DejaVuSans-101"/>
    </g>
   </g>
   <g id="legend_1">
    <g id="patch_3">
     <path d="M 357.628125 246.67875 
L 479 246.67875 
Q 481 246.67875 481 244.67875 
L 481 52.36 
Q 481 50.36 479 50.36 
L 357.628125 50.36 
Q 355.628125 50.36 355.628125 52.36 
L 355.628125 244.67875 
Q 355.628125 246.67875 357.628125 246.67875 
z
" style="fill:#ffffff;opacity:0.8;stroke:#cccccc;stroke-linejoin:miter;"/>
    </g>
    <g id="PathCollection_14">
     <path d="M 369.628125 66.404505 
C 371.503394 66.404505 373.30211 65.659453 374.628125 64.333438 
C 375.95414 63.007422 376.699193 61.208707 376.699193 59.333438 
C 376.699193 57.458168 375.95414 55.659453 374.628125 54.333438 
C 373.30211 53.007422 371.503394 52.26237 369.628125 52.26237 
C 367.752856 52.26237 365.95414 53.007422 364.628125 54.333438 
C 363.30211 55.659453 362.557057 57.458168 362.557057 59.333438 
C 362.557057 61.208707 363.30211 63.007422 364.628125 64.333438 
C 365.95414 65.659453 367.752856 66.404505 369.628125 66.404505 
z
" style="fill:#1f77b4;"/>
    </g>
    <g id="text_17">
     <!-- raw_kde -->
     <defs>
      <path d="M 34.28125 27.484375 
Q 23.390625 27.484375 19.1875 25 
Q 14.984375 22.515625 14.984375 16.5 
Q 14.984375 11.71875 18.140625 8.90625 
Q 21.296875 6.109375 26.703125 6.109375 
Q 34.1875 6.109375 38.703125 11.40625 
Q 43.21875 16.703125 43.21875 25.484375 
L 43.21875 27.484375 
z
M 52.203125 31.203125 
L 52.203125 0 
L 43.21875 0 
L 43.21875 8.296875 
Q 40.140625 3.328125 35.546875 0.953125 
Q 30.953125 -1.421875 24.3125 -1.421875 
Q 15.921875 -1.421875 10.953125 3.296875 
Q 6 8.015625 6 15.921875 
Q 6 25.140625 12.171875 29.828125 
Q 18.359375 34.515625 30.609375 34.515625 
L 43.21875 34.515625 
L 43.21875 35.40625 
Q 43.21875 41.609375 39.140625 45 
Q 35.0625 48.390625 27.6875 48.390625 
Q 23 48.390625 18.546875 47.265625 
Q 14.109375 46.140625 10.015625 43.890625 
L 10.015625 52.203125 
Q 14.9375 54.109375 19.578125 55.046875 
Q 24.21875 56 28.609375 56 
Q 40.484375 56 46.34375 49.84375 
Q 52.203125 43.703125 52.203125 31.203125 
z
" id="DejaVuSans-97"/>
      <path d="M 4.203125 54.6875 
L 13.1875 54.6875 
L 24.421875 12.015625 
L 35.59375 54.6875 
L 46.1875 54.6875 
L 57.421875 12.015625 
L 68.609375 54.6875 
L 77.59375 54.6875 
L 63.28125 0 
L 52.6875 0 
L 40.921875 44.828125 
L 29.109375 0 
L 18.5 0 
z
" id="DejaVuSans-119"/>
      <path d="M 50.984375 -16.609375 
L 50.984375 -23.578125 
L -0.984375 -23.578125 
L -0.984375 -16.609375 
z
" id="DejaVuSans-95"/>
      <path d="M 9.078125 75.984375 
L 18.109375 75.984375 
L 18.109375 31.109375 
L 44.921875 54.6875 
L 56.390625 54.6875 
L 27.390625 29.109375 
L 57.625 0 
L 45.90625 0 
L 18.109375 26.703125 
L 18.109375 0 
L 9.078125 0 
z
" id="DejaVuSans-107"/>
      <path d="M 45.40625 46.390625 
L 45.40625 75.984375 
L 54.390625 75.984375 
L 54.390625 0 
L 45.40625 0 
L 45.40625 8.203125 
Q 42.578125 3.328125 38.25 0.953125 
Q 33.9375 -1.421875 27.875 -1.421875 
Q 17.96875 -1.421875 11.734375 6.484375 
Q 5.515625 14.40625 5.515625 27.296875 
Q 5.515625 40.1875 11.734375 48.09375 
Q 17.96875 56 27.875 56 
Q 33.9375 56 38.25 53.625 
Q 42.578125 51.265625 45.40625 46.390625 
z
M 14.796875 27.296875 
Q 14.796875 17.390625 18.875 11.75 
Q 22.953125 6.109375 30.078125 6.109375 
Q 37.203125 6.109375 41.296875 11.75 
Q 45.40625 17.390625 45.40625 27.296875 
Q 45.40625 37.203125 41.296875 42.84375 
Q 37.203125 48.484375 30.078125 48.484375 
Q 22.953125 48.484375 18.875 42.84375 
Q 14.796875 37.203125 14.796875 27.296875 
z
" id="DejaVuSans-100"/>
     </defs>
     <g transform="translate(387.628125 61.958438)scale(0.1 -0.1)">
      <use xlink:href="#DejaVuSans-114"/>
      <use x="41.113281" xlink:href="#DejaVuSans-97"/>
      <use x="102.392578" xlink:href="#DejaVuSans-119"/>
      <use x="184.179688" xlink:href="#DejaVuSans-95"/>
      <use x="234.179688" xlink:href="#DejaVuSans-107"/>
      <use x="292.089844" xlink:href="#DejaVuSans-100"/>
      <use x="355.566406" xlink:href="#DejaVuSans-101"/>
     </g>
    </g>
    <g id="PathCollection_15">
     <path d="M 369.628125 81.360755 
C 371.503394 81.360755 373.30211 80.615703 374.628125 79.289688 
C 375.95414 77.963672 376.699193 76.164957 376.699193 74.289688 
C 376.699193 72.414418 375.95414 70.615703 374.628125 69.289688 
C 373.30211 67.963672 371.503394 67.21862 369.628125 67.21862 
C 367.752856 67.21862 365.95414 67.963672 364.628125 69.289688 
C 363.30211 70.615703 362.557057 72.414418 362.557057 74.289688 
C 362.557057 76.164957 363.30211 77.963672 364.628125 79.289688 
C 365.95414 80.615703 367.752856 81.360755 369.628125 81.360755 
z
" style="fill:#ff7f0e;"/>
    </g>
    <g id="text_18">
     <!-- NaiveKDE -->
     <defs>
      <path d="M 9.8125 72.90625 
L 23.09375 72.90625 
L 55.421875 11.921875 
L 55.421875 72.90625 
L 64.984375 72.90625 
L 64.984375 0 
L 51.703125 0 
L 19.390625 60.984375 
L 19.390625 0 
L 9.8125 0 
z
" id="DejaVuSans-78"/>
      <path d="M 2.984375 54.6875 
L 12.5 54.6875 
L 29.59375 8.796875 
L 46.6875 54.6875 
L 56.203125 54.6875 
L 35.6875 0 
L 23.484375 0 
z
" id="DejaVuSans-118"/>
      <path d="M 9.8125 72.90625 
L 19.671875 72.90625 
L 19.671875 42.09375 
L 52.390625 72.90625 
L 65.09375 72.90625 
L 28.90625 38.921875 
L 67.671875 0 
L 54.6875 0 
L 19.671875 35.109375 
L 19.671875 0 
L 9.8125 0 
z
" id="DejaVuSans-75"/>
     </defs>
     <g transform="translate(387.628125 76.914688)scale(0.1 -0.1)">
      <use xlink:href="#DejaVuSans-78"/>
      <use x="74.804688" xlink:href="#DejaVuSans-97"/>
      <use x="136.083984" xlink:href="#DejaVuSans-105"/>
      <use x="163.867188" xlink:href="#DejaVuSans-118"/>
      <use x="223.046875" xlink:href="#DejaVuSans-101"/>
      <use x="284.570312" xlink:href="#DejaVuSans-75"/>
      <use x="350.146484" xlink:href="#DejaVuSans-68"/>
      <use x="427.148438" xlink:href="#DejaVuSans-69"/>
     </g>
    </g>
    <g id="PathCollection_16">
     <path d="M 369.628125 96.03888 
C 371.503394 96.03888 373.30211 95.293828 374.628125 93.967813 
C 375.95414 92.641797 376.699193 90.843082 376.699193 88.967813 
C 376.699193 87.092543 375.95414 85.293828 374.628125 83.967813 
C 373.30211 82.641797 371.503394 81.896745 369.628125 81.896745 
C 367.752856 81.896745 365.95414 82.641797 364.628125 83.967813 
C 363.30211 85.293828 362.557057 87.092543 362.557057 88.967813 
C 362.557057 90.843082 363.30211 92.641797 364.628125 93.967813 
C 365.95414 95.293828 367.752856 96.03888 369.628125 96.03888 
z
" style="fill:#2ca02c;"/>
    </g>
    <g id="text_19">
     <!-- TreeKDE -->
     <defs>
      <path d="M -0.296875 72.90625 
L 61.375 72.90625 
L 61.375 64.59375 
L 35.5 64.59375 
L 35.5 0 
L 25.59375 0 
L 25.59375 64.59375 
L -0.296875 64.59375 
z
" id="DejaVuSans-84"/>
     </defs>
     <g transform="translate(387.628125 91.592813)scale(0.1 -0.1)">
      <use xlink:href="#DejaVuSans-84"/>
      <use x="46.333984" xlink:href="#DejaVuSans-114"/>
      <use x="85.197266" xlink:href="#DejaVuSans-101"/>
      <use x="146.720703" xlink:href="#DejaVuSans-101"/>
      <use x="208.244141" xlink:href="#DejaVuSans-75"/>
      <use x="273.820312" xlink:href="#DejaVuSans-68"/>
      <use x="350.822266" xlink:href="#DejaVuSans-69"/>
     </g>
    </g>
    <g id="PathCollection_17">
     <path d="M 369.628125 110.717005 
C 371.503394 110.717005 373.30211 109.971953 374.628125 108.645938 
C 375.95414 107.319922 376.699193 105.521207 376.699193 103.645938 
C 376.699193 101.770668 375.95414 99.971953 374.628125 98.645938 
C 373.30211 97.319922 371.503394 96.57487 369.628125 96.57487 
C 367.752856 96.57487 365.95414 97.319922 364.628125 98.645938 
C 363.30211 99.971953 362.557057 101.770668 362.557057 103.645938 
C 362.557057 105.521207 363.30211 107.319922 364.628125 108.645938 
C 365.95414 109.971953 367.752856 110.717005 369.628125 110.717005 
z
" style="fill:#d62728;"/>
    </g>
    <g id="text_20">
     <!-- KernelDensitybt -->
     <defs>
      <path d="M 54.890625 33.015625 
L 54.890625 0 
L 45.90625 0 
L 45.90625 32.71875 
Q 45.90625 40.484375 42.875 44.328125 
Q 39.84375 48.1875 33.796875 48.1875 
Q 26.515625 48.1875 22.3125 43.546875 
Q 18.109375 38.921875 18.109375 30.90625 
L 18.109375 0 
L 9.078125 0 
L 9.078125 54.6875 
L 18.109375 54.6875 
L 18.109375 46.1875 
Q 21.34375 51.125 25.703125 53.5625 
Q 30.078125 56 35.796875 56 
Q 45.21875 56 50.046875 50.171875 
Q 54.890625 44.34375 54.890625 33.015625 
z
" id="DejaVuSans-110"/>
      <path d="M 9.421875 75.984375 
L 18.40625 75.984375 
L 18.40625 0 
L 9.421875 0 
z
" id="DejaVuSans-108"/>
      <path d="M 32.171875 -5.078125 
Q 28.375 -14.84375 24.75 -17.8125 
Q 21.140625 -20.796875 15.09375 -20.796875 
L 7.90625 -20.796875 
L 7.90625 -13.28125 
L 13.1875 -13.28125 
Q 16.890625 -13.28125 18.9375 -11.515625 
Q 21 -9.765625 23.484375 -3.21875 
L 25.09375 0.875 
L 2.984375 54.6875 
L 12.5 54.6875 
L 29.59375 11.921875 
L 46.6875 54.6875 
L 56.203125 54.6875 
z
" id="DejaVuSans-121"/>
      <path d="M 48.6875 27.296875 
Q 48.6875 37.203125 44.609375 42.84375 
Q 40.53125 48.484375 33.40625 48.484375 
Q 26.265625 48.484375 22.1875 42.84375 
Q 18.109375 37.203125 18.109375 27.296875 
Q 18.109375 17.390625 22.1875 11.75 
Q 26.265625 6.109375 33.40625 6.109375 
Q 40.53125 6.109375 44.609375 11.75 
Q 48.6875 17.390625 48.6875 27.296875 
z
M 18.109375 46.390625 
Q 20.953125 51.265625 25.265625 53.625 
Q 29.59375 56 35.59375 56 
Q 45.5625 56 51.78125 48.09375 
Q 58.015625 40.1875 58.015625 27.296875 
Q 58.015625 14.40625 51.78125 6.484375 
Q 45.5625 -1.421875 35.59375 -1.421875 
Q 29.59375 -1.421875 25.265625 0.953125 
Q 20.953125 3.328125 18.109375 8.203125 
L 18.109375 0 
L 9.078125 0 
L 9.078125 75.984375 
L 18.109375 75.984375 
z
" id="DejaVuSans-98"/>
     </defs>
     <g transform="translate(387.628125 106.270938)scale(0.1 -0.1)">
      <use xlink:href="#DejaVuSans-75"/>
      <use x="60.576172" xlink:href="#DejaVuSans-101"/>
      <use x="122.099609" xlink:href="#DejaVuSans-114"/>
      <use x="161.462891" xlink:href="#DejaVuSans-110"/>
      <use x="224.841797" xlink:href="#DejaVuSans-101"/>
      <use x="286.365234" xlink:href="#DejaVuSans-108"/>
      <use x="314.148438" xlink:href="#DejaVuSans-68"/>
      <use x="391.150391" xlink:href="#DejaVuSans-101"/>
      <use x="452.673828" xlink:href="#DejaVuSans-110"/>
      <use x="516.052734" xlink:href="#DejaVuSans-115"/>
      <use x="568.152344" xlink:href="#DejaVuSans-105"/>
      <use x="595.935547" xlink:href="#DejaVuSans-116"/>
      <use x="635.144531" xlink:href="#DejaVuSans-121"/>
      <use x="694.324219" xlink:href="#DejaVuSans-98"/>
      <use x="757.800781" xlink:href="#DejaVuSans-116"/>
     </g>
    </g>
    <g id="PathCollection_18">
     <path d="M 369.628125 125.39513 
C 371.503394 125.39513 373.30211 124.650078 374.628125 123.324063 
C 375.95414 121.998047 376.699193 120.199332 376.699193 118.324063 
C 376.699193 116.448793 375.95414 114.650078 374.628125 113.324063 
C 373.30211 111.998047 371.503394 111.252995 369.628125 111.252995 
C 367.752856 111.252995 365.95414 111.998047 364.628125 113.324063 
C 363.30211 114.650078 362.557057 116.448793 362.557057 118.324063 
C 362.557057 120.199332 363.30211 121.998047 364.628125 123.324063 
C 365.95414 124.650078 367.752856 125.39513 369.628125 125.39513 
z
" style="fill:#9467bd;"/>
    </g>
    <g id="text_21">
     <!-- KernelDensitykdt -->
     <g transform="translate(387.628125 120.949063)scale(0.1 -0.1)">
      <use xlink:href="#DejaVuSans-75"/>
      <use x="60.576172" xlink:href="#DejaVuSans-101"/>
      <use x="122.099609" xlink:href="#DejaVuSans-114"/>
      <use x="161.462891" xlink:href="#DejaVuSans-110"/>
      <use x="224.841797" xlink:href="#DejaVuSans-101"/>
      <use x="286.365234" xlink:href="#DejaVuSans-108"/>
      <use x="314.148438" xlink:href="#DejaVuSans-68"/>
      <use x="391.150391" xlink:href="#DejaVuSans-101"/>
      <use x="452.673828" xlink:href="#DejaVuSans-110"/>
      <use x="516.052734" xlink:href="#DejaVuSans-115"/>
      <use x="568.152344" xlink:href="#DejaVuSans-105"/>
      <use x="595.935547" xlink:href="#DejaVuSans-116"/>
      <use x="635.144531" xlink:href="#DejaVuSans-121"/>
      <use x="694.324219" xlink:href="#DejaVuSans-107"/>
      <use x="752.234375" xlink:href="#DejaVuSans-100"/>
      <use x="815.710938" xlink:href="#DejaVuSans-116"/>
     </g>
    </g>
    <g id="PathCollection_19">
     <path d="M 369.628125 140.073255 
C 371.503394 140.073255 373.30211 139.328203 374.628125 138.002188 
C 375.95414 136.676172 376.699193 134.877457 376.699193 133.002188 
C 376.699193 131.126918 375.95414 129.328203 374.628125 128.002188 
C 373.30211 126.676172 371.503394 125.93112 369.628125 125.93112 
C 367.752856 125.93112 365.95414 126.676172 364.628125 128.002188 
C 363.30211 129.328203 362.557057 131.126918 362.557057 133.002188 
C 362.557057 134.877457 363.30211 136.676172 364.628125 138.002188 
C 365.95414 139.328203 367.752856 140.073255 369.628125 140.073255 
z
" style="fill:#f0e68c;"/>
    </g>
    <g id="text_22">
     <!-- DMKDE_50 -->
     <g transform="translate(387.628125 135.627188)scale(0.1 -0.1)">
      <use xlink:href="#DejaVuSans-68"/>
      <use x="77.001953" xlink:href="#DejaVuSans-77"/>
      <use x="163.28125" xlink:href="#DejaVuSans-75"/>
      <use x="228.857422" xlink:href="#DejaVuSans-68"/>
      <use x="305.859375" xlink:href="#DejaVuSans-69"/>
      <use x="369.042969" xlink:href="#DejaVuSans-95"/>
      <use x="419.042969" xlink:href="#DejaVuSans-53"/>
      <use x="482.666016" xlink:href="#DejaVuSans-48"/>
     </g>
    </g>
    <g id="PathCollection_20">
     <path d="M 369.628125 155.029505 
C 371.503394 155.029505 373.30211 154.284453 374.628125 152.958438 
C 375.95414 151.632422 376.699193 149.833707 376.699193 147.958438 
C 376.699193 146.083168 375.95414 144.284453 374.628125 142.958438 
C 373.30211 141.632422 371.503394 140.88737 369.628125 140.88737 
C 367.752856 140.88737 365.95414 141.632422 364.628125 142.958438 
C 363.30211 144.284453 362.557057 146.083168 362.557057 147.958438 
C 362.557057 149.833707 363.30211 151.632422 364.628125 152.958438 
C 365.95414 154.284453 367.752856 155.029505 369.628125 155.029505 
z
" style="fill:#ffd700;"/>
    </g>
    <g id="text_23">
     <!-- DMKDE_100 -->
     <g transform="translate(387.628125 150.583438)scale(0.1 -0.1)">
      <use xlink:href="#DejaVuSans-68"/>
      <use x="77.001953" xlink:href="#DejaVuSans-77"/>
      <use x="163.28125" xlink:href="#DejaVuSans-75"/>
      <use x="228.857422" xlink:href="#DejaVuSans-68"/>
      <use x="305.859375" xlink:href="#DejaVuSans-69"/>
      <use x="369.042969" xlink:href="#DejaVuSans-95"/>
      <use x="419.042969" xlink:href="#DejaVuSans-49"/>
      <use x="482.666016" xlink:href="#DejaVuSans-48"/>
      <use x="546.289062" xlink:href="#DejaVuSans-48"/>
     </g>
    </g>
    <g id="PathCollection_21">
     <path d="M 369.628125 169.985755 
C 371.503394 169.985755 373.30211 169.240703 374.628125 167.914688 
C 375.95414 166.588672 376.699193 164.789957 376.699193 162.914688 
C 376.699193 161.039418 375.95414 159.240703 374.628125 157.914688 
C 373.30211 156.588672 371.503394 155.84362 369.628125 155.84362 
C 367.752856 155.84362 365.95414 156.588672 364.628125 157.914688 
C 363.30211 159.240703 362.557057 161.039418 362.557057 162.914688 
C 362.557057 164.789957 363.30211 166.588672 364.628125 167.914688 
C 365.95414 169.240703 367.752856 169.985755 369.628125 169.985755 
z
" style="fill:#daa520;"/>
    </g>
    <g id="text_24">
     <!-- DMKDE_500 -->
     <g transform="translate(387.628125 165.539688)scale(0.1 -0.1)">
      <use xlink:href="#DejaVuSans-68"/>
      <use x="77.001953" xlink:href="#DejaVuSans-77"/>
      <use x="163.28125" xlink:href="#DejaVuSans-75"/>
      <use x="228.857422" xlink:href="#DejaVuSans-68"/>
      <use x="305.859375" xlink:href="#DejaVuSans-69"/>
      <use x="369.042969" xlink:href="#DejaVuSans-95"/>
      <use x="419.042969" xlink:href="#DejaVuSans-53"/>
      <use x="482.666016" xlink:href="#DejaVuSans-48"/>
      <use x="546.289062" xlink:href="#DejaVuSans-48"/>
     </g>
    </g>
    <g id="PathCollection_22">
     <path d="M 369.628125 184.942005 
C 371.503394 184.942005 373.30211 184.196953 374.628125 182.870938 
C 375.95414 181.544922 376.699193 179.746207 376.699193 177.870938 
C 376.699193 175.995668 375.95414 174.196953 374.628125 172.870938 
C 373.30211 171.544922 371.503394 170.79987 369.628125 170.79987 
C 367.752856 170.79987 365.95414 171.544922 364.628125 172.870938 
C 363.30211 174.196953 362.557057 175.995668 362.557057 177.870938 
C 362.557057 179.746207 363.30211 181.544922 364.628125 182.870938 
C 365.95414 184.196953 367.752856 184.942005 369.628125 184.942005 
z
" style="fill:#b8860b;"/>
    </g>
    <g id="text_25">
     <!-- DMKDE_1000 -->
     <g transform="translate(387.628125 180.495938)scale(0.1 -0.1)">
      <use xlink:href="#DejaVuSans-68"/>
      <use x="77.001953" xlink:href="#DejaVuSans-77"/>
      <use x="163.28125" xlink:href="#DejaVuSans-75"/>
      <use x="228.857422" xlink:href="#DejaVuSans-68"/>
      <use x="305.859375" xlink:href="#DejaVuSans-69"/>
      <use x="369.042969" xlink:href="#DejaVuSans-95"/>
      <use x="419.042969" xlink:href="#DejaVuSans-49"/>
      <use x="482.666016" xlink:href="#DejaVuSans-48"/>
      <use x="546.289062" xlink:href="#DejaVuSans-48"/>
      <use x="609.912109" xlink:href="#DejaVuSans-48"/>
     </g>
    </g>
    <g id="PathCollection_23">
     <path d="M 369.628125 199.898255 
C 371.503394 199.898255 373.30211 199.153203 374.628125 197.827188 
C 375.95414 196.501172 376.699193 194.702457 376.699193 192.827188 
C 376.699193 190.951918 375.95414 189.153203 374.628125 187.827188 
C 373.30211 186.501172 371.503394 185.75612 369.628125 185.75612 
C 367.752856 185.75612 365.95414 186.501172 364.628125 187.827188 
C 363.30211 189.153203 362.557057 190.951918 362.557057 192.827188 
C 362.557057 194.702457 363.30211 196.501172 364.628125 197.827188 
C 365.95414 199.153203 367.752856 199.898255 369.628125 199.898255 
z
" style="fill:#f0e68c;"/>
    </g>
    <g id="text_26">
     <!-- EIG_DMKDE_50 -->
     <defs>
      <path d="M 9.8125 72.90625 
L 19.671875 72.90625 
L 19.671875 0 
L 9.8125 0 
z
" id="DejaVuSans-73"/>
      <path d="M 59.515625 10.40625 
L 59.515625 29.984375 
L 43.40625 29.984375 
L 43.40625 38.09375 
L 69.28125 38.09375 
L 69.28125 6.78125 
Q 63.578125 2.734375 56.6875 0.65625 
Q 49.8125 -1.421875 42 -1.421875 
Q 24.90625 -1.421875 15.25 8.5625 
Q 5.609375 18.5625 5.609375 36.375 
Q 5.609375 54.25 15.25 64.234375 
Q 24.90625 74.21875 42 74.21875 
Q 49.125 74.21875 55.546875 72.453125 
Q 61.96875 70.703125 67.390625 67.28125 
L 67.390625 56.78125 
Q 61.921875 61.421875 55.765625 63.765625 
Q 49.609375 66.109375 42.828125 66.109375 
Q 29.4375 66.109375 22.71875 58.640625 
Q 16.015625 51.171875 16.015625 36.375 
Q 16.015625 21.625 22.71875 14.15625 
Q 29.4375 6.6875 42.828125 6.6875 
Q 48.046875 6.6875 52.140625 7.59375 
Q 56.25 8.5 59.515625 10.40625 
z
" id="DejaVuSans-71"/>
     </defs>
     <g transform="translate(387.628125 195.452188)scale(0.1 -0.1)">
      <use xlink:href="#DejaVuSans-69"/>
      <use x="63.183594" xlink:href="#DejaVuSans-73"/>
      <use x="92.675781" xlink:href="#DejaVuSans-71"/>
      <use x="170.166016" xlink:href="#DejaVuSans-95"/>
      <use x="220.166016" xlink:href="#DejaVuSans-68"/>
      <use x="297.167969" xlink:href="#DejaVuSans-77"/>
      <use x="383.447266" xlink:href="#DejaVuSans-75"/>
      <use x="449.023438" xlink:href="#DejaVuSans-68"/>
      <use x="526.025391" xlink:href="#DejaVuSans-69"/>
      <use x="589.208984" xlink:href="#DejaVuSans-95"/>
      <use x="639.208984" xlink:href="#DejaVuSans-53"/>
      <use x="702.832031" xlink:href="#DejaVuSans-48"/>
     </g>
    </g>
    <g id="PathCollection_24">
     <path d="M 369.628125 214.854505 
C 371.503394 214.854505 373.30211 214.109453 374.628125 212.783438 
C 375.95414 211.457422 376.699193 209.658707 376.699193 207.783438 
C 376.699193 205.908168 375.95414 204.109453 374.628125 202.783438 
C 373.30211 201.457422 371.503394 200.71237 369.628125 200.71237 
C 367.752856 200.71237 365.95414 201.457422 364.628125 202.783438 
C 363.30211 204.109453 362.557057 205.908168 362.557057 207.783438 
C 362.557057 209.658707 363.30211 211.457422 364.628125 212.783438 
C 365.95414 214.109453 367.752856 214.854505 369.628125 214.854505 
z
" style="fill:#ffd700;"/>
    </g>
    <g id="text_27">
     <!-- EIG_DMKDE_100 -->
     <g transform="translate(387.628125 210.408438)scale(0.1 -0.1)">
      <use xlink:href="#DejaVuSans-69"/>
      <use x="63.183594" xlink:href="#DejaVuSans-73"/>
      <use x="92.675781" xlink:href="#DejaVuSans-71"/>
      <use x="170.166016" xlink:href="#DejaVuSans-95"/>
      <use x="220.166016" xlink:href="#DejaVuSans-68"/>
      <use x="297.167969" xlink:href="#DejaVuSans-77"/>
      <use x="383.447266" xlink:href="#DejaVuSans-75"/>
      <use x="449.023438" xlink:href="#DejaVuSans-68"/>
      <use x="526.025391" xlink:href="#DejaVuSans-69"/>
      <use x="589.208984" xlink:href="#DejaVuSans-95"/>
      <use x="639.208984" xlink:href="#DejaVuSans-49"/>
      <use x="702.832031" xlink:href="#DejaVuSans-48"/>
      <use x="766.455078" xlink:href="#DejaVuSans-48"/>
     </g>
    </g>
    <g id="PathCollection_25">
     <path d="M 369.628125 229.810755 
C 371.503394 229.810755 373.30211 229.065703 374.628125 227.739688 
C 375.95414 226.413672 376.699193 224.614957 376.699193 222.739688 
C 376.699193 220.864418 375.95414 219.065703 374.628125 217.739688 
C 373.30211 216.413672 371.503394 215.66862 369.628125 215.66862 
C 367.752856 215.66862 365.95414 216.413672 364.628125 217.739688 
C 363.30211 219.065703 362.557057 220.864418 362.557057 222.739688 
C 362.557057 224.614957 363.30211 226.413672 364.628125 227.739688 
C 365.95414 229.065703 367.752856 229.810755 369.628125 229.810755 
z
" style="fill:#daa520;"/>
    </g>
    <g id="text_28">
     <!-- EIG_DMKDE_500 -->
     <g transform="translate(387.628125 225.364688)scale(0.1 -0.1)">
      <use xlink:href="#DejaVuSans-69"/>
      <use x="63.183594" xlink:href="#DejaVuSans-73"/>
      <use x="92.675781" xlink:href="#DejaVuSans-71"/>
      <use x="170.166016" xlink:href="#DejaVuSans-95"/>
      <use x="220.166016" xlink:href="#DejaVuSans-68"/>
      <use x="297.167969" xlink:href="#DejaVuSans-77"/>
      <use x="383.447266" xlink:href="#DejaVuSans-75"/>
      <use x="449.023438" xlink:href="#DejaVuSans-68"/>
      <use x="526.025391" xlink:href="#DejaVuSans-69"/>
      <use x="589.208984" xlink:href="#DejaVuSans-95"/>
      <use x="639.208984" xlink:href="#DejaVuSans-53"/>
      <use x="702.832031" xlink:href="#DejaVuSans-48"/>
      <use x="766.455078" xlink:href="#DejaVuSans-48"/>
     </g>
    </g>
    <g id="PathCollection_26">
     <path d="M 369.628125 244.767005 
C 371.503394 244.767005 373.30211 244.021953 374.628125 242.695938 
C 375.95414 241.369922 376.699193 239.571207 376.699193 237.695938 
C 376.699193 235.820668 375.95414 234.021953 374.628125 232.695938 
C 373.30211 231.369922 371.503394 230.62487 369.628125 230.62487 
C 367.752856 230.62487 365.95414 231.369922 364.628125 232.695938 
C 363.30211 234.021953 362.557057 235.820668 362.557057 237.695938 
C 362.557057 239.571207 363.30211 241.369922 364.628125 242.695938 
C 365.95414 244.021953 367.752856 244.767005 369.628125 244.767005 
z
" style="fill:#b8860b;"/>
    </g>
    <g id="text_29">
     <!-- EIG_DMKDE_1000 -->
     <g transform="translate(387.628125 240.320938)scale(0.1 -0.1)">
      <use xlink:href="#DejaVuSans-69"/>
      <use x="63.183594" xlink:href="#DejaVuSans-73"/>
      <use x="92.675781" xlink:href="#DejaVuSans-71"/>
      <use x="170.166016" xlink:href="#DejaVuSans-95"/>
      <use x="220.166016" xlink:href="#DejaVuSans-68"/>
      <use x="297.167969" xlink:href="#DejaVuSans-77"/>
      <use x="383.447266" xlink:href="#DejaVuSans-75"/>
      <use x="449.023438" xlink:href="#DejaVuSans-68"/>
      <use x="526.025391" xlink:href="#DejaVuSans-69"/>
      <use x="589.208984" xlink:href="#DejaVuSans-95"/>
      <use x="639.208984" xlink:href="#DejaVuSans-49"/>
      <use x="702.832031" xlink:href="#DejaVuSans-48"/>
      <use x="766.455078" xlink:href="#DejaVuSans-48"/>
      <use x="830.078125" xlink:href="#DejaVuSans-48"/>
     </g>
    </g>
   </g>
  </g>
 </g>
 <defs>
  <clipPath id="p9513b9371d">
   <rect height="285.39" width="418.5" x="67.5" y="45.36"/>
  </clipPath>
 </defs>
</svg>
