<?xml version="1.0" encoding="UTF-8" standalone="no"?>
<svg
   width="864pt"
   height="432pt"
   viewBox="0 0 864 432"
   version="1.1"
   id="svg214"
   sodipodi:docname="laddm-bar.svg"
   inkscape:version="1.3 (0e150ed6c4, 2023-07-21)"
   xmlns:inkscape="http://www.inkscape.org/namespaces/inkscape"
   xmlns:sodipodi="http://sodipodi.sourceforge.net/DTD/sodipodi-0.dtd"
   xmlns:xlink="http://www.w3.org/1999/xlink"
   xmlns="http://www.w3.org/2000/svg"
   xmlns:svg="http://www.w3.org/2000/svg"
   xmlns:rdf="http://www.w3.org/1999/02/22-rdf-syntax-ns#"
   xmlns:cc="http://creativecommons.org/ns#"
   xmlns:dc="http://purl.org/dc/elements/1.1/">
  <sodipodi:namedview
     id="namedview214"
     pagecolor="#ffffff"
     bordercolor="#666666"
     borderopacity="1.0"
     inkscape:showpageshadow="2"
     inkscape:pageopacity="0.0"
     inkscape:pagecheckerboard="0"
     inkscape:deskcolor="#d1d1d1"
     inkscape:document-units="pt"
     inkscape:zoom="1.6388889"
     inkscape:cx="541.22034"
     inkscape:cy="46.372881"
     inkscape:window-width="3840"
     inkscape:window-height="2160"
     inkscape:window-x="1920"
     inkscape:window-y="0"
     inkscape:window-maximized="1"
     inkscape:current-layer="axes_1" />
  <metadata
     id="metadata1">
    <rdf:RDF>
      <cc:Work>
        <dc:type
           rdf:resource="http://purl.org/dc/dcmitype/StillImage" />
        <dc:date>2023-09-15T20:11:40.919700</dc:date>
        <dc:format>image/svg+xml</dc:format>
        <dc:creator>
          <cc:Agent>
            <dc:title>Matplotlib v3.7.1, https://matplotlib.org/</dc:title>
          </cc:Agent>
        </dc:creator>
      </cc:Work>
    </rdf:RDF>
  </metadata>
  <defs
     id="defs1">
    <style
       type="text/css"
       id="style1">*{stroke-linejoin: round; stroke-linecap: butt}</style>
  </defs>
  <g
     id="figure_1">
    <g
       id="axes_1"
       transform="translate(-0.330781,1.1458688)">
      <g
         id="patch_2">
        <path
           d="M 67.79,305.69147 H 853.2 V 26.88 H 67.79 Z"
           style="fill:#ffffff"
           id="path2" />
      </g>
      <g
         id="matplotlib.axis_1">
        <g
           id="xtick_3">
          <g
             id="text_3">
            <!-- Autoencoder -->
            <g
               transform="matrix(0.137888,-0.11570177,-0.11570177,-0.137888,178.38729,397.14562)"
               id="g25">
              <defs
                 id="defs14">
                <path
                   id="DejaVuSans-75"
                   d="m 544,1381 v 2119 h 575 V 1403 q 0,-497 193,-746 194,-248 582,-248 465,0 735,297 271,297 271,810 v 1984 h 575 V 0 H 2900 V 538 Q 2691,219 2414,64 2138,-91 1772,-91 1169,-91 856,284 544,659 544,1381 Z m 1447,2203 z"
                   transform="scale(0.015625)" />
                <path
                   id="DejaVuSans-74"
                   d="M 1172,4494 V 3500 H 2356 V 3053 H 1172 V 1153 q 0,-428 117,-550 117,-122 477,-122 h 590 V 0 H 1766 Q 1100,0 847,248 594,497 594,1153 V 3053 H 172 v 447 h 422 v 994 z"
                   transform="scale(0.015625)" />
                <path
                   id="DejaVuSans-6f"
                   d="m 1959,3097 q -462,0 -731,-361 -269,-361 -269,-989 0,-628 267,-989 268,-361 733,-361 460,0 728,362 269,363 269,988 0,622 -269,986 -268,364 -728,364 z m 0,487 q 750,0 1178,-488 429,-487 429,-1349 Q 3566,888 3137,398 2709,-91 1959,-91 1206,-91 779,398 353,888 353,1747 q 0,862 426,1349 427,488 1180,488 z"
                   transform="scale(0.015625)" />
                <path
                   id="DejaVuSans-63"
                   d="m 3122,3366 v -538 q -244,135 -489,202 -245,67 -495,67 -560,0 -870,-355 -309,-354 -309,-995 0,-641 309,-996 310,-354 870,-354 250,0 495,67 245,67 489,202 V 134 Q 2881,22 2623,-34 2366,-91 2075,-91 1284,-91 818,406 353,903 353,1747 q 0,856 470,1346 471,491 1290,491 265,0 518,-55 253,-54 491,-163 z"
                   transform="scale(0.015625)" />
                <path
                   id="DejaVuSans-72"
                   d="m 2631,2963 q -97,56 -211,82 -114,27 -251,27 -488,0 -749,-317 -261,-317 -261,-911 V 0 H 581 v 3500 h 578 v -544 q 182,319 472,473 291,155 707,155 59,0 131,-8 72,-7 159,-23 z"
                   transform="scale(0.015625)" />
              </defs>
              <path
                 id="use15"
                 d="M 34.1875,63.1875 20.796875,26.90625 h 26.8125 z m -5.578125,9.71875 h 11.1875 L 67.578125,0 h -10.25 L 50.6875,18.703125 H 17.828125 L 11.1875,0 H 0.78125 Z"
                 style="stroke-width:0.015625" />
              <use
                 xlink:href="#DejaVuSans-75"
                 x="68.408203"
                 id="use16" />
              <use
                 xlink:href="#DejaVuSans-74"
                 x="131.78711"
                 id="use17" />
              <use
                 xlink:href="#DejaVuSans-6f"
                 x="170.99609"
                 id="use18" />
              <path
                 id="use19"
                 d="m 288.38086,29.59375 v -4.390625 h -41.3125 q 0.59375,-9.28125 5.59375,-14.140625 5,-4.859375 13.9375,-4.859375 5.17187,0 10.03125,1.265625 4.85937,1.265625 9.65625,3.8125 v -8.5 q -4.84375,-2.046875 -9.92188,-3.125 -5.07812,-1.078125 -10.29687,-1.078125 -13.09375,0 -20.73438,7.609375 -7.64062,7.625 -7.64062,20.625 0,13.421875 7.25,21.296875 Q 252.19336,56 264.50586,56 q 11.03125,0 17.45312,-7.109375 6.42188,-7.09375 6.42188,-19.296875 z m -8.98438,2.640625 q -0.0937,7.359375 -4.125,11.75 -4.03125,4.40625 -10.67187,4.40625 -7.51563,0 -12.03125,-4.25 -4.51563,-4.25 -5.20313,-11.96875 z"
                 style="stroke-width:0.015625" />
              <path
                 id="use20"
                 d="M 348.5918,33.015625 V 0 h -8.98438 v 32.71875 q 0,7.765625 -3.03125,11.609375 -3.03125,3.859375 -9.07812,3.859375 -7.28125,0 -11.48438,-4.640625 -4.20312,-4.625 -4.20312,-12.640625 V 0 h -9.03125 v 54.6875 h 9.03125 v -8.5 q 3.23437,4.9375 7.59375,7.375 4.375,2.4375 10.09375,2.4375 9.42187,0 14.25,-5.828125 4.84375,-5.828125 4.84375,-17.15625 z"
                 style="stroke-width:0.015625" />
              <use
                 xlink:href="#DejaVuSans-63"
                 x="357.08008"
                 id="use21" />
              <use
                 xlink:href="#DejaVuSans-6f"
                 x="412.06055"
                 id="use22" />
              <path
                 id="use23"
                 d="m 518.64844,46.390625 v 29.59375 h 8.98437 V 0 h -8.98437 v 8.203125 q -2.82813,-4.875 -7.15625,-7.25 -4.3125,-2.375 -10.375,-2.375 -9.90625,0 -16.14063,7.90625 -6.21875,7.921875 -6.21875,20.8125 0,12.890625 6.21875,20.796875 Q 491.21094,56 501.11719,56 q 6.0625,0 10.375,-2.375 4.32812,-2.359375 7.15625,-7.234375 z m -30.60938,-19.09375 q 0,-9.90625 4.07813,-15.546875 4.07812,-5.640625 11.20312,-5.640625 7.125,0 11.21875,5.640625 4.10938,5.640625 4.10938,15.546875 0,9.90625 -4.10938,15.546875 -4.09375,5.640625 -11.21875,5.640625 -7.125,0 -11.20312,-5.640625 -4.07813,-5.640625 -4.07813,-15.546875 z"
                 style="stroke-width:0.015625" />
              <path
                 id="use24"
                 d="m 592.92187,29.59375 v -4.390625 h -41.3125 q 0.59375,-9.28125 5.59375,-14.140625 5,-4.859375 13.9375,-4.859375 5.17188,0 10.03125,1.265625 4.85938,1.265625 9.65625,3.8125 v -8.5 q -4.84375,-2.046875 -9.92187,-3.125 -5.07813,-1.078125 -10.29688,-1.078125 -13.09375,0 -20.73437,7.609375 -7.64063,7.625 -7.64063,20.625 0,13.421875 7.25,21.296875 Q 556.73437,56 569.04687,56 580.07812,56 586.5,48.890625 q 6.42187,-7.09375 6.42187,-19.296875 z m -8.98437,2.640625 q -0.0937,7.359375 -4.125,11.75 -4.03125,4.40625 -10.67188,4.40625 -7.51562,0 -12.03125,-4.25 -4.51562,-4.25 -5.20312,-11.96875 z"
                 style="stroke-width:0.015625" />
              <use
                 xlink:href="#DejaVuSans-72"
                 x="598.24219"
                 id="use25" />
            </g>
          </g>
        </g>
        <g
           id="xtick_4">
          <g
             id="text_4">
            <!-- iForest -->
            <g
               transform="matrix(0.137888,-0.11570177,-0.11570177,-0.137888,247.64722,361.87647)"
               id="g32">
              <defs
                 id="defs25">
                <path
                   id="DejaVuSans-69"
                   d="m 603,3500 h 575 V 0 H 603 Z m 0,1363 h 575 V 4134 H 603 Z"
                   transform="scale(0.015625)" />
                <path
                   id="DejaVuSans-46"
                   d="M 628,4666 H 3309 V 4134 H 1259 V 2759 H 3109 V 2228 H 1259 V 0 H 628 Z"
                   transform="scale(0.015625)" />
                <path
                   id="DejaVuSans-73"
                   d="m 2834,3397 v -544 q -243,125 -506,187 -262,63 -544,63 -428,0 -642,-131 -214,-131 -214,-394 0,-200 153,-314 153,-114 616,-217 l 197,-44 q 612,-131 870,-370 258,-239 258,-667 0,-488 -386,-773 Q 2250,-91 1575,-91 1294,-91 989,-36 684,19 347,128 v 594 q 319,-166 628,-249 309,-82 613,-82 406,0 624,139 219,139 219,392 0,234 -158,359 -157,125 -692,241 l -200,47 q -534,112 -772,345 -237,233 -237,639 0,494 350,762 350,269 994,269 318,0 599,-47 282,-46 519,-140 z"
                   transform="scale(0.015625)" />
              </defs>
              <use
                 xlink:href="#DejaVuSans-69"
                 id="use26" />
              <use
                 xlink:href="#DejaVuSans-46"
                 x="27.783203"
                 id="use27" />
              <use
                 xlink:href="#DejaVuSans-6f"
                 x="81.677734"
                 id="use28" />
              <use
                 xlink:href="#DejaVuSans-72"
                 x="142.85938"
                 id="use29" />
              <path
                 id="use30"
                 d="m 237.92578,29.59375 v -4.390625 h -41.3125 q 0.59375,-9.28125 5.59375,-14.140625 5,-4.859375 13.9375,-4.859375 5.17188,0 10.03125,1.265625 4.85938,1.265625 9.65625,3.8125 v -8.5 q -4.84375,-2.046875 -9.92187,-3.125 -5.07813,-1.078125 -10.29688,-1.078125 -13.09375,0 -20.73437,7.609375 -7.64063,7.625 -7.64063,20.625 0,13.421875 7.25,21.296875 Q 201.73828,56 214.05078,56 q 11.03125,0 17.45313,-7.109375 6.42187,-7.09375 6.42187,-19.296875 z m -8.98437,2.640625 q -0.0937,7.359375 -4.125,11.75 -4.03125,4.40625 -10.67188,4.40625 -7.51562,0 -12.03125,-4.25 -4.51562,-4.25 -5.20312,-11.96875 z"
                 style="stroke-width:0.015625" />
              <use
                 xlink:href="#DejaVuSans-73"
                 x="243.24609"
                 id="use31" />
              <use
                 xlink:href="#DejaVuSans-74"
                 x="295.3457"
                 id="use32" />
            </g>
          </g>
        </g>
        <g
           id="xtick_5">
          <g
             id="text_5">
            <!-- Covariance -->
            <g
               transform="matrix(0.137888,-0.11570177,-0.11570177,-0.137888,280.24079,388.14077)"
               id="g42">
              <defs
                 id="defs32">
                <path
                   id="DejaVuSans-43"
                   d="m 4122,4306 v -665 q -319,297 -680,443 -361,147 -767,147 -800,0 -1225,-489 -425,-489 -425,-1414 0,-922 425,-1411 425,-489 1225,-489 406,0 767,147 361,147 680,444 V 359 Q 3791,134 3420,21 3050,-91 2638,-91 1578,-91 968,557 359,1206 359,2328 q 0,1125 609,1773 610,649 1670,649 418,0 788,-111 371,-111 696,-333 z"
                   transform="scale(0.015625)" />
                <path
                   id="DejaVuSans-76"
                   d="M 191,3500 H 800 L 1894,563 2988,3500 h 609 L 2284,0 h -781 z"
                   transform="scale(0.015625)" />
              </defs>
              <use
                 xlink:href="#DejaVuSans-43"
                 id="use33" />
              <use
                 xlink:href="#DejaVuSans-6f"
                 x="69.824219"
                 id="use34" />
              <use
                 xlink:href="#DejaVuSans-76"
                 x="131.00586"
                 id="use35" />
              <path
                 id="use36"
                 d="m 224.4668,27.484375 q -10.89063,0 -15.09375,-2.484375 -4.20313,-2.484375 -4.20313,-8.5 0,-4.78125 3.15625,-7.59375 3.15625,-2.796875 8.5625,-2.796875 7.48438,0 12,5.296875 4.51563,5.296875 4.51563,14.078125 v 2 z m 17.92187,3.71875 V 0 h -8.98437 v 8.296875 q -3.07813,-4.96875 -7.67188,-7.34375 -4.59375,-2.375 -11.23437,-2.375 -8.39063,0 -13.35938,4.71875 -4.95312,4.71875 -4.95312,12.625 0,9.21875 6.17187,13.90625 6.1875,4.6875 18.4375,4.6875 h 12.60938 v 0.890625 q 0,6.203125 -4.07813,9.59375 -4.07812,3.390625 -11.45312,3.390625 -4.6875,0 -9.14063,-1.125 -4.4375,-1.125 -8.53125,-3.375 v 8.3125 q 4.92188,1.90625 9.5625,2.84375 Q 214.4043,56 218.79492,56 q 11.875,0 17.73438,-6.15625 5.85937,-6.140625 5.85937,-18.640625 z"
                 style="stroke-width:0.015625" />
              <use
                 xlink:href="#DejaVuSans-72"
                 x="251.46484"
                 id="use37" />
              <use
                 xlink:href="#DejaVuSans-69"
                 x="292.57812"
                 id="use38" />
              <path
                 id="use39"
                 d="m 354.64258,27.484375 q -10.89063,0 -15.09375,-2.484375 -4.20313,-2.484375 -4.20313,-8.5 0,-4.78125 3.15625,-7.59375 3.15625,-2.796875 8.5625,-2.796875 7.48438,0 12,5.296875 4.51563,5.296875 4.51563,14.078125 v 2 z m 17.92187,3.71875 V 0 h -8.98437 v 8.296875 q -3.07813,-4.96875 -7.67188,-7.34375 -4.59375,-2.375 -11.23437,-2.375 -8.39063,0 -13.35938,4.71875 -4.95312,4.71875 -4.95312,12.625 0,9.21875 6.17187,13.90625 6.1875,4.6875 18.4375,4.6875 h 12.60938 v 0.890625 q 0,6.203125 -4.07813,9.59375 -4.07812,3.390625 -11.45312,3.390625 -4.6875,0 -9.14063,-1.125 -4.4375,-1.125 -8.53125,-3.375 v 8.3125 q 4.92188,1.90625 9.5625,2.84375 Q 344.58008,56 348.9707,56 q 11.875,0 17.73438,-6.15625 5.85937,-6.140625 5.85937,-18.640625 z"
                 style="stroke-width:0.015625" />
              <path
                 id="use40"
                 d="M 436.53125,33.015625 V 0 h -8.98438 v 32.71875 q 0,7.765625 -3.03125,11.609375 -3.03125,3.859375 -9.07812,3.859375 -7.28125,0 -11.48438,-4.640625 Q 399.75,38.921875 399.75,30.90625 V 0 h -9.03125 V 54.6875 H 399.75 v -8.5 q 3.23437,4.9375 7.59375,7.375 4.375,2.4375 10.09375,2.4375 9.42187,0 14.25,-5.828125 4.84375,-5.828125 4.84375,-17.15625 z"
                 style="stroke-width:0.015625" />
              <use
                 xlink:href="#DejaVuSans-63"
                 x="445.01953"
                 id="use41" />
              <path
                 id="use42"
                 d="m 556.20312,29.59375 v -4.390625 h -41.3125 q 0.59375,-9.28125 5.59375,-14.140625 5,-4.859375 13.9375,-4.859375 5.17188,0 10.03125,1.265625 4.85938,1.265625 9.65625,3.8125 v -8.5 q -4.84375,-2.046875 -9.92187,-3.125 -5.07813,-1.078125 -10.29688,-1.078125 -13.09375,0 -20.73437,7.609375 -7.64063,7.625 -7.64063,20.625 0,13.421875 7.25,21.296875 Q 520.01562,56 532.32812,56 q 11.03125,0 17.45313,-7.109375 6.42187,-7.09375 6.42187,-19.296875 z m -8.98437,2.640625 q -0.0937,7.359375 -4.125,11.75 -4.03125,4.40625 -10.67188,4.40625 -7.51562,0 -12.03125,-4.25 -4.51562,-4.25 -5.20312,-11.96875 z"
                 style="stroke-width:0.015625" />
            </g>
          </g>
        </g>
        <g
           id="xtick_6">
          <g
             id="text_6">
            <!-- KNN -->
            <g
               transform="matrix(0.137888,-0.11570177,-0.11570177,-0.137888,352.36297,348.06819)"
               id="g45">
              <defs
                 id="defs42">
                <path
                   id="DejaVuSans-4e"
                   d="m 628,4666 h 850 L 3547,763 v 3903 h 612 V 0 H 3309 L 1241,3903 V 0 H 628 Z"
                   transform="scale(0.015625)" />
              </defs>
              <path
                 id="use43"
                 d="m 9.8125,72.90625 h 9.859375 v -30.8125 l 32.71875,30.8125 H 65.09375 L 28.90625,38.921875 67.671875,0 H 54.6875 L 19.671875,35.109375 V 0 H 9.8125 Z"
                 style="stroke-width:0.015625" />
              <use
                 xlink:href="#DejaVuSans-4e"
                 x="65.576172"
                 id="use44" />
              <use
                 xlink:href="#DejaVuSans-4e"
                 x="140.38086"
                 id="use45" />
            </g>
          </g>
        </g>
        <g
           id="xtick_7">
          <g
             id="text_7">
            <!-- VAE-Bayes -->
            <g
               transform="matrix(0.137888,-0.11570177,-0.11570177,-0.137888,378.98749,384.34973)"
               id="g54">
              <defs
                 id="defs45">
                <path
                   id="DejaVuSans-56"
                   d="M 1831,0 50,4666 H 709 L 2188,738 3669,4666 h 656 L 2547,0 Z"
                   transform="scale(0.015625)" />
                <path
                   id="DejaVuSans-42"
                   d="M 1259,2228 V 519 h 1013 q 509,0 754,211 246,211 246,645 0,438 -246,645 -245,208 -754,208 z m 0,1919 V 2741 h 935 q 462,0 688,173 227,174 227,530 0,353 -227,528 -226,175 -688,175 z m -631,519 h 1613 q 722,0 1112,-300 391,-300 391,-853 0,-429 -200,-682 -200,-253 -588,-315 466,-100 724,-418 258,-317 258,-792 0,-625 -425,-966 Q 3088,0 2303,0 H 628 Z"
                   transform="scale(0.015625)" />
                <path
                   id="DejaVuSans-79"
                   d="m 2059,-325 q -243,-625 -475,-815 -231,-191 -618,-191 H 506 v 481 h 338 q 237,0 368,113 132,112 291,531 L 1606,56 191,3500 H 800 L 1894,763 2988,3500 h 609 z"
                   transform="scale(0.015625)" />
              </defs>
              <use
                 xlink:href="#DejaVuSans-56"
                 id="use46" />
              <path
                 id="use47"
                 d="M 96.220703,63.1875 82.830078,26.90625 h 26.812502 z m -5.578125,9.71875 H 101.83008 L 129.61133,0 h -10.25 L 112.7207,18.703125 H 79.861328 L 73.220703,0 h -10.40625 z"
                 style="stroke-width:0.015625" />
              <path
                 id="use48"
                 d="m 140.25391,72.90625 h 46.09375 v -8.3125 H 150.11328 V 43.015625 h 34.71875 V 34.71875 H 150.11328 V 8.296875 h 37.10938 V 0 h -46.96875 z"
                 style="stroke-width:0.015625" />
              <path
                 id="use49"
                 d="m 198.51562,31.390625 h 26.3125 v -8 h -26.3125 z"
                 style="stroke-width:0.015625" />
              <use
                 xlink:href="#DejaVuSans-42"
                 x="226.08398"
                 id="use50" />
              <path
                 id="use51"
                 d="m 328.96875,27.484375 q -10.89063,0 -15.09375,-2.484375 -4.20313,-2.484375 -4.20313,-8.5 0,-4.78125 3.15625,-7.59375 3.15625,-2.796875 8.5625,-2.796875 7.48438,0 12,5.296875 4.51563,5.296875 4.51563,14.078125 v 2 z m 17.92187,3.71875 V 0 h -8.98437 v 8.296875 q -3.07813,-4.96875 -7.67188,-7.34375 -4.59375,-2.375 -11.23437,-2.375 -8.39063,0 -13.35938,4.71875 -4.95312,4.71875 -4.95312,12.625 0,9.21875 6.17187,13.90625 6.1875,4.6875 18.4375,4.6875 h 12.60938 v 0.890625 q 0,6.203125 -4.07813,9.59375 -4.07812,3.390625 -11.45312,3.390625 -4.6875,0 -9.14063,-1.125 -4.4375,-1.125 -8.53125,-3.375 v 8.3125 q 4.92188,1.90625 9.5625,2.84375 Q 318.90625,56 323.29687,56 q 11.875,0 17.73438,-6.15625 5.85937,-6.140625 5.85937,-18.640625 z"
                 style="stroke-width:0.015625" />
              <use
                 xlink:href="#DejaVuSans-79"
                 x="355.9668"
                 id="use52" />
              <path
                 id="use53"
                 d="m 471.34961,29.59375 v -4.390625 h -41.3125 q 0.59375,-9.28125 5.59375,-14.140625 5,-4.859375 13.9375,-4.859375 5.17187,0 10.03125,1.265625 4.85937,1.265625 9.65625,3.8125 v -8.5 q -4.84375,-2.046875 -9.92188,-3.125 -5.07812,-1.078125 -10.29687,-1.078125 -13.09375,0 -20.73438,7.609375 -7.64062,7.625 -7.64062,20.625 0,13.421875 7.25,21.296875 Q 435.16211,56 447.47461,56 q 11.03125,0 17.45312,-7.109375 6.42188,-7.09375 6.42188,-19.296875 z m -8.98438,2.640625 q -0.0937,7.359375 -4.125,11.75 -4.03125,4.40625 -10.67187,4.40625 -7.51563,0 -12.03125,-4.25 -4.51563,-4.25 -5.20313,-11.96875 z"
                 style="stroke-width:0.015625" />
              <use
                 xlink:href="#DejaVuSans-73"
                 x="476.66992"
                 id="use54" />
            </g>
          </g>
        </g>
        <g
           id="xtick_8">
          <g
             id="text_8">
            <!-- COPOD -->
            <g
               transform="matrix(0.137888,-0.11570177,-0.11570177,-0.137888,438.55325,365.34933)"
               id="g59">
              <defs
                 id="defs54">
                <path
                   id="DejaVuSans-4f"
                   d="m 2522,4238 q -688,0 -1093,-513 -404,-512 -404,-1397 0,-881 404,-1394 405,-512 1093,-512 687,0 1089,512 402,513 402,1394 0,885 -402,1397 -402,513 -1089,513 z m 0,512 q 981,0 1568,-658 588,-658 588,-1764 0,-1103 -588,-1761 -587,-658 -1568,-658 -984,0 -1574,656 -589,657 -589,1763 0,1106 589,1764 590,658 1574,658 z"
                   transform="scale(0.015625)" />
                <path
                   id="DejaVuSans-50"
                   d="M 1259,4147 V 2394 h 794 q 441,0 681,228 241,228 241,650 0,419 -241,647 -240,228 -681,228 z m -631,519 h 1425 q 785,0 1186,-355 402,-355 402,-1039 0,-691 -402,-1044 -401,-353 -1186,-353 H 1259 V 0 H 628 Z"
                   transform="scale(0.015625)" />
              </defs>
              <use
                 xlink:href="#DejaVuSans-43"
                 id="use55" />
              <use
                 xlink:href="#DejaVuSans-4f"
                 x="69.824219"
                 id="use56" />
              <use
                 xlink:href="#DejaVuSans-50"
                 x="148.53516"
                 id="use57" />
              <use
                 xlink:href="#DejaVuSans-4f"
                 x="208.83789"
                 id="use58" />
              <path
                 id="use59"
                 d="m 307.2207,64.796875 v -56.6875 h 11.92188 q 15.09375,0 22.09375,6.828125 7,6.84375 7,21.59375 0,14.640625 -7,21.453125 -7,6.8125 -22.09375,6.8125 z m -9.85937,8.109375 h 20.26562 q 21.1875,0 31.09375,-8.8125 9.92188,-8.8125 9.92188,-27.5625 0,-18.859375 -9.96875,-27.703125 Q 338.7207,0 317.62695,0 h -20.26562 z"
                 style="stroke-width:0.015625" />
            </g>
          </g>
        </g>
        <g
           id="xtick_9">
          <g
             id="text_9">
            <!-- LODA -->
            <g
               transform="matrix(0.137888,-0.11570177,-0.11570177,-0.137888,493.00853,354.92532)"
               id="g63">
              <path
                 id="use60"
                 d="m 9.8125,72.90625 h 9.859375 V 8.296875 h 35.5 V 0 H 9.8125 Z"
                 style="stroke-width:0.015625" />
              <use
                 xlink:href="#DejaVuSans-4f"
                 x="52.087891"
                 id="use61" />
              <path
                 id="use62"
                 d="m 150.4707,64.796875 v -56.6875 h 11.92188 q 15.09375,0 22.09375,6.828125 7,6.84375 7,21.59375 0,14.640625 -7,21.453125 -7,6.8125 -22.09375,6.8125 z m -9.85937,8.109375 h 20.26562 q 21.1875,0 31.09375,-8.8125 9.92188,-8.8125 9.92188,-27.5625 0,-18.859375 -9.96875,-27.703125 Q 181.9707,0 160.87695,0 h -20.26562 z"
                 style="stroke-width:0.015625" />
              <path
                 id="use63"
                 d="M 240.23828,63.1875 226.84766,26.90625 h 26.8125 z m -5.57812,9.71875 h 11.1875 L 273.62891,0 h -10.25 l -6.64063,18.703125 H 223.87891 L 217.23828,0 h -10.40625 z"
                 style="stroke-width:0.015625" />
            </g>
          </g>
        </g>
        <g
           id="xtick_10">
          <g
             id="text_10">
            <!-- ALAD -->
            <g
               transform="matrix(0.137888,-0.11570177,-0.11570177,-0.137888,541.43767,354.61437)"
               id="g67">
              <path
                 id="use64"
                 d="M 34.1875,63.1875 20.796875,26.90625 h 26.8125 z m -5.578125,9.71875 h 11.1875 L 67.578125,0 h -10.25 L 50.6875,18.703125 H 17.828125 L 11.1875,0 H 0.78125 Z"
                 style="stroke-width:0.015625" />
              <path
                 id="use65"
                 d="m 78.220703,72.90625 h 9.859375 V 8.296875 H 123.58008 V 0 H 78.220703 Z"
                 style="stroke-width:0.015625" />
              <path
                 id="use66"
                 d="M 160.55859,63.1875 147.16797,26.90625 h 26.8125 z m -5.57812,9.71875 h 11.1875 L 193.94922,0 h -10.25 l -6.64063,18.703125 H 144.19922 L 137.55859,0 h -10.40625 z"
                 style="stroke-width:0.015625" />
              <path
                 id="use67"
                 d="m 214.45117,64.796875 v -56.6875 h 11.92188 q 15.09375,0 22.09375,6.828125 7,6.84375 7,21.59375 0,14.640625 -7,21.453125 -7,6.8125 -22.09375,6.8125 z m -9.85937,8.109375 h 20.26562 q 21.1875,0 31.09375,-8.8125 9.92188,-8.8125 9.92188,-27.5625 0,-18.859375 -9.96875,-27.703125 Q 245.95117,0 224.85742,0 H 204.5918 Z"
                 style="stroke-width:0.015625" />
            </g>
          </g>
        </g>
        <g
           id="xtick_11">
          <g
             id="text_11">
            <!-- OCSVM -->
            <g
               transform="matrix(0.137888,-0.11570177,-0.11570177,-0.137888,583.13616,365.59881)"
               id="g72">
              <defs
                 id="defs67">
                <path
                   id="DejaVuSans-53"
                   d="m 3425,4513 v -616 q -359,172 -678,256 -319,85 -616,85 -515,0 -795,-200 -280,-200 -280,-569 0,-310 186,-468 186,-157 705,-254 l 381,-78 q 706,-135 1042,-474 336,-339 336,-907 0,-679 -455,-1029 -454,-350 -1332,-350 -331,0 -705,75 -373,75 -773,222 v 650 q 384,-215 753,-325 369,-109 725,-109 540,0 834,212 294,213 294,607 0,343 -211,537 -211,194 -692,291 l -385,75 q -706,140 -1022,440 -315,300 -315,835 0,619 436,975 436,356 1201,356 329,0 669,-60 341,-59 697,-177 z"
                   transform="scale(0.015625)" />
              </defs>
              <use
                 xlink:href="#DejaVuSans-4f"
                 id="use68" />
              <use
                 xlink:href="#DejaVuSans-43"
                 x="78.710938"
                 id="use69" />
              <use
                 xlink:href="#DejaVuSans-53"
                 x="148.53516"
                 id="use70" />
              <use
                 xlink:href="#DejaVuSans-56"
                 x="212.01172"
                 id="use71" />
              <path
                 id="use72"
                 d="m 290.23242,72.90625 h 14.70313 L 323.5293,23.296875 342.23242,72.90625 h 14.70313 V 0 h -9.625 v 64.015625 l -18.79688,-50 h -9.90625 l -18.79687,50 V 0 h -9.57813 z"
                 style="stroke-width:0.015625" />
            </g>
          </g>
        </g>
        <g
           id="xtick_12">
          <g
             id="text_12">
            <!-- LOF -->
            <g
               transform="matrix(0.137888,-0.11570177,-0.11570177,-0.137888,643.67898,344.9587)"
               id="g75">
              <path
                 id="use73"
                 d="m 9.8125,72.90625 h 9.859375 V 8.296875 h 35.5 V 0 H 9.8125 Z"
                 style="stroke-width:0.015625" />
              <use
                 xlink:href="#DejaVuSans-4f"
                 x="52.087891"
                 id="use74" />
              <use
                 xlink:href="#DejaVuSans-46"
                 x="130.79883"
                 id="use75" />
            </g>
          </g>
        </g>
        <g
           id="xtick_13">
          <g
             id="text_13">
            <!-- SOS -->
            <g
               transform="matrix(0.137888,-0.11570177,-0.11570177,-0.137888,690.72601,346.96721)"
               id="g78">
              <use
                 xlink:href="#DejaVuSans-53"
                 id="use76" />
              <use
                 xlink:href="#DejaVuSans-4f"
                 x="63.476562"
                 id="use77" />
              <use
                 xlink:href="#DejaVuSans-53"
                 x="142.1875"
                 id="use78" />
            </g>
          </g>
        </g>
        <g
           id="xtick_14">
          <g
             id="text_14">
            <!-- LAKE -->
            <g
               transform="matrix(0.137888,-0.11570177,-0.11570177,-0.137888,735.56038,352.68903)"
               id="g82">
              <path
                 id="use79"
                 d="m 9.8125,72.90625 h 9.859375 V 8.296875 h 35.5 V 0 H 9.8125 Z"
                 style="stroke-width:0.015625" />
              <path
                 id="use80"
                 d="M 92.150391,63.1875 78.759766,26.90625 h 26.812504 z m -5.578125,9.71875 h 11.1875 L 125.54102,0 h -10.25 l -6.64063,18.703125 H 75.791016 L 69.150391,0 h -10.40625 z"
                 style="stroke-width:0.015625" />
              <path
                 id="use81"
                 d="m 136.18359,72.90625 h 9.85938 v -30.8125 l 32.71875,30.8125 h 12.70312 L 155.27734,38.921875 194.04297,0 H 181.05859 L 146.04297,35.109375 V 0 h -9.85938 z"
                 style="stroke-width:0.015625" />
              <path
                 id="use82"
                 d="m 201.75977,72.90625 h 46.09375 v -8.3125 H 211.61914 V 43.015625 h 34.71875 V 34.71875 H 211.61914 V 8.296875 h 37.10938 V 0 h -46.96875 z"
                 style="stroke-width:0.015625" />
            </g>
          </g>
        </g>
        <g
           id="xtick_15">
          <g
             id="text_15">
            <!-- DSVDD -->
            <g
               transform="matrix(0.137888,-0.11570177,-0.11570177,-0.137888,776.37552,365.15589)"
               id="g87">
              <path
                 id="use83"
                 d="M 19.671875,64.796875 V 8.109375 H 31.59375 q 15.09375,0 22.09375,6.828125 7,6.84375 7,21.59375 0,14.640625 -7,21.453125 -7,6.8125 -22.09375,6.8125 z M 9.8125,72.90625 h 20.265625 q 21.1875,0 31.09375,-8.8125 9.921875,-8.8125 9.921875,-27.5625 0,-18.859375 -9.96875,-27.703125 Q 51.171875,0 30.078125,0 H 9.8125 Z"
                 style="stroke-width:0.015625" />
              <use
                 xlink:href="#DejaVuSans-53"
                 x="77.001953"
                 id="use84" />
              <use
                 xlink:href="#DejaVuSans-56"
                 x="140.47852"
                 id="use85" />
              <path
                 id="use86"
                 d="m 228.55859,64.796875 v -56.6875 h 11.92188 q 15.09375,0 22.09375,6.828125 7,6.84375 7,21.59375 0,14.640625 -7,21.453125 -7,6.8125 -22.09375,6.8125 z m -9.85937,8.109375 h 20.26562 q 21.1875,0 31.09375,-8.8125 9.92188,-8.8125 9.92188,-27.5625 0,-18.859375 -9.96875,-27.703125 Q 260.05859,0 238.96484,0 h -20.26562 z"
                 style="stroke-width:0.015625" />
              <path
                 id="use87"
                 d="m 305.56055,64.796875 v -56.6875 h 11.92187 q 15.09375,0 22.09375,6.828125 7,6.84375 7,21.59375 0,14.640625 -7,21.453125 -7,6.8125 -22.09375,6.8125 z m -9.85938,8.109375 h 20.26563 q 21.1875,0 31.09375,-8.8125 9.92187,-8.8125 9.92187,-27.5625 0,-18.859375 -9.96875,-27.703125 Q 337.06055,0 315.9668,0 h -20.26563 z"
                 style="stroke-width:0.015625" />
            </g>
          </g>
        </g>
        <g
           id="text_16">
          <!-- Method's name -->
          <g
             transform="matrix(0.18,0,0,-0.18,391.19359,417.69045)"
             id="g100">
            <defs
               id="defs87">
              <path
                 id="DejaVuSans-68"
                 d="M 3513,2113 V 0 h -575 v 2094 q 0,497 -194,743 -194,247 -581,247 -466,0 -735,-297 -269,-296 -269,-809 V 0 H 581 v 4863 h 578 V 2956 q 207,316 486,472 280,156 646,156 603,0 912,-373 310,-373 310,-1098 z"
                 transform="scale(0.015625)" />
              <path
                 id="DejaVuSans-27"
                 d="M 1147,4666 V 2931 H 616 v 1735 z"
                 transform="scale(0.015625)" />
              <path
                 id="DejaVuSans-20"
                 transform="scale(0.015625)"
                 d="" />
              <path
                 id="DejaVuSans-6d"
                 d="m 3328,2828 q 216,388 516,572 300,184 706,184 547,0 844,-383 297,-382 297,-1088 V 0 h -578 v 2094 q 0,503 -179,746 -178,244 -543,244 -447,0 -707,-297 -259,-296 -259,-809 V 0 h -578 v 2094 q 0,506 -178,748 -178,242 -550,242 -441,0 -701,-298 -259,-298 -259,-808 V 0 H 581 v 3500 h 578 v -544 q 197,322 472,475 275,153 653,153 382,0 649,-194 267,-193 395,-562 z"
                 transform="scale(0.015625)" />
            </defs>
            <path
               id="use88"
               d="M 9.8125,72.90625 H 24.515625 L 43.109375,23.296875 61.8125,72.90625 H 76.515625 V 0 h -9.625 v 64.015625 l -18.796875,-50 H 38.1875 l -18.796875,50 V 0 H 9.8125 Z"
               style="stroke-width:0.015625" />
            <path
               id="use89"
               d="m 142.48242,29.59375 v -4.390625 h -41.3125 q 0.59375,-9.28125 5.59375,-14.140625 5,-4.859375 13.9375,-4.859375 5.17188,0 10.03125,1.265625 4.85938,1.265625 9.65625,3.8125 v -8.5 q -4.84375,-2.046875 -9.92187,-3.125 -5.07813,-1.078125 -10.29688,-1.078125 -13.09375,0 -20.734373,7.609375 -7.640625,7.625 -7.640625,20.625 0,13.421875 7.25,21.296875 Q 106.29492,56 118.60742,56 q 11.03125,0 17.45313,-7.109375 6.42187,-7.09375 6.42187,-19.296875 z m -8.98437,2.640625 q -0.0937,7.359375 -4.125,11.75 -4.03125,4.40625 -10.67188,4.40625 -7.51562,0 -12.03125,-4.25 -4.51562,-4.25 -5.20312,-11.96875 z"
               style="stroke-width:0.015625" />
            <use
               xlink:href="#DejaVuSans-74"
               x="147.80273"
               id="use90" />
            <use
               xlink:href="#DejaVuSans-68"
               x="187.01172"
               id="use91" />
            <use
               xlink:href="#DejaVuSans-6f"
               x="250.39062"
               id="use92" />
            <path
               id="use93"
               d="m 356.97852,46.390625 v 29.59375 h 8.98437 V 0 h -8.98437 v 8.203125 q -2.82813,-4.875 -7.15625,-7.25 -4.3125,-2.375 -10.375,-2.375 -9.90625,0 -16.14063,7.90625 -6.21875,7.921875 -6.21875,20.8125 0,12.890625 6.21875,20.796875 Q 329.54102,56 339.44727,56 q 6.0625,0 10.375,-2.375 4.32812,-2.359375 7.15625,-7.234375 z m -30.60938,-19.09375 q 0,-9.90625 4.07813,-15.546875 4.07812,-5.640625 11.20312,-5.640625 7.125,0 11.21875,5.640625 4.10938,5.640625 4.10938,15.546875 0,9.90625 -4.10938,15.546875 -4.09375,5.640625 -11.21875,5.640625 -7.125,0 -11.20312,-5.640625 -4.07813,-5.640625 -4.07813,-15.546875 z"
               style="stroke-width:0.015625" />
            <use
               xlink:href="#DejaVuSans-27"
               x="375.04883"
               id="use94" />
            <use
               xlink:href="#DejaVuSans-73"
               x="402.53906"
               id="use95" />
            <use
               xlink:href="#DejaVuSans-20"
               x="454.63867"
               id="use96" />
            <path
               id="use97"
               d="M 541.31641,33.015625 V 0 h -8.98438 v 32.71875 q 0,7.765625 -3.03125,11.609375 -3.03125,3.859375 -9.07812,3.859375 -7.28125,0 -11.48438,-4.640625 -4.20312,-4.625 -4.20312,-12.640625 V 0 h -9.03125 v 54.6875 h 9.03125 v -8.5 q 3.23437,4.9375 7.59375,7.375 4.375,2.4375 10.09375,2.4375 9.42187,0 14.25,-5.828125 4.84375,-5.828125 4.84375,-17.15625 z"
               style="stroke-width:0.015625" />
            <path
               id="use98"
               d="m 584.08594,27.484375 q -10.89063,0 -15.09375,-2.484375 -4.20313,-2.484375 -4.20313,-8.5 0,-4.78125 3.15625,-7.59375 3.15625,-2.796875 8.5625,-2.796875 7.48438,0 12,5.296875 4.51563,5.296875 4.51563,14.078125 v 2 z m 17.92187,3.71875 V 0 h -8.98437 v 8.296875 q -3.07813,-4.96875 -7.67188,-7.34375 -4.59375,-2.375 -11.23437,-2.375 -8.39063,0 -13.35938,4.71875 -4.95312,4.71875 -4.95312,12.625 0,9.21875 6.17187,13.90625 6.1875,4.6875 18.4375,4.6875 h 12.60938 v 0.890625 q 0,6.203125 -4.07813,9.59375 -4.07812,3.390625 -11.45312,3.390625 -4.6875,0 -9.14063,-1.125 -4.4375,-1.125 -8.53125,-3.375 v 8.3125 q 4.92188,1.90625 9.5625,2.84375 Q 574.02344,56 578.41406,56 q 11.875,0 17.73438,-6.15625 5.85937,-6.140625 5.85937,-18.640625 z"
               style="stroke-width:0.015625" />
            <use
               xlink:href="#DejaVuSans-6d"
               x="611.08398"
               id="use99" />
            <path
               id="use100"
               d="m 764.69922,29.59375 v -4.390625 h -41.3125 q 0.59375,-9.28125 5.59375,-14.140625 5,-4.859375 13.9375,-4.859375 5.17187,0 10.03125,1.265625 4.85937,1.265625 9.65625,3.8125 v -8.5 q -4.84375,-2.046875 -9.92188,-3.125 -5.07812,-1.078125 -10.29687,-1.078125 -13.09375,0 -20.73438,7.609375 -7.64062,7.625 -7.64062,20.625 0,13.421875 7.25,21.296875 Q 728.51172,56 740.82422,56 q 11.03125,0 17.45312,-7.109375 6.42188,-7.09375 6.42188,-19.296875 z m -8.98438,2.640625 q -0.0937,7.359375 -4.125,11.75 -4.03125,4.40625 -10.67187,4.40625 -7.51563,0 -12.03125,-4.25 -4.51563,-4.25 -5.20313,-11.96875 z"
               style="stroke-width:0.015625" />
          </g>
        </g>
        <text
           xml:space="preserve"
           style="font-size:18px;line-height:1.25;font-family:sans-serif;-inkscape-font-specification:'sans-serif, Normal';stroke-width:0.75;stroke-linecap:butt;stroke-linejoin:round"
           x="-148.21533"
           y="348.57419"
           id="text1"
           transform="rotate(-38.047705)"><tspan
             sodipodi:role="line"
             id="tspan1"
             style="font-size:18px;stroke-width:0.75"
             x="-148.21533"
             y="348.57419">LANDM</tspan></text>
        <text
           xml:space="preserve"
           style="font-size:18px;line-height:1.25;font-family:sans-serif;-inkscape-font-specification:'sans-serif, Normal';stroke-width:0.75;stroke-linecap:butt;stroke-linejoin:round"
           x="-106.76954"
           y="381.15039"
           id="text1-6"
           transform="rotate(-38.047705)"><tspan
             sodipodi:role="line"
             id="tspan1-7"
             style="font-size:18px;stroke-width:0.75"
             x="-106.76954"
             y="381.15039">ANDM</tspan></text>
      </g>
      <g
         id="matplotlib.axis_2">
        <g
           id="ytick_1">
          <g
             id="line2d_1">
            <path
               d="M 67.79,305.69147 H 853.2"
               clip-path="url(#p12f5a7d6ce)"
               style="fill:none;stroke:#eeeeee;stroke-width:0.8;stroke-linecap:square"
               id="path100" />
          </g>
          <g
             id="text_17">
            <!-- 0.0 -->
            <g
               transform="matrix(0.18,0,0,-0.18,32.164375,312.53006)"
               id="g103">
              <defs
                 id="defs100">
                <path
                   id="DejaVuSans-30"
                   d="m 2034,4250 q -487,0 -733,-480 -245,-479 -245,-1442 0,-959 245,-1439 246,-480 733,-480 491,0 736,480 246,480 246,1439 0,963 -246,1442 -245,480 -736,480 z m 0,500 q 785,0 1199,-621 414,-620 414,-1801 0,-1178 -414,-1799 -414,-620 -1199,-620 -784,0 -1198,620 -414,621 -414,1799 0,1181 414,1801 414,621 1198,621 z"
                   transform="scale(0.015625)" />
                <path
                   id="DejaVuSans-2e"
                   d="m 684,794 h 660 V 0 H 684 Z"
                   transform="scale(0.015625)" />
              </defs>
              <use
                 xlink:href="#DejaVuSans-30"
                 id="use101" />
              <use
                 xlink:href="#DejaVuSans-2e"
                 x="63.623047"
                 id="use102" />
              <use
                 xlink:href="#DejaVuSans-30"
                 x="95.410156"
                 id="use103" />
            </g>
          </g>
        </g>
        <g
           id="ytick_2">
          <g
             id="line2d_2">
            <path
               d="M 67.79,261.70601 H 853.2"
               clip-path="url(#p12f5a7d6ce)"
               style="fill:none;stroke:#eeeeee;stroke-width:0.8;stroke-linecap:square"
               id="path103" />
          </g>
          <g
             id="text_18">
            <!-- 0.1 -->
            <g
               transform="matrix(0.18,0,0,-0.18,32.164375,268.5446)"
               id="g106">
              <defs
                 id="defs103">
                <path
                   id="DejaVuSans-31"
                   d="M 794,531 H 1825 V 4091 L 703,3866 v 575 l 1116,225 h 631 V 531 H 3481 V 0 H 794 Z"
                   transform="scale(0.015625)" />
              </defs>
              <use
                 xlink:href="#DejaVuSans-30"
                 id="use104" />
              <use
                 xlink:href="#DejaVuSans-2e"
                 x="63.623047"
                 id="use105" />
              <use
                 xlink:href="#DejaVuSans-31"
                 x="95.410156"
                 id="use106" />
            </g>
          </g>
        </g>
        <g
           id="ytick_3">
          <g
             id="line2d_3">
            <path
               d="M 67.79,217.72055 H 853.2"
               clip-path="url(#p12f5a7d6ce)"
               style="fill:none;stroke:#eeeeee;stroke-width:0.8;stroke-linecap:square"
               id="path106" />
          </g>
          <g
             id="text_19">
            <!-- 0.2 -->
            <g
               transform="matrix(0.18,0,0,-0.18,32.164375,224.55914)"
               id="g109">
              <defs
                 id="defs106">
                <path
                   id="DejaVuSans-32"
                   d="M 1228,531 H 3431 V 0 H 469 v 531 q 359,372 979,998 621,627 780,809 303,340 423,576 121,236 121,464 0,372 -261,606 -261,235 -680,235 -297,0 -627,-103 -329,-103 -704,-313 v 638 q 381,153 712,231 332,78 607,78 725,0 1156,-363 431,-362 431,-968 0,-288 -108,-546 -107,-257 -392,-607 -78,-91 -497,-524 Q 1991,1309 1228,531 Z"
                   transform="scale(0.015625)" />
              </defs>
              <use
                 xlink:href="#DejaVuSans-30"
                 id="use107" />
              <use
                 xlink:href="#DejaVuSans-2e"
                 x="63.623047"
                 id="use108" />
              <use
                 xlink:href="#DejaVuSans-32"
                 x="95.410156"
                 id="use109" />
            </g>
          </g>
        </g>
        <g
           id="ytick_4">
          <g
             id="line2d_4">
            <path
               d="M 67.79,173.73508 H 853.2"
               clip-path="url(#p12f5a7d6ce)"
               style="fill:none;stroke:#eeeeee;stroke-width:0.8;stroke-linecap:square"
               id="path109" />
          </g>
          <g
             id="text_20">
            <!-- 0.3 -->
            <g
               transform="matrix(0.18,0,0,-0.18,32.164375,180.57368)"
               id="g112">
              <defs
                 id="defs109">
                <path
                   id="DejaVuSans-33"
                   d="m 2597,2516 q 453,-97 707,-404 255,-306 255,-756 0,-690 -475,-1069 -475,-378 -1350,-378 -293,0 -604,58 -311,58 -642,174 v 609 q 262,-153 574,-231 313,-78 654,-78 593,0 904,234 311,234 311,681 0,413 -289,645 -289,233 -804,233 h -544 v 519 h 569 q 465,0 712,186 247,186 247,536 0,359 -255,551 -254,193 -729,193 -260,0 -557,-57 -297,-56 -653,-174 v 562 q 360,100 674,150 314,50 592,50 719,0 1137,-327 419,-326 419,-882 0,-388 -222,-655 -222,-267 -631,-370 z"
                   transform="scale(0.015625)" />
              </defs>
              <use
                 xlink:href="#DejaVuSans-30"
                 id="use110" />
              <use
                 xlink:href="#DejaVuSans-2e"
                 x="63.623047"
                 id="use111" />
              <use
                 xlink:href="#DejaVuSans-33"
                 x="95.410156"
                 id="use112" />
            </g>
          </g>
        </g>
        <g
           id="ytick_5">
          <g
             id="line2d_5">
            <path
               d="M 67.79,129.74962 H 853.2"
               clip-path="url(#p12f5a7d6ce)"
               style="fill:none;stroke:#eeeeee;stroke-width:0.8;stroke-linecap:square"
               id="path112" />
          </g>
          <g
             id="text_21">
            <!-- 0.4 -->
            <g
               transform="matrix(0.18,0,0,-0.18,32.164375,136.58822)"
               id="g115">
              <defs
                 id="defs112">
                <path
                   id="DejaVuSans-34"
                   d="M 2419,4116 825,1625 h 1594 z m -166,550 h 794 V 1625 h 666 V 1100 H 3047 V 0 H 2419 V 1100 H 313 v 609 z"
                   transform="scale(0.015625)" />
              </defs>
              <use
                 xlink:href="#DejaVuSans-30"
                 id="use113" />
              <use
                 xlink:href="#DejaVuSans-2e"
                 x="63.623047"
                 id="use114" />
              <use
                 xlink:href="#DejaVuSans-34"
                 x="95.410156"
                 id="use115" />
            </g>
          </g>
        </g>
        <g
           id="ytick_6">
          <g
             id="line2d_6">
            <path
               d="M 67.79,85.764162 H 853.2"
               clip-path="url(#p12f5a7d6ce)"
               style="fill:none;stroke:#eeeeee;stroke-width:0.8;stroke-linecap:square"
               id="path115" />
          </g>
          <g
             id="text_22">
            <!-- 0.5 -->
            <g
               transform="matrix(0.18,0,0,-0.18,32.164375,92.602756)"
               id="g118">
              <defs
                 id="defs115">
                <path
                   id="DejaVuSans-35"
                   d="M 691,4666 H 3169 V 4134 H 1269 V 2991 q 137,47 274,70 138,23 276,23 781,0 1237,-428 457,-428 457,-1159 Q 3513,744 3044,326 2575,-91 1722,-91 1428,-91 1123,-41 819,9 494,109 v 635 q 281,-153 581,-228 300,-75 634,-75 541,0 856,284 316,284 316,772 0,487 -316,771 -315,285 -856,285 -253,0 -505,-56 -251,-56 -513,-175 z"
                   transform="scale(0.015625)" />
              </defs>
              <use
                 xlink:href="#DejaVuSans-30"
                 id="use116" />
              <use
                 xlink:href="#DejaVuSans-2e"
                 x="63.623047"
                 id="use117" />
              <use
                 xlink:href="#DejaVuSans-35"
                 x="95.410156"
                 id="use118" />
            </g>
          </g>
        </g>
        <g
           id="ytick_7">
          <g
             id="line2d_7">
            <path
               d="M 67.79,41.778701 H 853.2"
               clip-path="url(#p12f5a7d6ce)"
               style="fill:none;stroke:#eeeeee;stroke-width:0.8;stroke-linecap:square"
               id="path118" />
          </g>
          <g
             id="text_23">
            <!-- 0.6 -->
            <g
               transform="matrix(0.18,0,0,-0.18,32.164375,48.617294)"
               id="g121">
              <defs
                 id="defs118">
                <path
                   id="DejaVuSans-36"
                   d="m 2113,2584 q -425,0 -674,-291 -248,-290 -248,-796 0,-503 248,-796 249,-292 674,-292 425,0 673,292 248,293 248,796 0,506 -248,796 -248,291 -673,291 z m 1253,1979 v -575 q -238,112 -480,171 -242,60 -480,60 -625,0 -955,-422 -329,-422 -376,-1275 184,272 462,417 279,145 613,145 703,0 1111,-427 408,-426 408,-1160 0,-719 -425,-1154 -425,-434 -1131,-434 -810,0 -1238,620 -428,621 -428,1799 0,1106 525,1764 525,658 1409,658 238,0 480,-47 242,-47 505,-140 z"
                   transform="scale(0.015625)" />
              </defs>
              <use
                 xlink:href="#DejaVuSans-30"
                 id="use119" />
              <use
                 xlink:href="#DejaVuSans-2e"
                 x="63.623047"
                 id="use120" />
              <use
                 xlink:href="#DejaVuSans-36"
                 x="95.410156"
                 id="use121" />
            </g>
          </g>
        </g>
        <g
           id="text_24">
          <!-- AUC-PR -->
          <g
             transform="matrix(0,-0.18,-0.18,0,24.420937,200.24105)"
             id="g127">
            <defs
               id="defs121">
              <path
                 id="DejaVuSans-55"
                 d="m 556,4666 h 635 V 1831 q 0,-750 271,-1080 272,-329 882,-329 606,0 878,329 272,330 272,1080 v 2835 h 634 V 1753 Q 4128,841 3676,375 3225,-91 2344,-91 1459,-91 1007,375 556,841 556,1753 Z"
                 transform="scale(0.015625)" />
              <path
                 id="DejaVuSans-52"
                 d="m 2841,2188 q 203,-69 395,-294 192,-225 386,-619 L 4263,0 h -679 l -596,1197 q -232,469 -449,622 -217,153 -592,153 H 1259 V 0 H 628 v 4666 h 1425 q 800,0 1194,-335 394,-334 394,-1009 0,-441 -205,-732 -205,-290 -595,-402 z M 1259,4147 V 2491 h 794 q 456,0 689,211 233,211 233,620 0,409 -233,617 -233,208 -689,208 z"
                 transform="scale(0.015625)" />
            </defs>
            <path
               id="use122"
               d="M 34.1875,63.1875 20.796875,26.90625 h 26.8125 z m -5.578125,9.71875 h 11.1875 L 67.578125,0 h -10.25 L 50.6875,18.703125 H 17.828125 L 11.1875,0 H 0.78125 Z"
               style="stroke-width:0.015625" />
            <use
               xlink:href="#DejaVuSans-55"
               x="68.408203"
               id="use123" />
            <use
               xlink:href="#DejaVuSans-43"
               x="141.60156"
               id="use124" />
            <path
               id="use125"
               d="m 216.31641,31.390625 h 26.3125 v -8 h -26.3125 z"
               style="stroke-width:0.015625" />
            <use
               xlink:href="#DejaVuSans-50"
               x="247.50977"
               id="use126" />
            <use
               xlink:href="#DejaVuSans-52"
               x="307.8125"
               id="use127" />
          </g>
        </g>
      </g>
      <g
         id="patch_3">
        <path
           d="m 103.49045,305.69147 h 38.59509 V 40.156737 h -38.59509 z"
           clip-path="url(#p12f5a7d6ce)"
           style="fill:#08306b"
           id="path127" />
      </g>
      <g
         id="patch_4">
        <path
           d="M 151.73431,305.69147 H 190.3294 V 50.227575 h -38.59509 z"
           clip-path="url(#p12f5a7d6ce)"
           style="fill:#084387"
           id="path128" />
      </g>
      <g
         id="patch_5">
        <path
           d="m 199.97817,305.69147 h 38.59509 V 75.812452 h -38.59509 z"
           clip-path="url(#p12f5a7d6ce)"
           style="fill:#0b559f"
           id="path129" />
      </g>
      <g
         id="patch_6">
        <path
           d="m 248.22203,305.69147 h 38.59508 V 105.0078 h -38.59508 z"
           clip-path="url(#p12f5a7d6ce)"
           style="fill:#1967ad"
           id="path130" />
      </g>
      <g
         id="patch_7">
        <path
           d="m 296.46589,305.69147 h 38.59508 V 109.71791 h -38.59508 z"
           clip-path="url(#p12f5a7d6ce)"
           style="fill:#2b7bba"
           id="path131" />
      </g>
      <g
         id="patch_8">
        <path
           d="m 344.70974,305.69147 h 38.59509 V 119.74293 h -38.59509 z"
           clip-path="url(#p12f5a7d6ce)"
           style="fill:#3d8dc4"
           id="path132" />
      </g>
      <g
         id="patch_9">
        <path
           d="m 392.9536,305.69147 h 38.59509 V 123.70162 H 392.9536 Z"
           clip-path="url(#p12f5a7d6ce)"
           style="fill:#539ecd"
           id="path133" />
      </g>
      <g
         id="patch_10">
        <path
           d="m 441.19746,305.69147 h 38.59508 V 131.67399 h -38.59508 z"
           clip-path="url(#p12f5a7d6ce)"
           style="fill:#6aaed6"
           id="path134" />
      </g>
      <g
         id="patch_11">
        <path
           d="M 489.44131,305.69147 H 528.0364 V 158.98163 h -38.59509 z"
           clip-path="url(#p12f5a7d6ce)"
           style="fill:#89bedc"
           id="path135" />
      </g>
      <g
         id="patch_12">
        <path
           d="m 537.68517,305.69147 h 38.59509 V 164.2049 h -38.59509 z"
           clip-path="url(#p12f5a7d6ce)"
           style="fill:#a4cce3"
           id="path136" />
      </g>
      <g
         id="patch_13">
        <path
           d="m 585.92903,305.69147 h 38.59509 V 183.24694 h -38.59509 z"
           clip-path="url(#p12f5a7d6ce)"
           style="fill:#bad6eb"
           id="path137" />
      </g>
      <g
         id="patch_14">
        <path
           d="m 634.17289,305.69147 h 38.59508 v -115.5718 h -38.59508 z"
           clip-path="url(#p12f5a7d6ce)"
           style="fill:#cde0f1"
           id="path138" />
      </g>
      <g
         id="patch_15">
        <path
           d="m 682.41674,305.69147 h 38.59509 V 199.53989 h -38.59509 z"
           clip-path="url(#p12f5a7d6ce)"
           style="fill:#dbe9f6"
           id="path139" />
      </g>
      <g
         id="patch_16">
        <path
           d="m 730.6606,305.69147 h 38.59509 v -99.847 H 730.6606 Z"
           clip-path="url(#p12f5a7d6ce)"
           style="fill:#e9f2fa"
           id="path140" />
      </g>
      <g
         id="patch_17">
        <path
           d="m 778.90446,305.69147 h 38.59508 v -94.34882 h -38.59508 z"
           clip-path="url(#p12f5a7d6ce)"
           style="fill:#f7fbff"
           id="path141" />
      </g>
      <g
         id="patch_18">
        <path
           d="M 67.79,305.69147 H 853.2"
           style="fill:none;stroke:#dddddd;stroke-width:0.8;stroke-linecap:square;stroke-linejoin:miter"
           id="path142" />
      </g>
      <g
         id="text_25">
        <!-- 0.6 -->
        <g
           style="fill:#08306b"
           transform="matrix(0.1,0,0,-0.1,113.93097,26.961098)"
           id="g144">
          <defs
             id="defs142">
            <path
               id="DejaVuSans-Bold-30"
               d="m 2944,2338 q 0,875 -164,1232 -164,358 -552,358 -387,0 -553,-358 -166,-357 -166,-1232 0,-885 166,-1248 166,-362 553,-362 385,0 550,362 166,363 166,1248 z m 1203,-10 Q 4147,1169 3647,539 3147,-91 2228,-91 1306,-91 806,539 306,1169 306,2328 q 0,1163 500,1792 500,630 1422,630 919,0 1419,-630 500,-629 500,-1792 z"
               transform="scale(0.015625)" />
            <path
               id="DejaVuSans-Bold-2e"
               d="M 653,1209 H 1778 V 0 H 653 Z"
               transform="scale(0.015625)" />
            <path
               id="DejaVuSans-Bold-36"
               d="m 2316,2303 q -316,0 -474,-205 -158,-204 -158,-614 0,-409 158,-614 158,-204 474,-204 318,0 476,204 158,205 158,614 0,410 -158,614 -158,205 -476,205 z m 1487,2241 v -863 q -297,141 -560,208 -262,67 -512,67 -537,0 -837,-299 -300,-298 -350,-885 206,153 446,229 241,77 526,77 715,0 1154,-419 439,-418 439,-1096 0,-750 -491,-1202 -490,-452 -1315,-452 -909,0 -1408,614 -498,615 -498,1743 0,1156 583,1817 583,661 1598,661 322,0 625,-50 303,-50 600,-150 z"
               transform="scale(0.015625)" />
          </defs>
          <use
             xlink:href="#DejaVuSans-Bold-30"
             id="use142" />
          <use
             xlink:href="#DejaVuSans-Bold-2e"
             x="69.580078"
             id="use143" />
          <use
             xlink:href="#DejaVuSans-Bold-36"
             x="107.56836"
             id="use144" />
        </g>
      </g>
      <g
         id="text_26">
        <!-- 0.58 -->
        <g
           style="fill:#08306b"
           transform="matrix(0.1,0,0,-0.1,158.69592,37.031936)"
           id="g148">
          <defs
             id="defs144">
            <path
               id="DejaVuSans-Bold-35"
               d="M 678,4666 H 3669 V 3781 H 1638 v -722 q 137,38 276,58 139,21 289,21 853,0 1328,-427 475,-427 475,-1189 0,-756 -517,-1185 -517,-428 -1436,-428 -397,0 -786,77 -389,77 -773,233 v 947 q 381,-219 723,-329 342,-109 646,-109 437,0 688,214 252,214 252,580 0,369 -252,581 -251,213 -688,213 -260,0 -554,-68 -293,-67 -631,-207 z"
               transform="scale(0.015625)" />
            <path
               id="DejaVuSans-Bold-38"
               d="m 2228,2088 q -337,0 -519,-185 -181,-184 -181,-528 0,-344 181,-527 182,-182 519,-182 335,0 513,182 178,183 178,527 0,347 -178,530 -178,183 -513,183 z m -878,396 q -425,129 -641,394 -215,266 -215,663 0,590 440,899 441,310 1294,310 847,0 1287,-308 441,-308 441,-901 0,-397 -217,-663 -217,-265 -642,-394 475,-131 717,-426 242,-295 242,-745 Q 4056,619 3595,264 3134,-91 2228,-91 1319,-91 855,264 391,619 391,1313 q 0,450 242,745 242,295 717,426 z m 281,935 q 0,-278 155,-428 155,-150 442,-150 281,0 434,150 154,150 154,428 0,278 -154,426 -153,149 -434,149 -287,0 -442,-150 -155,-150 -155,-425 z"
               transform="scale(0.015625)" />
          </defs>
          <use
             xlink:href="#DejaVuSans-Bold-30"
             id="use145" />
          <use
             xlink:href="#DejaVuSans-Bold-2e"
             x="69.580078"
             id="use146" />
          <use
             xlink:href="#DejaVuSans-Bold-35"
             x="107.56836"
             id="use147" />
          <use
             xlink:href="#DejaVuSans-Bold-38"
             x="177.14844"
             id="use148" />
        </g>
      </g>
      <g
         id="text_27">
        <!-- 0.52 -->
        <g
           style="fill:#08306b"
           transform="matrix(0.1,0,0,-0.1,206.93977,62.616813)"
           id="g152">
          <defs
             id="defs148">
            <path
               id="DejaVuSans-Bold-32"
               d="M 1844,884 H 3897 V 0 H 506 v 884 l 1703,1504 q 229,206 338,403 109,197 109,409 0,328 -220,528 -220,200 -586,200 -281,0 -616,-120 -334,-120 -715,-358 v 1025 q 406,134 803,204 397,71 778,71 838,0 1302,-369 464,-368 464,-1028 0,-381 -197,-711 -197,-329 -828,-883 z"
               transform="scale(0.015625)" />
          </defs>
          <use
             xlink:href="#DejaVuSans-Bold-30"
             id="use149" />
          <use
             xlink:href="#DejaVuSans-Bold-2e"
             x="69.580078"
             id="use150" />
          <use
             xlink:href="#DejaVuSans-Bold-35"
             x="107.56836"
             id="use151" />
          <use
             xlink:href="#DejaVuSans-Bold-32"
             x="177.14844"
             id="use152" />
        </g>
      </g>
      <g
         id="text_28">
        <!-- 0.46 -->
        <g
           style="fill:#08306b"
           transform="matrix(0.1,0,0,-0.1,255.18363,91.812163)"
           id="g156">
          <defs
             id="defs152">
            <path
               id="DejaVuSans-Bold-34"
               d="M 2356,3675 1038,1722 h 1318 z m -200,991 H 3494 V 1722 h 665 V 850 H 3494 V 0 H 2356 V 850 H 288 v 1031 z"
               transform="scale(0.015625)" />
          </defs>
          <use
             xlink:href="#DejaVuSans-Bold-30"
             id="use153" />
          <use
             xlink:href="#DejaVuSans-Bold-2e"
             x="69.580078"
             id="use154" />
          <use
             xlink:href="#DejaVuSans-Bold-34"
             x="107.56836"
             id="use155" />
          <use
             xlink:href="#DejaVuSans-Bold-36"
             x="177.14844"
             id="use156" />
        </g>
      </g>
      <g
         id="text_29">
        <!-- 0.45 -->
        <g
           style="fill:#08306b"
           transform="matrix(0.1,0,0,-0.1,303.42749,96.522273)"
           id="g160">
          <use
             xlink:href="#DejaVuSans-Bold-30"
             id="use157" />
          <use
             xlink:href="#DejaVuSans-Bold-2e"
             x="69.580078"
             id="use158" />
          <use
             xlink:href="#DejaVuSans-Bold-34"
             x="107.56836"
             id="use159" />
          <use
             xlink:href="#DejaVuSans-Bold-35"
             x="177.14844"
             id="use160" />
        </g>
      </g>
      <g
         id="text_30">
        <!-- 0.42 -->
        <g
           style="fill:#08306b"
           transform="matrix(0.1,0,0,-0.1,351.67135,106.54729)"
           id="g164">
          <use
             xlink:href="#DejaVuSans-Bold-30"
             id="use161" />
          <use
             xlink:href="#DejaVuSans-Bold-2e"
             x="69.580078"
             id="use162" />
          <use
             xlink:href="#DejaVuSans-Bold-34"
             x="107.56836"
             id="use163" />
          <use
             xlink:href="#DejaVuSans-Bold-32"
             x="177.14844"
             id="use164" />
        </g>
      </g>
      <g
         id="text_31">
        <!-- 0.41 -->
        <g
           style="fill:#08306b"
           transform="matrix(0.1,0,0,-0.1,399.91521,110.50598)"
           id="g168">
          <defs
             id="defs164">
            <path
               id="DejaVuSans-Bold-31"
               d="M 750,831 H 1813 V 3847 L 722,3622 v 819 l 1084,225 H 2950 V 831 H 4013 V 0 H 750 Z"
               transform="scale(0.015625)" />
          </defs>
          <use
             xlink:href="#DejaVuSans-Bold-30"
             id="use165" />
          <use
             xlink:href="#DejaVuSans-Bold-2e"
             x="69.580078"
             id="use166" />
          <use
             xlink:href="#DejaVuSans-Bold-34"
             x="107.56836"
             id="use167" />
          <use
             xlink:href="#DejaVuSans-Bold-31"
             x="177.14844"
             id="use168" />
        </g>
      </g>
      <g
         id="text_32">
        <!-- 0.4 -->
        <g
           style="fill:#08306b"
           transform="matrix(0.1,0,0,-0.1,451.63797,118.47835)"
           id="g171">
          <use
             xlink:href="#DejaVuSans-Bold-30"
             id="use169" />
          <use
             xlink:href="#DejaVuSans-Bold-2e"
             x="69.580078"
             id="use170" />
          <use
             xlink:href="#DejaVuSans-Bold-34"
             x="107.56836"
             id="use171" />
        </g>
      </g>
      <g
         id="text_33">
        <!-- 0.33 -->
        <g
           style="fill:#08306b"
           transform="matrix(0.1,0,0,-0.1,496.40292,145.78599)"
           id="g175">
          <defs
             id="defs171">
            <path
               id="DejaVuSans-Bold-33"
               d="m 2981,2516 q 472,-122 717,-424 246,-301 246,-767 0,-694 -532,-1055 -531,-361 -1549,-361 -360,0 -721,58 -361,58 -714,174 v 928 q 338,-169 670,-255 333,-86 655,-86 478,0 733,165 255,166 255,476 0,319 -261,483 -261,164 -771,164 h -481 v 775 h 506 q 454,0 675,142 222,142 222,433 0,268 -216,415 -215,147 -609,147 -290,0 -587,-66 -297,-65 -591,-193 v 881 q 356,100 706,150 350,50 688,50 909,0 1360,-299 452,-298 452,-898 0,-409 -216,-670 -215,-261 -637,-367 z"
               transform="scale(0.015625)" />
          </defs>
          <use
             xlink:href="#DejaVuSans-Bold-30"
             id="use172" />
          <use
             xlink:href="#DejaVuSans-Bold-2e"
             x="69.580078"
             id="use173" />
          <use
             xlink:href="#DejaVuSans-Bold-33"
             x="107.56836"
             id="use174" />
          <use
             xlink:href="#DejaVuSans-Bold-33"
             x="177.14844"
             id="use175" />
        </g>
      </g>
      <g
         id="text_34">
        <!-- 0.32 -->
        <g
           style="fill:#08306b"
           transform="matrix(0.1,0,0,-0.1,544.64678,151.00926)"
           id="g179">
          <use
             xlink:href="#DejaVuSans-Bold-30"
             id="use176" />
          <use
             xlink:href="#DejaVuSans-Bold-2e"
             x="69.580078"
             id="use177" />
          <use
             xlink:href="#DejaVuSans-Bold-33"
             x="107.56836"
             id="use178" />
          <use
             xlink:href="#DejaVuSans-Bold-32"
             x="177.14844"
             id="use179" />
        </g>
      </g>
      <g
         id="text_35">
        <!-- 0.28 -->
        <g
           style="fill:#08306b"
           transform="matrix(0.1,0,0,-0.1,592.89063,170.0513)"
           id="g183">
          <use
             xlink:href="#DejaVuSans-Bold-30"
             id="use180" />
          <use
             xlink:href="#DejaVuSans-Bold-2e"
             x="69.580078"
             id="use181" />
          <use
             xlink:href="#DejaVuSans-Bold-32"
             x="107.56836"
             id="use182" />
          <use
             xlink:href="#DejaVuSans-Bold-38"
             x="177.14844"
             id="use183" />
        </g>
      </g>
      <g
         id="text_36">
        <!-- 0.26 -->
        <g
           style="fill:#08306b"
           transform="matrix(0.1,0,0,-0.1,641.13449,176.92403)"
           id="g187">
          <use
             xlink:href="#DejaVuSans-Bold-30"
             id="use184" />
          <use
             xlink:href="#DejaVuSans-Bold-2e"
             x="69.580078"
             id="use185" />
          <use
             xlink:href="#DejaVuSans-Bold-32"
             x="107.56836"
             id="use186" />
          <use
             xlink:href="#DejaVuSans-Bold-36"
             x="177.14844"
             id="use187" />
        </g>
      </g>
      <g
         id="text_37">
        <!-- 0.24 -->
        <g
           style="fill:#08306b"
           transform="matrix(0.1,0,0,-0.1,689.37835,186.34425)"
           id="g191">
          <use
             xlink:href="#DejaVuSans-Bold-30"
             id="use188" />
          <use
             xlink:href="#DejaVuSans-Bold-2e"
             x="69.580078"
             id="use189" />
          <use
             xlink:href="#DejaVuSans-Bold-32"
             x="107.56836"
             id="use190" />
          <use
             xlink:href="#DejaVuSans-Bold-34"
             x="177.14844"
             id="use191" />
        </g>
      </g>
      <g
         id="text_38">
        <!-- 0.23 -->
        <g
           style="fill:#08306b"
           transform="matrix(0.1,0,0,-0.1,737.62221,192.64883)"
           id="g195">
          <use
             xlink:href="#DejaVuSans-Bold-30"
             id="use192" />
          <use
             xlink:href="#DejaVuSans-Bold-2e"
             x="69.580078"
             id="use193" />
          <use
             xlink:href="#DejaVuSans-Bold-32"
             x="107.56836"
             id="use194" />
          <use
             xlink:href="#DejaVuSans-Bold-33"
             x="177.14844"
             id="use195" />
        </g>
      </g>
      <g
         id="text_39">
        <!-- 0.21 -->
        <g
           style="fill:#08306b"
           transform="matrix(0.1,0,0,-0.1,785.86607,198.14702)"
           id="g199">
          <use
             xlink:href="#DejaVuSans-Bold-30"
             id="use196" />
          <use
             xlink:href="#DejaVuSans-Bold-2e"
             x="69.580078"
             id="use197" />
          <use
             xlink:href="#DejaVuSans-Bold-32"
             x="107.56836"
             id="use198" />
          <use
             xlink:href="#DejaVuSans-Bold-31"
             x="177.14844"
             id="use199" />
        </g>
      </g>
    </g>
  </g>
  <defs
     id="defs214">
    <clipPath
       id="p12f5a7d6ce">
      <rect
         x="67.79"
         y="26.88"
         width="785.41"
         height="278.81147"
         id="rect214" />
    </clipPath>
  </defs>
  <rect
     style="fill:#7ab6d9;fill-opacity:0.154982;stroke:#000000;stroke-width:0.461022;stroke-linecap:butt;stroke-linejoin:round;paint-order:stroke fill markers"
     id="rect201-6-3"
     width="47.803268"
     height="293.4519"
     x="97.541794"
     y="12.255685"
     ry="0" />
  <rect
     style="fill:#7ab6d9;fill-opacity:0.154982;stroke:#000000;stroke-width:0.448644;stroke-linecap:butt;stroke-linejoin:round;paint-order:stroke fill markers"
     id="rect201-6-3-9"
     width="47.190018"
     height="281.51688"
     x="147.99924"
     y="25.496147"
     ry="0" />
</svg>
