<?xml version="1.0" encoding="UTF-8" standalone="no"?>
<svg
   xmlns:dc="http://purl.org/dc/elements/1.1/"
   xmlns:cc="http://creativecommons.org/ns#"
   xmlns:rdf="http://www.w3.org/1999/02/22-rdf-syntax-ns#"
   xmlns:svg="http://www.w3.org/2000/svg"
   xmlns="http://www.w3.org/2000/svg"
   xmlns:xlink="http://www.w3.org/1999/xlink"
   xmlns:sodipodi="http://sodipodi.sourceforge.net/DTD/sodipodi-0.dtd"
   xmlns:inkscape="http://www.inkscape.org/namespaces/inkscape"
   width="50.254292mm"
   height="59.364147mm"
   viewBox="0 0 150.76287 178.09244"
   version="1.1"
   id="svg8"
   inkscape:version="1.0.2 (e86c870879, 2021-01-15)"
   sodipodi:docname="neural_density_flows.svg">
  <defs
     id="defs2">
    <rect
       x="-12.30079"
       y="123.17645"
       width="31.995741"
       height="12.741666"
       id="rect6623" />
    <marker
       style="overflow:visible"
       id="Arrow2Send"
       refX="0"
       refY="0"
       orient="auto"
       inkscape:stockid="Arrow2Send"
       inkscape:isstock="true">
      <path
         transform="matrix(-0.3,0,0,-0.3,0.69,0)"
         d="M 8.7185878,4.0337352 -2.2072895,0.01601326 8.7185884,-4.0017078 c -1.7454984,2.3720609 -1.7354408,5.6174519 -6e-7,8.035443 z"
         style="fill:#999999;fill-opacity:1;fill-rule:evenodd;stroke:#999999;stroke-width:0.625;stroke-linejoin:round;stroke-opacity:1"
         id="path5934" />
    </marker>
    <marker
       style="overflow:visible"
       id="Arrow2Mend"
       refX="0"
       refY="0"
       orient="auto"
       inkscape:stockid="Arrow2Mend"
       inkscape:isstock="true">
      <path
         transform="scale(-0.6)"
         d="M 8.7185878,4.0337352 -2.2072895,0.01601326 8.7185884,-4.0017078 c -1.7454984,2.3720609 -1.7354408,5.6174519 -6e-7,8.035443 z"
         style="fill:#9f9999;fill-opacity:0.563835;fill-rule:evenodd;stroke:#999999;stroke-width:0.625;stroke-linejoin:round;stroke-opacity:1"
         id="path5928" />
    </marker>
    <g
       id="g4572">
      <symbol
         overflow="visible"
         id="symbol6787">
        <path
           style="stroke:none"
           d=""
           id="path4466" />
      </symbol>
      <symbol
         overflow="visible"
         id="symbol6364">
        <path
           style="stroke:none"
           d="M 0.453125,1.21875 C 0.375,1.5625 0.34375,1.625 -0.09375,1.625 c -0.109375,0 -0.21875,0 -0.21875,0.1875 0,0.078125 0.046875,0.125 0.125,0.125 0.265625,0 0.5625,-0.03125 0.828125,-0.03125 0.34375,0 0.671875,0.03125 1,0.03125 0.046875,0 0.171875,0 0.171875,-0.203125 C 1.8125,1.625 1.71875,1.625 1.578125,1.625 c -0.5,0 -0.5,-0.0625 -0.5,-0.15625 0,-0.125 0.421875,-1.75 0.484375,-2 0.125,0.296875 0.40625,0.640625 0.921875,0.640625 1.15625,0 2.40625,-1.453125 2.40625,-2.921875 0,-0.9375 -0.578125,-1.59375 -1.328125,-1.59375 -0.5,0 -0.984375,0.359375 -1.3125,0.75 -0.09375,-0.546875 -0.53125,-0.75 -0.890625,-0.75 -0.46875,0 -0.65625,0.390625 -0.734375,0.5625 C 0.4375,-3.5 0.3125,-2.90625 0.3125,-2.875 c 0,0.109375 0.09375,0.109375 0.109375,0.109375 0.109375,0 0.109375,-0.015625 0.171875,-0.234375 0.171875,-0.703125 0.375,-1.1875 0.734375,-1.1875 0.171875,0 0.3125,0.078125 0.3125,0.453125 0,0.234375 -0.03125,0.34375 -0.078125,0.515625 z m 1.75,-4.328125 C 2.265625,-3.375 2.546875,-3.65625 2.71875,-3.8125 c 0.359375,-0.296875 0.640625,-0.375 0.8125,-0.375 0.390625,0 0.640625,0.34375 0.640625,0.9375 0,0.59375 -0.328125,1.734375 -0.515625,2.109375 -0.34375,0.703125 -0.8125,1.03125 -1.1875,1.03125 C 1.8125,-0.109375 1.6875,-0.9375 1.6875,-1 c 0,-0.015625 0,-0.03125 0.03125,-0.15625 z m 0,0"
           id="path9227" />
      </symbol>
      <symbol
         overflow="visible"
         id="symbol2978">
        <path
           style="stroke:none"
           d="M 3.328125,-3.015625 C 3.390625,-3.265625 3.625,-4.1875 4.3125,-4.1875 c 0.046875,0 0.296875,0 0.5,0.125 C 4.53125,-4 4.34375,-3.765625 4.34375,-3.515625 c 0,0.15625 0.109375,0.34375 0.375,0.34375 0.21875,0 0.53125,-0.171875 0.53125,-0.578125 0,-0.515625 -0.578125,-0.65625 -0.921875,-0.65625 -0.578125,0 -0.921875,0.53125 -1.046875,0.75 -0.25,-0.65625 -0.78125,-0.75 -1.078125,-0.75 -1.03125,0 -1.609375,1.28125 -1.609375,1.53125 0,0.109375 0.109375,0.109375 0.125,0.109375 0.078125,0 0.109375,-0.03125 0.125,-0.109375 0.34375,-1.0625 1,-1.3125 1.34375,-1.3125 0.1875,0 0.53125,0.09375 0.53125,0.671875 0,0.3125 -0.171875,0.96875 -0.53125,2.375 -0.15625,0.609375 -0.515625,1.03125 -0.953125,1.03125 -0.0625,0 -0.28125,0 -0.5,-0.125 0.25,-0.0625 0.46875,-0.265625 0.46875,-0.546875 0,-0.265625 -0.21875,-0.34375 -0.359375,-0.34375 -0.3125,0 -0.546875,0.25 -0.546875,0.578125 0,0.453125 0.484375,0.65625 0.921875,0.65625 0.671875,0 1.03125,-0.703125 1.046875,-0.75 0.125,0.359375 0.484375,0.75 1.078125,0.75 1.03125,0 1.59375,-1.28125 1.59375,-1.53125 0,-0.109375 -0.078125,-0.109375 -0.109375,-0.109375 -0.09375,0 -0.109375,0.046875 -0.140625,0.109375 -0.328125,1.078125 -1,1.3125 -1.3125,1.3125 -0.390625,0 -0.546875,-0.3125 -0.546875,-0.65625 0,-0.21875 0.046875,-0.4375 0.15625,-0.875 z m 0,0"
           id="path7594" />
      </symbol>
      <symbol
         overflow="visible"
         id="symbol8615">
        <path
           style="stroke:none"
           d=""
           id="path6463" />
      </symbol>
      <symbol
         overflow="visible"
         id="symbol2833">
        <path
           style="stroke:none"
           d="m 3.296875,2.390625 c 0,-0.03125 0,-0.046875 -0.171875,-0.21875 C 1.890625,0.921875 1.5625,-0.96875 1.5625,-2.5 c 0,-1.734375 0.375,-3.46875 1.609375,-4.703125 0.125,-0.125 0.125,-0.140625 0.125,-0.171875 0,-0.078125 -0.03125,-0.109375 -0.09375,-0.109375 -0.109375,0 -1,0.6875 -1.59375,1.953125 -0.5,1.09375 -0.625,2.203125 -0.625,3.03125 0,0.78125 0.109375,1.984375 0.65625,3.125 C 2.25,1.84375 3.09375,2.5 3.203125,2.5 c 0.0625,0 0.09375,-0.03125 0.09375,-0.109375 z m 0,0"
           id="path8792" />
      </symbol>
      <symbol
         overflow="visible"
         id="symbol5756">
        <path
           style="stroke:none"
           d="m 2.875,-2.5 c 0,-0.765625 -0.109375,-1.96875 -0.65625,-3.109375 -0.59375,-1.21875 -1.453125,-1.875 -1.546875,-1.875 -0.0625,0 -0.109375,0.046875 -0.109375,0.109375 0,0.03125 0,0.046875 0.1875,0.234375 0.984375,0.984375 1.546875,2.5625 1.546875,4.640625 0,1.71875 -0.359375,3.46875 -1.59375,4.71875 C 0.5625,2.34375 0.5625,2.359375 0.5625,2.390625 0.5625,2.453125 0.609375,2.5 0.671875,2.5 0.765625,2.5 1.671875,1.8125 2.25,0.546875 2.765625,-0.546875 2.875,-1.65625 2.875,-2.5 Z m 0,0"
           id="path8365" />
      </symbol>
    </g>
    <g
       id="g6609">
      <symbol
         overflow="visible"
         id="symbol3421">
        <path
           style="stroke:none"
           d=""
           id="path1653" />
      </symbol>
      <symbol
         overflow="visible"
         id="symbol6921">
        <path
           style="stroke:none"
           d="M 3.328125,-3.015625 C 3.390625,-3.265625 3.625,-4.1875 4.3125,-4.1875 c 0.046875,0 0.296875,0 0.5,0.125 C 4.53125,-4 4.34375,-3.765625 4.34375,-3.515625 c 0,0.15625 0.109375,0.34375 0.375,0.34375 0.21875,0 0.53125,-0.171875 0.53125,-0.578125 0,-0.515625 -0.578125,-0.65625 -0.921875,-0.65625 -0.578125,0 -0.921875,0.53125 -1.046875,0.75 -0.25,-0.65625 -0.78125,-0.75 -1.078125,-0.75 -1.03125,0 -1.609375,1.28125 -1.609375,1.53125 0,0.109375 0.109375,0.109375 0.125,0.109375 0.078125,0 0.109375,-0.03125 0.125,-0.109375 0.34375,-1.0625 1,-1.3125 1.34375,-1.3125 0.1875,0 0.53125,0.09375 0.53125,0.671875 0,0.3125 -0.171875,0.96875 -0.53125,2.375 -0.15625,0.609375 -0.515625,1.03125 -0.953125,1.03125 -0.0625,0 -0.28125,0 -0.5,-0.125 0.25,-0.0625 0.46875,-0.265625 0.46875,-0.546875 0,-0.265625 -0.21875,-0.34375 -0.359375,-0.34375 -0.3125,0 -0.546875,0.25 -0.546875,0.578125 0,0.453125 0.484375,0.65625 0.921875,0.65625 0.671875,0 1.03125,-0.703125 1.046875,-0.75 0.125,0.359375 0.484375,0.75 1.078125,0.75 1.03125,0 1.59375,-1.28125 1.59375,-1.53125 0,-0.109375 -0.078125,-0.109375 -0.109375,-0.109375 -0.09375,0 -0.109375,0.046875 -0.140625,0.109375 -0.328125,1.078125 -1,1.3125 -1.3125,1.3125 -0.390625,0 -0.546875,-0.3125 -0.546875,-0.65625 0,-0.21875 0.046875,-0.4375 0.15625,-0.875 z m 0,0"
           id="path3119" />
      </symbol>
    </g>
    <g
       id="g2323">
      <symbol
         overflow="visible"
         id="symbol8722">
        <path
           style="stroke:none"
           d=""
           id="path2768" />
      </symbol>
      <symbol
         overflow="visible"
         id="symbol1940">
        <path
           style="stroke:none"
           d="m 3.65625,-3.984375 h 0.859375 c 0.203125,0 0.296875,0 0.296875,-0.203125 0,-0.109375 -0.09375,-0.109375 -0.265625,-0.109375 H 3.71875 L 3.921875,-5.4375 c 0.046875,-0.203125 0.1875,-0.90625 0.25,-1.03125 0.078125,-0.1875 0.25,-0.34375 0.46875,-0.34375 0.03125,0 0.296875,0 0.484375,0.1875 -0.4375,0.03125 -0.546875,0.390625 -0.546875,0.53125 0,0.234375 0.1875,0.359375 0.375,0.359375 C 5.21875,-5.734375 5.5,-5.96875 5.5,-6.34375 c 0,-0.453125 -0.453125,-0.6875 -0.859375,-0.6875 -0.34375,0 -0.96875,0.1875 -1.265625,1.171875 -0.0625,0.203125 -0.09375,0.3125 -0.328125,1.5625 h -0.6875 c -0.203125,0 -0.3125,0 -0.3125,0.1875 0,0.125 0.09375,0.125 0.28125,0.125 h 0.65625 L 2.25,-0.046875 c -0.1875,0.96875 -0.359375,1.875 -0.875,1.875 -0.046875,0 -0.28125,0 -0.484375,-0.1875 C 1.359375,1.609375 1.453125,1.25 1.453125,1.109375 1.453125,0.875 1.265625,0.75 1.078125,0.75 0.8125,0.75 0.53125,0.984375 0.53125,1.359375 c 0,0.4375 0.4375,0.6875 0.84375,0.6875 0.546875,0 0.953125,-0.59375 1.125,-0.96875 0.328125,-0.625 0.546875,-1.828125 0.5625,-1.90625 z m 0,0"
           id="path5564" />
      </symbol>
      <symbol
         overflow="visible"
         id="symbol3655">
        <path
           style="stroke:none"
           d=""
           id="path4383" />
      </symbol>
      <symbol
         overflow="visible"
         id="symbol6924">
        <path
           style="stroke:none"
           d="m 3.5625,-3.390625 c 0,-0.734375 -0.28125,-1.515625 -0.96875,-1.515625 -1.046875,0 -2.15625,1.875 -2.15625,3.46875 0,0.828125 0.328125,1.5 0.96875,1.5 1.046875,0 2.15625,-1.890625 2.15625,-3.453125 z m -2.34375,0.84375 c 0.359375,-1.5 0.96875,-2.15625 1.375,-2.15625 0.4375,0 0.4375,0.765625 0.4375,0.890625 0,0.28125 -0.046875,0.6875 -0.1875,1.265625 z m 1.5625,0.25 C 2.578125,-1.53125 2.421875,-1.15625 2.203125,-0.8125 2,-0.453125 1.71875,-0.125 1.40625,-0.125 c -0.375,0 -0.4375,-0.53125 -0.4375,-0.90625 0,-0.453125 0.125,-1 0.1875,-1.265625 z m 0,0"
           id="path3146" />
      </symbol>
      <symbol
         overflow="visible"
         id="symbol219">
        <path
           style="stroke:none"
           d=""
           id="path421" />
      </symbol>
      <symbol
         overflow="visible"
         id="symbol8104">
        <path
           style="stroke:none"
           d="m 4.765625,-2.84375 c 0.03125,-0.125 0.078125,-0.328125 0.53125,-0.34375 0.046875,0 0.125,0 0.125,-0.125 0,-0.03125 -0.015625,-0.09375 -0.078125,-0.09375 -0.09375,0 -0.1875,0.015625 -0.28125,0.015625 -0.09375,0 -0.1875,0 -0.28125,0 -0.09375,0 -0.203125,0 -0.296875,0 -0.09375,0 -0.1875,-0.015625 -0.28125,-0.015625 -0.03125,0 -0.125,0 -0.125,0.140625 0,0.078125 0.078125,0.078125 0.125,0.078125 0.328125,0.015625 0.359375,0.109375 0.359375,0.203125 0,0.03125 -0.015625,0.0625 -0.015625,0.09375 L 4,-0.75 2.5,-3.3125 C 2.453125,-3.40625 2.453125,-3.40625 2.328125,-3.40625 H 1.5625 c -0.109375,0 -0.1875,0 -0.1875,0.140625 0,0.078125 0.078125,0.078125 0.1875,0.078125 0.015625,0 0.21875,0 0.34375,0.03125 L 1.25,-0.5625 c -0.03125,0.140625 -0.078125,0.328125 -0.546875,0.34375 -0.03125,0 -0.125,0 -0.125,0.140625 C 0.578125,-0.046875 0.625,0 0.671875,0 0.75,0 0.859375,-0.015625 0.953125,-0.015625 c 0.09375,0 0.1875,0 0.28125,0 0.09375,0 0.203125,0 0.296875,0 C 1.625,-0.015625 1.71875,0 1.8125,0 1.875,0 1.9375,-0.03125 1.9375,-0.140625 1.9375,-0.21875 1.859375,-0.21875 1.796875,-0.21875 1.5625,-0.234375 1.453125,-0.296875 1.453125,-0.40625 c 0,-0.046875 0.015625,-0.078125 0.03125,-0.125 l 0.625,-2.5 1.703125,2.9375 C 3.875,0 3.890625,0 3.953125,0 c 0.09375,0 0.109375,-0.03125 0.125,-0.125 z m 0,0"
           id="path5432" />
      </symbol>
    </g>
    <g
       id="g7559">
      <symbol
         overflow="visible"
         id="symbol537">
        <path
           style="stroke:none"
           d=""
           id="path8601" />
      </symbol>
      <symbol
         overflow="visible"
         id="symbol8705">
        <path
           style="stroke:none"
           d="m 3.65625,-3.984375 h 0.859375 c 0.203125,0 0.296875,0 0.296875,-0.203125 0,-0.109375 -0.09375,-0.109375 -0.265625,-0.109375 H 3.71875 L 3.921875,-5.4375 c 0.046875,-0.203125 0.1875,-0.90625 0.25,-1.03125 0.078125,-0.1875 0.25,-0.34375 0.46875,-0.34375 0.03125,0 0.296875,0 0.484375,0.1875 -0.4375,0.03125 -0.546875,0.390625 -0.546875,0.53125 0,0.234375 0.1875,0.359375 0.375,0.359375 C 5.21875,-5.734375 5.5,-5.96875 5.5,-6.34375 c 0,-0.453125 -0.453125,-0.6875 -0.859375,-0.6875 -0.34375,0 -0.96875,0.1875 -1.265625,1.171875 -0.0625,0.203125 -0.09375,0.3125 -0.328125,1.5625 h -0.6875 c -0.203125,0 -0.3125,0 -0.3125,0.1875 0,0.125 0.09375,0.125 0.28125,0.125 h 0.65625 L 2.25,-0.046875 c -0.1875,0.96875 -0.359375,1.875 -0.875,1.875 -0.046875,0 -0.28125,0 -0.484375,-0.1875 C 1.359375,1.609375 1.453125,1.25 1.453125,1.109375 1.453125,0.875 1.265625,0.75 1.078125,0.75 0.8125,0.75 0.53125,0.984375 0.53125,1.359375 c 0,0.4375 0.4375,0.6875 0.84375,0.6875 0.546875,0 0.953125,-0.59375 1.125,-0.96875 0.328125,-0.625 0.546875,-1.828125 0.5625,-1.90625 z m 0,0"
           id="path8104" />
      </symbol>
      <symbol
         overflow="visible"
         id="symbol740">
        <path
           style="stroke:none"
           d=""
           id="path6002" />
      </symbol>
      <symbol
         overflow="visible"
         id="symbol3872">
        <path
           style="stroke:none"
           d="m 3.5625,-3.390625 c 0,-0.734375 -0.28125,-1.515625 -0.96875,-1.515625 -1.046875,0 -2.15625,1.875 -2.15625,3.46875 0,0.828125 0.328125,1.5 0.96875,1.5 1.046875,0 2.15625,-1.890625 2.15625,-3.453125 z m -2.34375,0.84375 c 0.359375,-1.5 0.96875,-2.15625 1.375,-2.15625 0.4375,0 0.4375,0.765625 0.4375,0.890625 0,0.28125 -0.046875,0.6875 -0.1875,1.265625 z m 1.5625,0.25 C 2.578125,-1.53125 2.421875,-1.15625 2.203125,-0.8125 2,-0.453125 1.71875,-0.125 1.40625,-0.125 c -0.375,0 -0.4375,-0.53125 -0.4375,-0.90625 0,-0.453125 0.125,-1 0.1875,-1.265625 z m 0,0"
           id="path1984" />
      </symbol>
      <symbol
         overflow="visible"
         id="symbol4160">
        <path
           style="stroke:none"
           d="M 1.734375,-0.734375 C 1.671875,-0.5 1.4375,-0.125 1.078125,-0.125 c -0.015625,0 -0.234375,0 -0.375,-0.09375 0.28125,-0.09375 0.3125,-0.34375 0.3125,-0.390625 0,-0.15625 -0.125,-0.25 -0.28125,-0.25 -0.203125,0 -0.40625,0.15625 -0.40625,0.421875 0,0.34375 0.390625,0.5 0.734375,0.5 0.328125,0 0.609375,-0.1875 0.78125,-0.484375 C 2.015625,-0.0625 2.390625,0.0625 2.671875,0.0625 c 0.8125,0 1.234375,-0.859375 1.234375,-1.0625 0,-0.09375 -0.09375,-0.09375 -0.109375,-0.09375 -0.109375,0 -0.109375,0.046875 -0.140625,0.125 -0.140625,0.484375 -0.5625,0.84375 -0.953125,0.84375 -0.28125,0 -0.421875,-0.1875 -0.421875,-0.453125 0,-0.1875 0.171875,-0.8125 0.359375,-1.59375 C 2.78125,-2.703125 3.09375,-2.875 3.328125,-2.875 c 0.015625,0 0.21875,0 0.375,0.09375 -0.21875,0.0625 -0.3125,0.265625 -0.3125,0.390625 0,0.140625 0.125,0.25 0.28125,0.25 0.15625,0 0.390625,-0.125 0.390625,-0.421875 0,-0.390625 -0.453125,-0.515625 -0.71875,-0.515625 -0.359375,0 -0.640625,0.234375 -0.78125,0.5 -0.125,-0.28125 -0.453125,-0.5 -0.84375,-0.5 C 0.9375,-3.078125 0.5,-2.21875 0.5,-2 c 0,0.078125 0.09375,0.078125 0.109375,0.078125 0.09375,0 0.09375,-0.015625 0.140625,-0.109375 C 0.921875,-2.578125 1.359375,-2.875 1.703125,-2.875 1.9375,-2.875 2.125,-2.75 2.125,-2.421875 2.125,-2.28125 2.03125,-1.9375 1.96875,-1.6875 Z m 0,0"
           id="path3503" />
      </symbol>
      <symbol
         overflow="visible"
         id="symbol2849">
        <path
           style="stroke:none"
           d=""
           id="path7647" />
      </symbol>
      <symbol
         overflow="visible"
         id="symbol6330">
        <path
           style="stroke:none"
           d="m 4.765625,-2.84375 c 0.03125,-0.125 0.078125,-0.328125 0.53125,-0.34375 0.046875,0 0.125,0 0.125,-0.125 0,-0.03125 -0.015625,-0.09375 -0.078125,-0.09375 -0.09375,0 -0.1875,0.015625 -0.28125,0.015625 -0.09375,0 -0.1875,0 -0.28125,0 -0.09375,0 -0.203125,0 -0.296875,0 -0.09375,0 -0.1875,-0.015625 -0.28125,-0.015625 -0.03125,0 -0.125,0 -0.125,0.140625 0,0.078125 0.078125,0.078125 0.125,0.078125 0.328125,0.015625 0.359375,0.109375 0.359375,0.203125 0,0.03125 -0.015625,0.0625 -0.015625,0.09375 L 4,-0.75 2.5,-3.3125 C 2.453125,-3.40625 2.453125,-3.40625 2.328125,-3.40625 H 1.5625 c -0.109375,0 -0.1875,0 -0.1875,0.140625 0,0.078125 0.078125,0.078125 0.1875,0.078125 0.015625,0 0.21875,0 0.34375,0.03125 L 1.25,-0.5625 c -0.03125,0.140625 -0.078125,0.328125 -0.546875,0.34375 -0.03125,0 -0.125,0 -0.125,0.140625 C 0.578125,-0.046875 0.625,0 0.671875,0 0.75,0 0.859375,-0.015625 0.953125,-0.015625 c 0.09375,0 0.1875,0 0.28125,0 0.09375,0 0.203125,0 0.296875,0 C 1.625,-0.015625 1.71875,0 1.8125,0 1.875,0 1.9375,-0.03125 1.9375,-0.140625 1.9375,-0.21875 1.859375,-0.21875 1.796875,-0.21875 1.5625,-0.234375 1.453125,-0.296875 1.453125,-0.40625 c 0,-0.046875 0.015625,-0.078125 0.03125,-0.125 l 0.625,-2.5 1.703125,2.9375 C 3.875,0 3.890625,0 3.953125,0 c 0.09375,0 0.109375,-0.03125 0.125,-0.125 z m 0,0"
           id="path1109" />
      </symbol>
      <symbol
         overflow="visible"
         id="symbol9359">
        <path
           style="stroke:none"
           d=""
           id="path5388" />
      </symbol>
      <symbol
         overflow="visible"
         id="symbol7843">
        <path
           style="stroke:none"
           d="m 3.296875,2.390625 c 0,-0.03125 0,-0.046875 -0.171875,-0.21875 C 1.890625,0.921875 1.5625,-0.96875 1.5625,-2.5 c 0,-1.734375 0.375,-3.46875 1.609375,-4.703125 0.125,-0.125 0.125,-0.140625 0.125,-0.171875 0,-0.078125 -0.03125,-0.109375 -0.09375,-0.109375 -0.109375,0 -1,0.6875 -1.59375,1.953125 -0.5,1.09375 -0.625,2.203125 -0.625,3.03125 0,0.78125 0.109375,1.984375 0.65625,3.125 C 2.25,1.84375 3.09375,2.5 3.203125,2.5 c 0.0625,0 0.09375,-0.03125 0.09375,-0.109375 z m 0,0"
           id="path5287" />
      </symbol>
      <symbol
         overflow="visible"
         id="symbol3365">
        <path
           style="stroke:none"
           d="m 2.875,-2.5 c 0,-0.765625 -0.109375,-1.96875 -0.65625,-3.109375 -0.59375,-1.21875 -1.453125,-1.875 -1.546875,-1.875 -0.0625,0 -0.109375,0.046875 -0.109375,0.109375 0,0.03125 0,0.046875 0.1875,0.234375 0.984375,0.984375 1.546875,2.5625 1.546875,4.640625 0,1.71875 -0.359375,3.46875 -1.59375,4.71875 C 0.5625,2.34375 0.5625,2.359375 0.5625,2.390625 0.5625,2.453125 0.609375,2.5 0.671875,2.5 0.765625,2.5 1.671875,1.8125 2.25,0.546875 2.765625,-0.546875 2.875,-1.65625 2.875,-2.5 Z m 0,0"
           id="path3583" />
      </symbol>
      <symbol
         overflow="visible"
         id="symbol4301">
        <path
           style="stroke:none"
           d=""
           id="path7307" />
      </symbol>
      <symbol
         overflow="visible"
         id="symbol7303">
        <path
           style="stroke:none"
           d="m 1.90625,-2.5 c 0,-0.28125 -0.234375,-0.515625 -0.515625,-0.515625 -0.296875,0 -0.53125,0.234375 -0.53125,0.515625 0,0.296875 0.234375,0.53125 0.53125,0.53125 0.28125,0 0.515625,-0.234375 0.515625,-0.53125 z m 0,0"
           id="path4227" />
      </symbol>
      <symbol
         overflow="visible"
         id="symbol5604">
        <path
           style="stroke:none"
           d=""
           id="path1556" />
      </symbol>
      <symbol
         overflow="visible"
         id="symbol6573">
        <path
           style="stroke:none"
           d="M 1.984375,-3.171875 C 1.984375,-3.3125 1.96875,-3.3125 1.796875,-3.3125 1.453125,-3 0.890625,-3 0.796875,-3 H 0.71875 v 0.21875 h 0.078125 c 0.109375,0 0.4375,-0.015625 0.734375,-0.140625 v 2.5 c 0,0.140625 0,0.203125 -0.53125,0.203125 H 0.75 V 0 c 0.265625,-0.015625 0.71875,-0.015625 1,-0.015625 0.296875,0 0.734375,0 1.015625,0.015625 v -0.21875 h -0.25 c -0.53125,0 -0.53125,-0.0625 -0.53125,-0.203125 z m 0,0"
           id="path9517" />
      </symbol>
      <symbol
         overflow="visible"
         id="symbol7450">
        <path
           style="stroke:none"
           d=""
           id="path6654" />
      </symbol>
      <symbol
         overflow="visible"
         id="symbol7090">
        <path
           style="stroke:none"
           d="M 2.46875,-5.21875 C 1.15625,-4.296875 0.796875,-2.8125 0.796875,-1.75 c 0,0.984375 0.296875,2.515625 1.671875,3.484375 0.0625,0 0.140625,0 0.140625,-0.078125 0,-0.046875 -0.015625,-0.0625 -0.0625,-0.109375 C 1.609375,0.703125 1.28125,-0.46875 1.28125,-1.734375 1.28125,-3.625 2,-4.546875 2.5625,-5.0625 2.59375,-5.09375 2.609375,-5.109375 2.609375,-5.140625 2.609375,-5.21875 2.53125,-5.21875 2.46875,-5.21875 Z m 0,0"
           id="path2153" />
      </symbol>
      <symbol
         overflow="visible"
         id="symbol3931">
        <path
           style="stroke:none"
           d="m 0.625,-5.21875 c -0.046875,0 -0.125,0 -0.125,0.078125 0,0.03125 0.015625,0.046875 0.0625,0.109375 0.59375,0.546875 1.265625,1.484375 1.265625,3.28125 0,1.453125 -0.453125,2.5625 -1.203125,3.234375 -0.125,0.125 -0.125,0.125 -0.125,0.171875 0,0.03125 0.015625,0.078125 0.078125,0.078125 0.09375,0 0.75,-0.453125 1.21875,-1.328125 0.296875,-0.578125 0.5,-1.328125 0.5,-2.140625 C 2.296875,-2.71875 2,-4.25 0.625,-5.21875 Z m 0,0"
           id="path2985" />
      </symbol>
    </g>
    <g
       id="g1814">
      <symbol
         overflow="visible"
         id="symbol26">
        <path
           style="stroke:none"
           d=""
           id="path8742" />
      </symbol>
      <symbol
         overflow="visible"
         id="symbol487">
        <path
           style="stroke:none"
           d="m 3.65625,-3.984375 h 0.859375 c 0.203125,0 0.296875,0 0.296875,-0.203125 0,-0.109375 -0.09375,-0.109375 -0.265625,-0.109375 H 3.71875 L 3.921875,-5.4375 c 0.046875,-0.203125 0.1875,-0.90625 0.25,-1.03125 0.078125,-0.1875 0.25,-0.34375 0.46875,-0.34375 0.03125,0 0.296875,0 0.484375,0.1875 -0.4375,0.03125 -0.546875,0.390625 -0.546875,0.53125 0,0.234375 0.1875,0.359375 0.375,0.359375 C 5.21875,-5.734375 5.5,-5.96875 5.5,-6.34375 c 0,-0.453125 -0.453125,-0.6875 -0.859375,-0.6875 -0.34375,0 -0.96875,0.1875 -1.265625,1.171875 -0.0625,0.203125 -0.09375,0.3125 -0.328125,1.5625 h -0.6875 c -0.203125,0 -0.3125,0 -0.3125,0.1875 0,0.125 0.09375,0.125 0.28125,0.125 h 0.65625 L 2.25,-0.046875 c -0.1875,0.96875 -0.359375,1.875 -0.875,1.875 -0.046875,0 -0.28125,0 -0.484375,-0.1875 C 1.359375,1.609375 1.453125,1.25 1.453125,1.109375 1.453125,0.875 1.265625,0.75 1.078125,0.75 0.8125,0.75 0.53125,0.984375 0.53125,1.359375 c 0,0.4375 0.4375,0.6875 0.84375,0.6875 0.546875,0 0.953125,-0.59375 1.125,-0.96875 0.328125,-0.625 0.546875,-1.828125 0.5625,-1.90625 z m 0,0"
           id="path1328" />
      </symbol>
      <symbol
         overflow="visible"
         id="symbol151">
        <path
           style="stroke:none"
           d="M 3.328125,-3.015625 C 3.390625,-3.265625 3.625,-4.1875 4.3125,-4.1875 c 0.046875,0 0.296875,0 0.5,0.125 C 4.53125,-4 4.34375,-3.765625 4.34375,-3.515625 c 0,0.15625 0.109375,0.34375 0.375,0.34375 0.21875,0 0.53125,-0.171875 0.53125,-0.578125 0,-0.515625 -0.578125,-0.65625 -0.921875,-0.65625 -0.578125,0 -0.921875,0.53125 -1.046875,0.75 -0.25,-0.65625 -0.78125,-0.75 -1.078125,-0.75 -1.03125,0 -1.609375,1.28125 -1.609375,1.53125 0,0.109375 0.109375,0.109375 0.125,0.109375 0.078125,0 0.109375,-0.03125 0.125,-0.109375 0.34375,-1.0625 1,-1.3125 1.34375,-1.3125 0.1875,0 0.53125,0.09375 0.53125,0.671875 0,0.3125 -0.171875,0.96875 -0.53125,2.375 -0.15625,0.609375 -0.515625,1.03125 -0.953125,1.03125 -0.0625,0 -0.28125,0 -0.5,-0.125 0.25,-0.0625 0.46875,-0.265625 0.46875,-0.546875 0,-0.265625 -0.21875,-0.34375 -0.359375,-0.34375 -0.3125,0 -0.546875,0.25 -0.546875,0.578125 0,0.453125 0.484375,0.65625 0.921875,0.65625 0.671875,0 1.03125,-0.703125 1.046875,-0.75 0.125,0.359375 0.484375,0.75 1.078125,0.75 1.03125,0 1.59375,-1.28125 1.59375,-1.53125 0,-0.109375 -0.078125,-0.109375 -0.109375,-0.109375 -0.09375,0 -0.109375,0.046875 -0.140625,0.109375 -0.328125,1.078125 -1,1.3125 -1.3125,1.3125 -0.390625,0 -0.546875,-0.3125 -0.546875,-0.65625 0,-0.21875 0.046875,-0.4375 0.15625,-0.875 z m 0,0"
           id="path9138" />
      </symbol>
      <symbol
         overflow="visible"
         id="symbol7062">
        <path
           style="stroke:none"
           d=""
           id="path6993" />
      </symbol>
      <symbol
         overflow="visible"
         id="symbol210">
        <path
           style="stroke:none"
           d="m 3.296875,2.390625 c 0,-0.03125 0,-0.046875 -0.171875,-0.21875 C 1.890625,0.921875 1.5625,-0.96875 1.5625,-2.5 c 0,-1.734375 0.375,-3.46875 1.609375,-4.703125 0.125,-0.125 0.125,-0.140625 0.125,-0.171875 0,-0.078125 -0.03125,-0.109375 -0.09375,-0.109375 -0.109375,0 -1,0.6875 -1.59375,1.953125 -0.5,1.09375 -0.625,2.203125 -0.625,3.03125 0,0.78125 0.109375,1.984375 0.65625,3.125 C 2.25,1.84375 3.09375,2.5 3.203125,2.5 c 0.0625,0 0.09375,-0.03125 0.09375,-0.109375 z m 0,0"
           id="path4222" />
      </symbol>
      <symbol
         overflow="visible"
         id="symbol682">
        <path
           style="stroke:none"
           d="m 2.875,-2.5 c 0,-0.765625 -0.109375,-1.96875 -0.65625,-3.109375 -0.59375,-1.21875 -1.453125,-1.875 -1.546875,-1.875 -0.0625,0 -0.109375,0.046875 -0.109375,0.109375 0,0.03125 0,0.046875 0.1875,0.234375 0.984375,0.984375 1.546875,2.5625 1.546875,4.640625 0,1.71875 -0.359375,3.46875 -1.59375,4.71875 C 0.5625,2.34375 0.5625,2.359375 0.5625,2.390625 0.5625,2.453125 0.609375,2.5 0.671875,2.5 0.765625,2.5 1.671875,1.8125 2.25,0.546875 2.765625,-0.546875 2.875,-1.65625 2.875,-2.5 Z m 0,0"
           id="path5906" />
      </symbol>
    </g>
    <g
       id="g2969">
      <symbol
         overflow="visible"
         id="symbol4860">
        <path
           style="stroke:none"
           d=""
           id="path7089" />
      </symbol>
      <symbol
         overflow="visible"
         id="symbol5971">
        <path
           style="stroke:none"
           d="M 0.453125,1.21875 C 0.375,1.5625 0.34375,1.625 -0.09375,1.625 c -0.109375,0 -0.21875,0 -0.21875,0.1875 0,0.078125 0.046875,0.125 0.125,0.125 0.265625,0 0.5625,-0.03125 0.828125,-0.03125 0.34375,0 0.671875,0.03125 1,0.03125 0.046875,0 0.171875,0 0.171875,-0.203125 C 1.8125,1.625 1.71875,1.625 1.578125,1.625 c -0.5,0 -0.5,-0.0625 -0.5,-0.15625 0,-0.125 0.421875,-1.75 0.484375,-2 0.125,0.296875 0.40625,0.640625 0.921875,0.640625 1.15625,0 2.40625,-1.453125 2.40625,-2.921875 0,-0.9375 -0.578125,-1.59375 -1.328125,-1.59375 -0.5,0 -0.984375,0.359375 -1.3125,0.75 -0.09375,-0.546875 -0.53125,-0.75 -0.890625,-0.75 -0.46875,0 -0.65625,0.390625 -0.734375,0.5625 C 0.4375,-3.5 0.3125,-2.90625 0.3125,-2.875 c 0,0.109375 0.09375,0.109375 0.109375,0.109375 0.109375,0 0.109375,-0.015625 0.171875,-0.234375 0.171875,-0.703125 0.375,-1.1875 0.734375,-1.1875 0.171875,0 0.3125,0.078125 0.3125,0.453125 0,0.234375 -0.03125,0.34375 -0.078125,0.515625 z m 1.75,-4.328125 C 2.265625,-3.375 2.546875,-3.65625 2.71875,-3.8125 c 0.359375,-0.296875 0.640625,-0.375 0.8125,-0.375 0.390625,0 0.640625,0.34375 0.640625,0.9375 0,0.59375 -0.328125,1.734375 -0.515625,2.109375 -0.34375,0.703125 -0.8125,1.03125 -1.1875,1.03125 C 1.8125,-0.109375 1.6875,-0.9375 1.6875,-1 c 0,-0.015625 0,-0.03125 0.03125,-0.15625 z m 0,0"
           id="path1845" />
      </symbol>
      <symbol
         overflow="visible"
         id="symbol5737">
        <path
           style="stroke:none"
           d="m 3.65625,-3.984375 h 0.859375 c 0.203125,0 0.296875,0 0.296875,-0.203125 0,-0.109375 -0.09375,-0.109375 -0.265625,-0.109375 H 3.71875 L 3.921875,-5.4375 c 0.046875,-0.203125 0.1875,-0.90625 0.25,-1.03125 0.078125,-0.1875 0.25,-0.34375 0.46875,-0.34375 0.03125,0 0.296875,0 0.484375,0.1875 -0.4375,0.03125 -0.546875,0.390625 -0.546875,0.53125 0,0.234375 0.1875,0.359375 0.375,0.359375 C 5.21875,-5.734375 5.5,-5.96875 5.5,-6.34375 c 0,-0.453125 -0.453125,-0.6875 -0.859375,-0.6875 -0.34375,0 -0.96875,0.1875 -1.265625,1.171875 -0.0625,0.203125 -0.09375,0.3125 -0.328125,1.5625 h -0.6875 c -0.203125,0 -0.3125,0 -0.3125,0.1875 0,0.125 0.09375,0.125 0.28125,0.125 h 0.65625 L 2.25,-0.046875 c -0.1875,0.96875 -0.359375,1.875 -0.875,1.875 -0.046875,0 -0.28125,0 -0.484375,-0.1875 C 1.359375,1.609375 1.453125,1.25 1.453125,1.109375 1.453125,0.875 1.265625,0.75 1.078125,0.75 0.8125,0.75 0.53125,0.984375 0.53125,1.359375 c 0,0.4375 0.4375,0.6875 0.84375,0.6875 0.546875,0 0.953125,-0.59375 1.125,-0.96875 0.328125,-0.625 0.546875,-1.828125 0.5625,-1.90625 z m 0,0"
           id="path3594" />
      </symbol>
      <symbol
         overflow="visible"
         id="symbol9474">
        <path
           style="stroke:none"
           d="M 3.328125,-3.015625 C 3.390625,-3.265625 3.625,-4.1875 4.3125,-4.1875 c 0.046875,0 0.296875,0 0.5,0.125 C 4.53125,-4 4.34375,-3.765625 4.34375,-3.515625 c 0,0.15625 0.109375,0.34375 0.375,0.34375 0.21875,0 0.53125,-0.171875 0.53125,-0.578125 0,-0.515625 -0.578125,-0.65625 -0.921875,-0.65625 -0.578125,0 -0.921875,0.53125 -1.046875,0.75 -0.25,-0.65625 -0.78125,-0.75 -1.078125,-0.75 -1.03125,0 -1.609375,1.28125 -1.609375,1.53125 0,0.109375 0.109375,0.109375 0.125,0.109375 0.078125,0 0.109375,-0.03125 0.125,-0.109375 0.34375,-1.0625 1,-1.3125 1.34375,-1.3125 0.1875,0 0.53125,0.09375 0.53125,0.671875 0,0.3125 -0.171875,0.96875 -0.53125,2.375 -0.15625,0.609375 -0.515625,1.03125 -0.953125,1.03125 -0.0625,0 -0.28125,0 -0.5,-0.125 0.25,-0.0625 0.46875,-0.265625 0.46875,-0.546875 0,-0.265625 -0.21875,-0.34375 -0.359375,-0.34375 -0.3125,0 -0.546875,0.25 -0.546875,0.578125 0,0.453125 0.484375,0.65625 0.921875,0.65625 0.671875,0 1.03125,-0.703125 1.046875,-0.75 0.125,0.359375 0.484375,0.75 1.078125,0.75 1.03125,0 1.59375,-1.28125 1.59375,-1.53125 0,-0.109375 -0.078125,-0.109375 -0.109375,-0.109375 -0.09375,0 -0.109375,0.046875 -0.140625,0.109375 -0.328125,1.078125 -1,1.3125 -1.3125,1.3125 -0.390625,0 -0.546875,-0.3125 -0.546875,-0.65625 0,-0.21875 0.046875,-0.4375 0.15625,-0.875 z m 0,0"
           id="path1067" />
      </symbol>
      <symbol
         overflow="visible"
         id="symbol6184">
        <path
           style="stroke:none"
           d=""
           id="path8360" />
      </symbol>
      <symbol
         overflow="visible"
         id="symbol3088">
        <path
           style="stroke:none"
           d="m 3.296875,2.390625 c 0,-0.03125 0,-0.046875 -0.171875,-0.21875 C 1.890625,0.921875 1.5625,-0.96875 1.5625,-2.5 c 0,-1.734375 0.375,-3.46875 1.609375,-4.703125 0.125,-0.125 0.125,-0.140625 0.125,-0.171875 0,-0.078125 -0.03125,-0.109375 -0.09375,-0.109375 -0.109375,0 -1,0.6875 -1.59375,1.953125 -0.5,1.09375 -0.625,2.203125 -0.625,3.03125 0,0.78125 0.109375,1.984375 0.65625,3.125 C 2.25,1.84375 3.09375,2.5 3.203125,2.5 c 0.0625,0 0.09375,-0.03125 0.09375,-0.109375 z m 0,0"
           id="path4783" />
      </symbol>
      <symbol
         overflow="visible"
         id="symbol7924">
        <path
           style="stroke:none"
           d="m 2.875,-2.5 c 0,-0.765625 -0.109375,-1.96875 -0.65625,-3.109375 -0.59375,-1.21875 -1.453125,-1.875 -1.546875,-1.875 -0.0625,0 -0.109375,0.046875 -0.109375,0.109375 0,0.03125 0,0.046875 0.1875,0.234375 0.984375,0.984375 1.546875,2.5625 1.546875,4.640625 0,1.71875 -0.359375,3.46875 -1.59375,4.71875 C 0.5625,2.34375 0.5625,2.359375 0.5625,2.390625 0.5625,2.453125 0.609375,2.5 0.671875,2.5 0.765625,2.5 1.671875,1.8125 2.25,0.546875 2.765625,-0.546875 2.875,-1.65625 2.875,-2.5 Z m 0,0"
           id="path8201" />
      </symbol>
    </g>
  </defs>
  <sodipodi:namedview
     id="base"
     pagecolor="#ffffff"
     bordercolor="#666666"
     borderopacity="1.0"
     inkscape:pageopacity="0.0"
     inkscape:pageshadow="2"
     inkscape:zoom="3.959798"
     inkscape:cx="80.157122"
     inkscape:cy="106.8285"
     inkscape:document-units="mm"
     inkscape:current-layer="layer1"
     inkscape:document-rotation="0"
     showgrid="false"
     inkscape:window-width="2560"
     inkscape:window-height="1372"
     inkscape:window-x="1920"
     inkscape:window-y="0"
     inkscape:window-maximized="1"
     scale-x="4" />
  <metadata
     id="metadata5">
    <rdf:RDF>
      <cc:Work
         rdf:about="">
        <dc:format>image/svg+xml</dc:format>
        <dc:type
           rdf:resource="http://purl.org/dc/dcmitype/StillImage" />
        <dc:title></dc:title>
      </cc:Work>
    </rdf:RDF>
  </metadata>
  <g
     inkscape:label="Layer 1"
     inkscape:groupmode="layer"
     id="layer1"
     transform="translate(19.317472,-29.327399)">
    <path
       style="fill:none;stroke:#000000;stroke-width:0.264583px;stroke-linecap:butt;stroke-linejoin:miter;stroke-opacity:1"
       d="M 17.322586,73.92416 V 37.484838 h 57.862448 v 36.639538 z"
       id="path5225" />
    <path
       style="fill:none;stroke:#00aad4;stroke-width:0.264583px;stroke-linecap:butt;stroke-linejoin:miter;stroke-opacity:1"
       d="m 17.322586,73.92416 c 0,0 10.811693,0.200216 15.817091,-0.600646 5.005398,-0.800862 10.811658,-29.43176 10.811658,-29.43176 0,0 1.4015,-4.404752 2.202365,-5.005399 0.800862,-0.600647 0.800862,-0.200216 1.801947,1.001078 1.001086,1.201294 5.806295,26.228302 8.008657,29.031329 2.202363,2.803025 2.602812,4.204536 5.005398,4.604967 2.402589,0.400431 11.412297,0.400431 11.412297,0.400431"
       id="path5227" />
    <g
       inkscape:label=""
       transform="translate(-94.41469,-25.389305)"
       id="g5257">
      <g
         id="g4955">
        <g
           style="fill:#000000;fill-opacity:1"
           id="g548">
          <use
             xlink:href="#symbol6364"
             x="91.925003"
             y="81.962997"
             id="use9761"
             width="100%"
             height="100%" />
        </g>
        <g
           style="fill:#000000;fill-opacity:1"
           id="g862">
          <use
             xlink:href="#symbol2833"
             x="96.938004"
             y="81.962997"
             id="use6273"
             width="100%"
             height="100%" />
        </g>
        <g
           style="fill:#000000;fill-opacity:1"
           id="g4">
          <use
             xlink:href="#symbol2978"
             x="100.812"
             y="81.962997"
             id="use1725"
             width="100%"
             height="100%" />
        </g>
        <g
           style="fill:#000000;fill-opacity:1"
           id="g6628">
          <use
             xlink:href="#symbol5756"
             x="106.506"
             y="81.962997"
             id="use2340"
             width="100%"
             height="100%" />
        </g>
      </g>
    </g>
    <g
       inkscape:label=""
       transform="translate(-49.766522,1.0392042)"
       id="g5321">
      <g
         id="g9269">
        <g
           style="fill:#000000;fill-opacity:1"
           id="g5623">
          <use
             xlink:href="#symbol6921"
             x="91.925003"
             y="81.962997"
             id="use5181"
             width="100%"
             height="100%" />
        </g>
      </g>
    </g>
    <text
       xml:space="preserve"
       style="font-style:normal;font-weight:normal;font-size:5.29167px;line-height:1.25;font-family:sans-serif;fill:#000000;fill-opacity:1;stroke:none;stroke-width:0.264583"
       x="30.536863"
       y="33.347828"
       id="text5336"><tspan
         sodipodi:role="line"
         id="tspan5334"
         x="30.536863"
         y="33.347828"
         style="font-size:5.29167px;stroke-width:0.264583">Base density</tspan></text>
    <path
       style="fill:none;fill-opacity:0.563835;stroke:#999999;stroke-width:4.47348;stroke-linecap:butt;stroke-linejoin:bevel;stroke-miterlimit:4;stroke-dasharray:none;stroke-opacity:1;marker-end:url(#Arrow2Send)"
       d="M 46.67102,86.967616 V 147.52683"
       id="path5338" />
    <text
       xml:space="preserve"
       id="text6621"
       style="font-style:normal;font-weight:normal;font-size:10.5833px;line-height:1.25;font-family:sans-serif;white-space:pre;shape-inside:url(#rect6623);fill:#000000;fill-opacity:1;stroke:none;"><tspan
         style="visibility:hidden"
         x="-12.300781"
         y="145.28171"><tspan
           dx="0 7.9168043 6.4750357 4.1651077 10.309416 6.4853706 2.9403801 2.9403801 5.5551987 2.9403801 6.7075806 6.7179146 3.3641243 0 6.6662369 6.4750366">Normalizing flow</tspan></tspan></text>
    <text
       xml:space="preserve"
       style="font-style:normal;font-weight:normal;font-size:5.29167px;line-height:1.25;font-family:sans-serif;fill:#000000;fill-opacity:1;stroke:none;stroke-width:0.264583"
       x="-3.9618242"
       y="120.18745"
       id="text6629"><tspan
         sodipodi:role="line"
         id="tspan6627"
         x="-3.9618242"
         y="120.18745"
         style="font-size:5.29167px;stroke-width:0.264583">Normalizing Flow</tspan></text>
    <g
       inkscape:label=""
       transform="translate(-37.885608,36.881834)"
       id="g6872">
      <g
         id="g6796">
        <g
           style="fill:#000000;fill-opacity:1"
           id="g9333">
          <use
             xlink:href="#symbol8705"
             x="91.925003"
             y="81.962997"
             id="use563"
             width="100%"
             height="100%" />
        </g>
        <g
           style="fill:#000000;fill-opacity:1"
           id="g1206">
          <use
             xlink:href="#symbol3872"
             x="96.803001"
             y="83.457001"
             id="use5426"
             width="100%"
             height="100%" />
        </g>
        <g
           style="fill:#000000;fill-opacity:1"
           id="g3199">
          <use
             xlink:href="#symbol6330"
             x="100.598"
             y="84.459"
             id="use2022"
             width="100%"
             height="100%" />
        </g>
        <g
           style="fill:#000000;fill-opacity:1"
           id="g8606">
          <use
             xlink:href="#symbol7843"
             x="107.495"
             y="81.962997"
             id="use1930"
             width="100%"
             height="100%" />
        </g>
        <g
           style="fill:#000000;fill-opacity:1"
           id="g5056">
          <use
             xlink:href="#symbol7303"
             x="111.37"
             y="81.962997"
             id="use6552"
             width="100%"
             height="100%" />
        </g>
        <g
           style="fill:#000000;fill-opacity:1"
           id="g8321">
          <use
             xlink:href="#symbol7303"
             x="115.80136"
             y="81.962997"
             id="use2684"
             width="100%"
             height="100%" />
        </g>
        <g
           style="fill:#000000;fill-opacity:1"
           id="g8593">
          <use
             xlink:href="#symbol7303"
             x="120.22276"
             y="81.962997"
             id="use5536"
             width="100%"
             height="100%" />
        </g>
        <g
           style="fill:#000000;fill-opacity:1"
           id="g9556">
          <use
             xlink:href="#symbol7843"
             x="124.653"
             y="81.962997"
             id="use3975"
             width="100%"
             height="100%" />
        </g>
        <g
           style="fill:#000000;fill-opacity:1"
           id="g3466">
          <use
             xlink:href="#symbol8705"
             x="128.528"
             y="81.962997"
             id="use8976"
             width="100%"
             height="100%" />
        </g>
        <g
           style="fill:#000000;fill-opacity:1"
           id="g8576">
          <use
             xlink:href="#symbol3872"
             x="133.405"
             y="83.761002"
             id="use4325"
             width="100%"
             height="100%" />
        </g>
        <g
           style="fill:#000000;fill-opacity:1"
           id="g9505">
          <use
             xlink:href="#symbol6573"
             x="137.2"
             y="84.758003"
             id="use6367"
             width="100%"
             height="100%" />
        </g>
        <g
           style="fill:#000000;fill-opacity:1"
           id="g6380">
          <use
             xlink:href="#symbol7090"
             x="141.088"
             y="83.761002"
             id="use2623"
             width="100%"
             height="100%" />
        </g>
        <g
           style="fill:#000000;fill-opacity:1"
           id="g7476">
          <use
             xlink:href="#symbol4160"
             x="144.202"
             y="83.761002"
             id="use6406"
             width="100%"
             height="100%" />
        </g>
        <g
           style="fill:#000000;fill-opacity:1"
           id="g6379">
          <use
             xlink:href="#symbol3931"
             x="148.71899"
             y="83.761002"
             id="use2346"
             width="100%"
             height="100%" />
        </g>
        <g
           style="fill:#000000;fill-opacity:1"
           id="g3639">
          <use
             xlink:href="#symbol3365"
             x="152.33099"
             y="81.962997"
             id="use4605"
             width="100%"
             height="100%" />
        </g>
      </g>
    </g>
    <path
       style="fill:none;stroke:#000000;stroke-width:0.264583px;stroke-linecap:butt;stroke-linejoin:miter;stroke-opacity:1"
       d="M 31.604821,195.18019 V 158.37092 H 94.18059 v 37.09242 z"
       id="path6945" />
    <path
       style="fill:none;stroke:#00aad4;stroke-width:0.264583px;stroke-linecap:butt;stroke-linejoin:miter;stroke-opacity:1"
       d="m 31.60482,195.18019 c 0,0 8.494452,0.56631 9.627042,-1.13259 1.132591,-1.69889 3.964044,-9.62705 5.379792,-12.17538 1.415751,-2.54833 2.548343,-1.1326 3.680931,-0.28315 1.132591,0.84946 1.132591,1.6989 2.8315,1.98205 1.69891,0.28315 2.831454,-3.68093 4.530362,-4.24723 1.698908,-0.56629 2.548295,-0.28316 3.397771,1.98204 0.849479,2.26519 1.982068,6.79556 2.8315,7.07871 0.849431,0.28315 2.265182,-0.5663 2.265182,-3.68093 0,-3.11464 2.831499,-21.80241 2.831499,-21.80241 0,0 0.283158,-1.98205 1.132589,-2.54835 0.849432,-0.56629 1.581132,4.65376 1.581132,4.65376 l 1.856483,12.36097 c 0,0 -0.200216,0.72579 0.775838,1.62676 0.976053,0.90097 1.67681,-3.82913 1.67681,-3.82913 0,0 0.400431,-0.926 0.850916,-0.77584 0.450487,0.15016 1.201303,1.70184 1.426543,2.37757 0.22524,0.67573 1.819177,10.0521 2.916372,12.17571 1.097196,2.12361 2.937666,4.81352 4.494977,5.59218 1.557314,0.77866 5.769145,0.67248 5.769145,0.67248"
       id="path6947" />
    <g
       inkscape:label=""
       transform="translate(-37.291582,122.95684)"
       id="g7106">
      <g
         id="g4780">
        <g
           style="fill:#000000;fill-opacity:1"
           id="g422">
          <use
             xlink:href="#symbol487"
             x="91.925003"
             y="81.962997"
             id="use4208"
             width="100%"
             height="100%" />
        </g>
        <g
           style="fill:#000000;fill-opacity:1"
           id="g9711">
          <use
             xlink:href="#symbol210"
             x="97.875"
             y="81.962997"
             id="use6285"
             width="100%"
             height="100%" />
        </g>
        <g
           style="fill:#000000;fill-opacity:1"
           id="g4741">
          <use
             xlink:href="#symbol151"
             x="101.75"
             y="81.962997"
             id="use9881"
             width="100%"
             height="100%" />
        </g>
        <g
           style="fill:#000000;fill-opacity:1"
           id="g1567">
          <use
             xlink:href="#symbol682"
             x="107.443"
             y="81.962997"
             id="use7672"
             width="100%"
             height="100%" />
        </g>
      </g>
    </g>
    <g
       inkscape:label=""
       transform="translate(-94.77063,98.039787)"
       id="g7322">
      <g
         id="g1673">
        <g
           style="fill:#000000;fill-opacity:1"
           id="g7851">
          <use
             xlink:href="#symbol5971"
             x="91.925003"
             y="81.962997"
             id="use8602"
             width="100%"
             height="100%" />
        </g>
        <g
           style="fill:#000000;fill-opacity:1"
           id="g4540">
          <use
             xlink:href="#symbol3088"
             x="96.938004"
             y="81.962997"
             id="use8796"
             width="100%"
             height="100%" />
        </g>
        <g
           style="fill:#000000;fill-opacity:1"
           id="g6202">
          <use
             xlink:href="#symbol5737"
             x="100.812"
             y="81.962997"
             id="use6544"
             width="100%"
             height="100%" />
        </g>
        <g
           style="fill:#000000;fill-opacity:1"
           id="g9820">
          <use
             xlink:href="#symbol3088"
             x="106.762"
             y="81.962997"
             id="use9295"
             width="100%"
             height="100%" />
        </g>
        <g
           style="fill:#000000;fill-opacity:1"
           id="g5859">
          <use
             xlink:href="#symbol9474"
             x="110.636"
             y="81.962997"
             id="use2626"
             width="100%"
             height="100%" />
        </g>
        <g
           style="fill:#000000;fill-opacity:1"
           id="g1561">
          <use
             xlink:href="#symbol7924"
             x="116.33"
             y="81.962997"
             id="use7253"
             width="100%"
             height="100%" />
          <use
             xlink:href="#symbol7924"
             x="120.20445"
             y="81.962997"
             id="use3969"
             width="100%"
             height="100%" />
        </g>
      </g>
    </g>
  </g>
</svg>
